<svg width="2000px" height="43px"
 viewBox="0.00 0.00 4936.92 105.72" xmlns="http://www.w3.org/2000/svg" xmlns:xlink="http://www.w3.org/1999/xlink">
<g id="graph0" class="graph" transform="scale(1.0 1.0) rotate(0) translate(4 101.72)">
<title>ContextMapGraph</title>
<polygon fill="white" stroke="transparent" points="-4,4 -4,-101.72 4932.92,-101.72 4932.92,4 -4,4"/>
<!-- AlianzasB2BContexto -->
<g id="node1" class="node">
<title>AlianzasB2BContexto</title>
<polygon fill="none" stroke="black" stroke-width="2" points="210.34,-91.05 200.72,-91.85 191.05,-92.53 181.37,-93.08 171.71,-93.5 162.11,-93.8 152.62,-93.96 143.26,-93.99 134.06,-93.88 125.07,-93.65 116.32,-93.27 107.82,-92.76 99.62,-92.12 91.73,-91.34 84.18,-90.44 76.98,-89.41 70.17,-88.25 63.75,-86.97 57.73,-85.58 52.14,-84.07 46.97,-82.45 42.23,-80.74 37.93,-78.92 34.07,-77.01 30.65,-75.02 27.67,-72.95 25.12,-70.81 23,-68.61 21.3,-66.35 20.02,-64.04 19.14,-61.69 18.65,-59.31 18.55,-56.9 18.81,-54.48 19.43,-52.04 20.4,-49.61 21.7,-47.18 23.31,-44.76 25.23,-42.37 27.44,-40.01 29.93,-37.68 32.69,-35.4 35.7,-33.16 38.96,-30.99 42.45,-28.87 46.16,-26.83 50.1,-24.85 54.23,-22.96 58.57,-21.15 63.11,-19.43 67.83,-17.8 72.73,-16.27 77.81,-14.83 83.07,-13.5 88.49,-12.27 94.08,-11.15 99.84,-10.14 105.75,-9.23 111.82,-8.44 118.04,-7.76 124.41,-7.19 130.93,-6.73 137.58,-6.38 144.36,-6.15 151.27,-6.03 158.3,-6.01 165.44,-6.11 172.68,-6.31 180.01,-6.62 187.41,-7.03 194.88,-7.55 202.39,-8.17 209.94,-8.88 217.49,-9.69 225.05,-10.6 232.57,-11.59 240.04,-12.68 247.45,-13.85 254.75,-15.1 261.93,-16.44 268.97,-17.85 275.83,-19.33 282.49,-20.89 288.91,-22.52 295.08,-24.21 300.96,-25.96 306.53,-27.77 311.75,-29.63 316.6,-31.54 321.06,-33.5 325.1,-35.51 328.69,-37.55 331.81,-39.63 334.44,-41.73 336.57,-43.87 338.17,-46.02 339.23,-48.19 339.74,-50.37 339.69,-52.56 339.06,-54.75 337.86,-56.94 336.09,-59.11 333.73,-61.28 330.81,-63.42 327.32,-65.53 323.27,-67.61 318.68,-69.66 313.56,-71.66 307.93,-73.61 301.81,-75.5 295.22,-77.34 288.2,-79.1 280.76,-80.8 272.93,-82.41 264.76,-83.94 256.27,-85.38 247.5,-86.72 238.48,-87.97 229.26,-89.11 219.86,-90.14 210.34,-91.05"/>
<text text-anchor="middle" x="169.75" y="-45.06" font-family="sans-serif" font-size="16.00">AlianzasB2BContexto</text>
</g>
<!-- AnaliticaContexto -->
<g id="node2" class="node">
<title>AnaliticaContexto</title>
<polygon fill="none" stroke="black" stroke-width="2" points="404.85,-18.47 410.73,-16.36 416.84,-14.35 423.16,-12.44 429.65,-10.65 436.31,-8.97 443.09,-7.43 449.98,-6.02 456.96,-4.75 463.99,-3.62 471.07,-2.65 478.16,-1.83 485.24,-1.17 492.29,-0.67 499.3,-0.34 506.24,-0.16 513.09,-0.15 519.85,-0.31 526.48,-0.62 532.98,-1.09 539.33,-1.72 545.52,-2.5 551.54,-3.43 557.37,-4.51 563.01,-5.72 568.45,-7.06 573.68,-8.53 578.69,-10.12 583.47,-11.81 588.02,-13.62 592.34,-15.51 596.42,-17.5 600.25,-19.56 603.84,-21.69 607.17,-23.88 610.26,-26.12 613.08,-28.41 615.65,-30.73 617.96,-33.08 620.01,-35.44 621.8,-37.82 623.32,-40.2 624.57,-42.57 625.55,-44.93 626.26,-47.27 626.7,-49.58 626.86,-51.86 626.75,-54.11 626.36,-56.31 625.68,-58.47 624.72,-60.57 623.48,-62.62 621.95,-64.61 620.14,-66.54 618.03,-68.4 615.64,-70.19 612.96,-71.92 609.99,-73.57 606.73,-75.15 603.18,-76.66 599.35,-78.1 595.23,-79.45 590.84,-80.74 586.18,-81.94 581.25,-83.07 576.06,-84.12 570.62,-85.1 564.94,-85.99 559.03,-86.81 552.9,-87.55 546.56,-88.21 540.03,-88.79 533.33,-89.29 526.46,-89.71 519.45,-90.04 512.32,-90.3 505.09,-90.47 497.78,-90.55 490.41,-90.55 483.01,-90.46 475.59,-90.29 468.19,-90.02 460.83,-89.66 453.53,-89.21 446.33,-88.67 439.24,-88.03 432.29,-87.29 425.51,-86.45 418.93,-85.52 412.57,-84.49 406.45,-83.36 400.6,-82.13 395.05,-80.8 389.81,-79.37 384.91,-77.84 380.36,-76.22 376.19,-74.51 372.41,-72.7 369.04,-70.81 366.08,-68.83 363.56,-66.76 361.48,-64.62 359.86,-62.41 358.68,-60.13 357.97,-57.79 357.72,-55.4 357.94,-52.95 358.61,-50.47 359.74,-47.96 361.32,-45.42 363.34,-42.86 365.79,-40.3 368.66,-37.74 371.94,-35.19 375.61,-32.66 379.66,-30.16 384.06,-27.7 388.8,-25.3 393.86,-22.95 399.22,-20.67 404.85,-18.47"/>
<text text-anchor="middle" x="500.75" y="-45.06" font-family="sans-serif" font-size="16.00">AnaliticaContexto</text>
</g>
<!-- CumplimientosContexto -->
<g id="node3" class="node">
<title>CumplimientosContexto</title>
<polygon fill="none" stroke="black" stroke-width="2" points="661.67,-47.59 661.83,-44.71 662.45,-41.85 663.53,-39.02 665.08,-36.23 667.08,-33.5 669.55,-30.84 672.46,-28.25 675.81,-25.75 679.6,-23.34 683.81,-21.04 688.43,-18.85 693.45,-16.78 698.86,-14.83 704.64,-13.02 710.77,-11.34 717.25,-9.81 724.05,-8.42 731.14,-7.17 738.52,-6.07 746.16,-5.13 754.05,-4.33 762.15,-3.68 770.44,-3.18 778.9,-2.83 787.51,-2.61 796.25,-2.54 805.08,-2.61 813.98,-2.81 822.93,-3.14 831.9,-3.59 840.86,-4.16 849.8,-4.84 858.68,-5.63 867.47,-6.51 876.17,-7.5 884.73,-8.57 893.13,-9.73 901.36,-10.96 909.38,-12.27 917.18,-13.64 924.73,-15.08 932.02,-16.57 939.02,-18.11 945.71,-19.69 952.07,-21.32 958.09,-22.98 963.76,-24.68 969.05,-26.41 973.95,-28.17 978.45,-29.95 982.54,-31.75 986.2,-33.57 989.43,-35.42 992.22,-37.27 994.57,-39.14 996.46,-41.03 997.89,-42.92 998.86,-44.83 999.38,-46.74 999.43,-48.67 999.02,-50.6 998.15,-52.53 996.83,-54.47 995.05,-56.41 992.84,-58.35 990.18,-60.29 987.09,-62.22 983.59,-64.15 979.67,-66.07 975.35,-67.97 970.65,-69.86 965.58,-71.73 960.14,-73.57 954.36,-75.38 948.25,-77.16 941.83,-78.9 935.12,-80.59 928.12,-82.24 920.87,-83.82 913.39,-85.34 905.68,-86.79 897.78,-88.17 889.69,-89.46 881.46,-90.66 873.08,-91.76 864.6,-92.76 856.02,-93.65 847.38,-94.42 838.7,-95.07 829.99,-95.59 821.28,-95.98 812.59,-96.23 803.95,-96.33 795.38,-96.29 786.9,-96.09 778.53,-95.74 770.3,-95.24 762.23,-94.58 754.34,-93.76 746.65,-92.79 739.17,-91.66 731.94,-90.37 724.97,-88.93 718.28,-87.35 711.89,-85.62 705.81,-83.75 700.07,-81.75 694.67,-79.62 689.64,-77.38 684.99,-75.02 680.72,-72.57 676.87,-70.02 673.42,-67.39 670.41,-64.68 667.82,-61.92 665.68,-59.11 663.99,-56.26 662.76,-53.38 661.98,-50.49 661.67,-47.59"/>
<text text-anchor="middle" x="830.75" y="-45.06" font-family="sans-serif" font-size="16.00">CumplimientosContexto</text>
</g>
<!-- GestionCampanasContratosContexto -->
<g id="node4" class="node">
<title>GestionCampanasContratosContexto</title>
<polygon fill="none" stroke="black" stroke-width="2" points="1348.07,-6.34 1363.37,-7.08 1378.4,-7.93 1393.09,-8.89 1407.38,-9.95 1421.22,-11.12 1434.55,-12.39 1447.32,-13.75 1459.47,-15.21 1470.97,-16.75 1481.76,-18.37 1491.82,-20.07 1501.1,-21.85 1509.58,-23.69 1517.23,-25.59 1524.03,-27.55 1529.96,-29.56 1535.02,-31.62 1539.19,-33.72 1542.47,-35.85 1544.87,-38.02 1546.38,-40.21 1547.03,-42.41 1546.82,-44.64 1545.78,-46.87 1543.92,-49.1 1541.27,-51.33 1537.85,-53.55 1533.71,-55.75 1528.87,-57.94 1523.36,-60.1 1517.23,-62.24 1510.5,-64.34 1503.23,-66.39 1495.45,-68.41 1487.19,-70.37 1478.51,-72.28 1469.44,-74.13 1460.02,-75.91 1450.28,-77.63 1440.27,-79.27 1430.03,-80.84 1419.58,-82.32 1408.96,-83.72 1398.2,-85.03 1387.33,-86.25 1376.38,-87.37 1365.38,-88.4 1354.34,-89.32 1343.29,-90.14 1332.25,-90.84 1321.23,-91.44 1310.26,-91.93 1299.34,-92.3 1288.49,-92.56 1277.71,-92.7 1267.03,-92.73 1256.44,-92.63 1245.96,-92.42 1235.58,-92.08 1225.33,-91.63 1215.2,-91.06 1205.21,-90.37 1195.35,-89.57 1185.63,-88.65 1176.07,-87.62 1166.67,-86.48 1157.45,-85.23 1148.4,-83.87 1139.55,-82.42 1130.91,-80.86 1122.49,-79.22 1114.3,-77.48 1106.38,-75.66 1098.73,-73.75 1091.38,-71.77 1084.34,-69.73 1077.65,-67.62 1071.33,-65.45 1065.4,-63.23 1059.9,-60.97 1054.84,-58.66 1050.27,-56.33 1046.19,-53.97 1042.66,-51.59 1039.69,-49.2 1037.31,-46.81 1035.55,-44.43 1034.43,-42.05 1033.98,-39.69 1034.23,-37.36 1035.19,-35.06 1036.88,-32.8 1039.32,-30.59 1042.52,-28.43 1046.5,-26.33 1051.25,-24.29 1056.78,-22.33 1063.1,-20.45 1070.18,-18.64 1078.04,-16.93 1086.65,-15.31 1096,-13.79 1106.07,-12.38 1116.83,-11.06 1128.25,-9.86 1140.3,-8.78 1152.94,-7.81 1166.13,-6.95 1179.82,-6.22 1193.97,-5.61 1208.53,-5.13 1223.43,-4.77 1238.63,-4.53 1254.07,-4.42 1269.67,-4.44 1285.39,-4.57 1301.15,-4.84 1316.89,-5.22 1332.55,-5.72 1348.07,-6.34"/>
<text text-anchor="middle" x="1282.75" y="-45.06" font-family="sans-serif" font-size="16.00">GestionCampanasContratosContexto</text>
</g>
<!-- GestionContenidoContexto -->
<g id="node5" class="node">
<title>GestionContenidoContexto</title>
<polygon fill="none" stroke="black" stroke-width="2" points="1706.35,-7.73 1717.63,-6.7 1729.01,-5.78 1740.46,-4.99 1751.92,-4.32 1763.36,-3.79 1774.72,-3.39 1785.98,-3.13 1797.08,-3 1807.98,-3.02 1818.65,-3.17 1829.06,-3.47 1839.17,-3.91 1848.94,-4.48 1858.36,-5.2 1867.39,-6.05 1876.02,-7.04 1884.22,-8.15 1891.97,-9.39 1899.26,-10.76 1906.07,-12.25 1912.4,-13.84 1918.25,-15.55 1923.59,-17.36 1928.44,-19.26 1932.79,-21.25 1936.65,-23.33 1940.01,-25.47 1942.88,-27.69 1945.28,-29.96 1947.21,-32.29 1948.67,-34.66 1949.69,-37.06 1950.26,-39.49 1950.41,-41.93 1950.15,-44.39 1949.48,-46.85 1948.43,-49.3 1947,-51.74 1945.21,-54.15 1943.08,-56.54 1940.6,-58.89 1937.8,-61.19 1934.69,-63.45 1931.26,-65.65 1927.55,-67.78 1923.55,-69.85 1919.27,-71.84 1914.71,-73.76 1909.89,-75.59 1904.81,-77.34 1899.48,-78.99 1893.9,-80.55 1888.06,-82.01 1881.99,-83.37 1875.68,-84.63 1869.13,-85.79 1862.35,-86.84 1855.34,-87.78 1848.11,-88.62 1840.65,-89.35 1832.99,-89.97 1825.11,-90.48 1817.03,-90.88 1808.77,-91.18 1800.31,-91.37 1791.69,-91.45 1782.91,-91.43 1773.98,-91.3 1764.92,-91.07 1755.74,-90.74 1746.48,-90.32 1737.14,-89.79 1727.74,-89.17 1718.33,-88.45 1708.91,-87.65 1699.52,-86.75 1690.18,-85.77 1680.93,-84.7 1671.79,-83.54 1662.81,-82.31 1654.01,-81 1645.43,-79.61 1637.1,-78.14 1629.05,-76.61 1621.33,-75.01 1613.97,-73.34 1607,-71.61 1600.45,-69.82 1594.37,-67.97 1588.77,-66.07 1583.7,-64.12 1579.18,-62.12 1575.23,-60.08 1571.89,-58.01 1569.17,-55.9 1567.09,-53.75 1565.67,-51.59 1564.93,-49.4 1564.88,-47.2 1565.51,-44.99 1566.85,-42.77 1568.88,-40.55 1571.61,-38.34 1575.03,-36.14 1579.13,-33.96 1583.9,-31.8 1589.33,-29.68 1595.38,-27.59 1602.04,-25.54 1609.29,-23.55 1617.09,-21.61 1625.42,-19.73 1634.23,-17.93 1643.5,-16.19 1653.19,-14.54 1663.24,-12.98 1673.63,-11.52 1684.31,-10.15 1695.23,-8.89 1706.35,-7.73"/>
<text text-anchor="middle" x="1770.75" y="-45.06" font-family="sans-serif" font-size="16.00">GestionContenidoContexto</text>
</g>
<!-- GestionContratosCatalogosDeOfertasContexto -->
<g id="node6" class="node">
<title>GestionContratosCatalogosDeOfertasContexto</title>
<polygon fill="none" stroke="black" stroke-width="2" points="2101.27,-78.36 2088.05,-76.28 2075.51,-74.12 2063.71,-71.91 2052.7,-69.64 2042.52,-67.33 2033.22,-64.99 2024.85,-62.62 2017.43,-60.23 2011,-57.84 2005.58,-55.44 2001.21,-53.04 1997.89,-50.66 1995.65,-48.3 1994.48,-45.97 1994.4,-43.67 1995.4,-41.41 1997.47,-39.2 2000.6,-37.03 2004.78,-34.92 2009.98,-32.87 2016.18,-30.89 2023.34,-28.97 2031.44,-27.12 2040.43,-25.34 2050.28,-23.64 2060.93,-22.02 2072.34,-20.48 2084.46,-19.02 2097.24,-17.65 2110.61,-16.36 2124.53,-15.15 2138.93,-14.03 2153.76,-12.99 2168.96,-12.05 2184.47,-11.19 2200.23,-10.41 2216.18,-9.73 2232.26,-9.13 2248.43,-8.62 2264.62,-8.19 2280.78,-7.86 2296.87,-7.61 2312.83,-7.45 2328.61,-7.38 2344.18,-7.39 2359.5,-7.5 2374.52,-7.69 2389.22,-7.98 2403.55,-8.35 2417.49,-8.81 2431.02,-9.36 2444.11,-10 2456.73,-10.73 2468.88,-11.56 2480.53,-12.47 2491.67,-13.47 2502.29,-14.57 2512.38,-15.75 2521.93,-17.03 2530.94,-18.39 2539.4,-19.84 2547.3,-21.37 2554.65,-22.99 2561.45,-24.7 2567.68,-26.48 2573.36,-28.34 2578.48,-30.28 2583.03,-32.28 2587.03,-34.35 2590.46,-36.49 2593.33,-38.68 2595.63,-40.93 2597.37,-43.22 2598.53,-45.55 2599.13,-47.92 2599.14,-50.31 2598.58,-52.73 2597.43,-55.16 2595.69,-57.59 2593.35,-60.02 2590.41,-62.45 2586.86,-64.85 2582.71,-67.22 2577.93,-69.56 2572.54,-71.85 2566.52,-74.09 2559.87,-76.27 2552.6,-78.37 2544.69,-80.4 2536.16,-82.33 2527.01,-84.18 2517.24,-85.91 2506.86,-87.54 2495.88,-89.05 2484.31,-90.44 2472.18,-91.69 2459.49,-92.82 2446.26,-93.8 2432.53,-94.63 2418.32,-95.32 2403.67,-95.86 2388.59,-96.24 2373.14,-96.47 2357.36,-96.54 2341.28,-96.46 2324.95,-96.22 2308.42,-95.82 2291.74,-95.27 2274.98,-94.58 2258.17,-93.73 2241.38,-92.75 2224.68,-91.62 2208.11,-90.37 2191.75,-88.98 2175.64,-87.47 2159.87,-85.85 2144.49,-84.12 2129.55,-82.29 2115.13,-80.37 2101.27,-78.36"/>
<text text-anchor="middle" x="2319.75" y="-45.06" font-family="sans-serif" font-size="16.00">GestionContratosCatalogosDeOfertasContexto</text>
</g>
<!-- GestionMarcasContexto -->
<g id="node7" class="node">
<title>GestionMarcasContexto</title>
<polygon fill="none" stroke="black" stroke-width="2" points="2913.68,-89.03 2903.77,-90.2 2893.74,-91.26 2883.63,-92.19 2873.47,-92.99 2863.32,-93.67 2853.2,-94.2 2843.16,-94.61 2833.22,-94.87 2823.44,-94.99 2813.83,-94.96 2804.43,-94.8 2795.28,-94.49 2786.39,-94.03 2777.8,-93.44 2769.53,-92.7 2761.59,-91.83 2754.02,-90.82 2746.81,-89.67 2740,-88.4 2733.59,-87.01 2727.59,-85.49 2722.01,-83.87 2716.86,-82.13 2712.13,-80.3 2707.83,-78.37 2703.96,-76.35 2700.52,-74.25 2697.5,-72.08 2694.9,-69.84 2692.71,-67.55 2690.93,-65.21 2689.54,-62.83 2688.54,-60.42 2687.92,-57.98 2687.67,-55.53 2687.78,-53.08 2688.24,-50.62 2689.03,-48.18 2690.16,-45.75 2691.6,-43.34 2693.36,-40.97 2695.41,-38.64 2697.76,-36.36 2700.39,-34.12 2703.3,-31.95 2706.48,-29.84 2709.93,-27.8 2713.64,-25.84 2717.6,-23.95 2721.81,-22.15 2726.26,-20.44 2730.97,-18.81 2735.91,-17.29 2741.09,-15.85 2746.5,-14.52 2752.15,-13.29 2758.02,-12.16 2764.12,-11.13 2770.45,-10.21 2776.99,-9.39 2783.75,-8.68 2790.71,-8.07 2797.88,-7.57 2805.24,-7.17 2812.78,-6.88 2820.5,-6.69 2828.39,-6.61 2836.43,-6.62 2844.6,-6.74 2852.9,-6.95 2861.3,-7.26 2869.78,-7.67 2878.33,-8.17 2886.92,-8.77 2895.53,-9.46 2904.14,-10.23 2912.71,-11.1 2921.22,-12.05 2929.65,-13.09 2937.95,-14.2 2946.11,-15.4 2954.09,-16.68 2961.85,-18.04 2969.37,-19.46 2976.62,-20.96 2983.56,-22.54 2990.15,-24.17 2996.38,-25.88 3002.21,-27.64 3007.6,-29.47 3012.54,-31.35 3017,-33.28 3020.94,-35.26 3024.35,-37.29 3027.21,-39.36 3029.5,-41.47 3031.2,-43.61 3032.3,-45.78 3032.79,-47.97 3032.66,-50.18 3031.9,-52.41 3030.51,-54.64 3028.5,-56.88 3025.87,-59.11 3022.62,-61.33 3018.77,-63.54 3014.33,-65.72 3009.31,-67.88 3003.74,-70 2997.63,-72.08 2991.02,-74.11 2983.92,-76.08 2976.37,-77.99 2968.4,-79.83 2960.04,-81.59 2951.32,-83.27 2942.29,-84.86 2932.98,-86.35 2923.43,-87.75 2913.68,-89.03"/>
<text text-anchor="middle" x="2847.75" y="-45.06" font-family="sans-serif" font-size="16.00">GestionMarcasContexto</text>
</g>
<!-- GestionSociosContexto -->
<g id="node8" class="node">
<title>GestionSociosContexto</title>
<polygon fill="none" stroke="black" stroke-width="2" points="3061.48,-34.76 3064.76,-32.01 3068.44,-29.32 3072.51,-26.7 3076.97,-24.16 3081.79,-21.7 3086.96,-19.34 3092.47,-17.09 3098.29,-14.96 3104.4,-12.95 3110.8,-11.07 3117.46,-9.33 3124.36,-7.74 3131.48,-6.29 3138.8,-5 3146.31,-3.86 3153.97,-2.89 3161.78,-2.08 3169.7,-1.43 3177.73,-0.94 3185.84,-0.62 3194.01,-0.46 3202.21,-0.46 3210.44,-0.61 3218.67,-0.92 3226.87,-1.37 3235.04,-1.97 3243.15,-2.71 3251.18,-3.58 3259.12,-4.57 3266.94,-5.69 3274.63,-6.92 3282.16,-8.25 3289.54,-9.68 3296.72,-11.2 3303.7,-12.8 3310.47,-14.48 3317,-16.23 3323.28,-18.03 3329.3,-19.89 3335.04,-21.8 3340.48,-23.75 3345.61,-25.72 3350.42,-27.73 3354.9,-29.75 3359.03,-31.79 3362.81,-33.84 3366.21,-35.9 3369.23,-37.96 3371.87,-40.01 3374.1,-42.05 3375.93,-44.09 3377.35,-46.11 3378.35,-48.11 3378.92,-50.1 3379.06,-52.07 3378.77,-54.01 3378.04,-55.93 3376.87,-57.83 3375.27,-59.7 3373.23,-61.54 3370.76,-63.35 3367.86,-65.13 3364.53,-66.88 3360.78,-68.6 3356.62,-70.29 3352.05,-71.94 3347.1,-73.55 3341.76,-75.12 3336.05,-76.66 3329.98,-78.15 3323.58,-79.59 3316.85,-80.99 3309.81,-82.34 3302.49,-83.63 3294.9,-84.86 3287.06,-86.03 3279.01,-87.14 3270.75,-88.18 3262.31,-89.14 3253.72,-90.02 3245.01,-90.82 3236.19,-91.53 3227.31,-92.15 3218.37,-92.67 3209.42,-93.08 3200.47,-93.39 3191.56,-93.59 3182.72,-93.67 3173.97,-93.62 3165.33,-93.46 3156.85,-93.16 3148.53,-92.74 3140.41,-92.18 3132.52,-91.48 3124.88,-90.65 3117.5,-89.68 3110.42,-88.57 3103.66,-87.32 3097.24,-85.94 3091.17,-84.42 3085.47,-82.77 3080.17,-80.99 3075.27,-79.08 3070.79,-77.06 3066.75,-74.92 3063.15,-72.67 3059.99,-70.32 3057.3,-67.88 3055.08,-65.35 3053.32,-62.74 3052.04,-60.07 3051.23,-57.34 3050.89,-54.56 3051.03,-51.75 3051.64,-48.91 3052.71,-46.06 3054.23,-43.21 3056.21,-40.37 3058.63,-37.55 3061.48,-34.76"/>
<text text-anchor="middle" x="3216.75" y="-45.06" font-family="sans-serif" font-size="16.00">GestionSociosContexto</text>
</g>
<!-- MarketingAfiliadosContexto -->
<g id="node9" class="node">
<title>MarketingAfiliadosContexto</title>
<polygon fill="none" stroke="black" stroke-width="2" points="3447.4,-73.04 3440.48,-70.67 3434.04,-68.24 3428.1,-65.77 3422.69,-63.26 3417.84,-60.74 3413.57,-58.19 3409.89,-55.65 3406.83,-53.11 3404.4,-50.58 3402.6,-48.07 3401.46,-45.6 3400.98,-43.16 3401.15,-40.77 3401.99,-38.42 3403.48,-36.14 3405.63,-33.92 3408.42,-31.77 3411.85,-29.7 3415.9,-27.7 3420.56,-25.79 3425.79,-23.96 3431.59,-22.23 3437.94,-20.58 3444.79,-19.03 3452.13,-17.57 3459.92,-16.21 3468.14,-14.95 3476.75,-13.78 3485.72,-12.72 3495,-11.75 3504.58,-10.87 3514.39,-10.1 3524.42,-9.42 3534.63,-8.83 3544.96,-8.34 3555.4,-7.94 3565.9,-7.63 3576.43,-7.41 3586.95,-7.28 3597.42,-7.23 3607.82,-7.28 3618.11,-7.4 3628.26,-7.62 3638.24,-7.91 3648.03,-8.29 3657.6,-8.75 3666.93,-9.29 3675.98,-9.91 3684.75,-10.62 3693.22,-11.4 3701.36,-12.26 3709.16,-13.2 3716.62,-14.22 3723.71,-15.32 3730.43,-16.5 3736.76,-17.75 3742.71,-19.09 3748.26,-20.5 3753.42,-21.98 3758.17,-23.54 3762.52,-25.18 3766.46,-26.89 3769.99,-28.67 3773.12,-30.51 3775.85,-32.43 3778.17,-34.41 3780.09,-36.44 3781.6,-38.54 3782.72,-40.69 3783.45,-42.89 3783.77,-45.13 3783.71,-47.41 3783.26,-49.72 3782.43,-52.07 3781.21,-54.43 3779.61,-56.8 3777.62,-59.19 3775.26,-61.57 3772.53,-63.95 3769.42,-66.3 3765.94,-68.64 3762.09,-70.94 3757.88,-73.2 3753.3,-75.4 3748.36,-77.55 3743.07,-79.63 3737.42,-81.64 3731.43,-83.56 3725.09,-85.38 3718.42,-87.11 3711.42,-88.72 3704.1,-90.22 3696.47,-91.59 3688.54,-92.83 3680.33,-93.94 3671.85,-94.9 3663.11,-95.72 3654.13,-96.39 3644.92,-96.89 3635.52,-97.25 3625.93,-97.44 3616.19,-97.47 3606.31,-97.33 3596.33,-97.04 3586.26,-96.58 3576.15,-95.96 3566.01,-95.19 3555.89,-94.26 3545.8,-93.17 3535.79,-91.95 3525.89,-90.58 3516.13,-89.07 3506.55,-87.44 3497.19,-85.69 3488.07,-83.82 3479.23,-81.84 3470.71,-79.77 3462.55,-77.6 3454.76,-75.36 3447.4,-73.04"/>
<text text-anchor="middle" x="3604.75" y="-45.06" font-family="sans-serif" font-size="16.00">MarketingAfiliadosContexto</text>
</g>
<!-- MarketingInfluencersContexto -->
<g id="node10" class="node">
<title>MarketingInfluencersContexto</title>
<polygon fill="none" stroke="black" stroke-width="2" points="4234.29,-43.21 4236.18,-46.06 4237.51,-48.91 4238.26,-51.75 4238.43,-54.56 4238.01,-57.34 4237.01,-60.07 4235.42,-62.74 4233.24,-65.35 4230.48,-67.88 4227.14,-70.32 4223.23,-72.67 4218.77,-74.92 4213.75,-77.06 4208.19,-79.08 4202.12,-80.99 4195.54,-82.77 4188.48,-84.42 4180.95,-85.94 4172.99,-87.32 4164.6,-88.57 4155.82,-89.68 4146.68,-90.65 4137.2,-91.48 4127.41,-92.18 4117.34,-92.74 4107.03,-93.16 4096.51,-93.46 4085.8,-93.62 4074.94,-93.67 4063.98,-93.59 4052.93,-93.39 4041.84,-93.08 4030.73,-92.67 4019.65,-92.15 4008.63,-91.53 3997.7,-90.82 3986.89,-90.02 3976.24,-89.14 3965.78,-88.18 3955.54,-87.14 3945.54,-86.03 3935.83,-84.86 3926.41,-83.63 3917.33,-82.34 3908.61,-80.99 3900.26,-79.59 3892.32,-78.15 3884.8,-76.66 3877.72,-75.12 3871.1,-73.55 3864.95,-71.94 3859.29,-70.29 3854.13,-68.6 3849.48,-66.88 3845.35,-65.13 3841.75,-63.35 3838.68,-61.54 3836.16,-59.7 3834.17,-57.83 3832.72,-55.93 3831.82,-54.01 3831.46,-52.07 3831.63,-50.1 3832.34,-48.11 3833.57,-46.11 3835.33,-44.09 3837.6,-42.05 3840.37,-40.01 3843.64,-37.96 3847.39,-35.9 3851.61,-33.84 3856.29,-31.79 3861.42,-29.75 3866.97,-27.73 3872.94,-25.72 3879.3,-23.75 3886.05,-21.8 3893.17,-19.89 3900.63,-18.03 3908.42,-16.23 3916.52,-14.48 3924.91,-12.8 3933.57,-11.2 3942.48,-9.68 3951.62,-8.25 3960.97,-6.92 3970.5,-5.69 3980.2,-4.57 3990.04,-3.58 4000,-2.71 4010.06,-1.97 4020.19,-1.37 4030.37,-0.92 4040.57,-0.61 4050.77,-0.46 4060.95,-0.46 4071.08,-0.62 4081.13,-0.94 4091.09,-1.43 4100.92,-2.08 4110.6,-2.89 4120.1,-3.86 4129.41,-5 4138.49,-6.29 4147.32,-7.74 4155.88,-9.33 4164.13,-11.07 4172.07,-12.95 4179.65,-14.96 4186.87,-17.09 4193.7,-19.34 4200.11,-21.7 4206.09,-24.16 4211.62,-26.7 4216.67,-29.32 4221.24,-32.01 4225.3,-34.76 4228.83,-37.55 4231.83,-40.37 4234.29,-43.21"/>
<text text-anchor="middle" x="4032.75" y="-45.06" font-family="sans-serif" font-size="16.00">MarketingInfluencersContexto</text>
</g>
<!-- PagosContexto -->
<g id="node11" class="node">
<title>PagosContexto</title>
<polygon fill="none" stroke="black" stroke-width="2" points="4488.57,-33.62 4491.34,-36.29 4493.79,-38.98 4495.9,-41.69 4497.68,-44.41 4499.1,-47.11 4500.17,-49.8 4500.87,-52.46 4501.21,-55.09 4501.17,-57.67 4500.75,-60.2 4499.96,-62.66 4498.79,-65.05 4497.25,-67.37 4495.34,-69.59 4493.07,-71.73 4490.44,-73.77 4487.46,-75.71 4484.14,-77.55 4480.49,-79.27 4476.52,-80.89 4472.25,-82.38 4467.7,-83.77 4462.87,-85.03 4457.79,-86.18 4452.47,-87.21 4446.93,-88.12 4441.2,-88.92 4435.28,-89.6 4429.21,-90.16 4423,-90.62 4416.68,-90.97 4410.27,-91.21 4403.78,-91.34 4397.25,-91.38 4390.69,-91.32 4384.12,-91.16 4377.58,-90.91 4371.07,-90.57 4364.62,-90.15 4358.25,-89.64 4351.97,-89.06 4345.81,-88.39 4339.79,-87.66 4333.92,-86.85 4328.21,-85.97 4322.69,-85.02 4317.37,-84.01 4312.25,-82.93 4307.36,-81.79 4302.7,-80.59 4298.28,-79.33 4294.12,-78 4290.21,-76.62 4286.58,-75.19 4283.21,-73.69 4280.13,-72.14 4277.32,-70.54 4274.8,-68.88 4272.57,-67.17 4270.62,-65.4 4268.97,-63.59 4267.61,-61.73 4266.53,-59.81 4265.74,-57.86 4265.24,-55.86 4265.02,-53.82 4265.07,-51.74 4265.41,-49.62 4266.02,-47.48 4266.9,-45.31 4268.04,-43.12 4269.45,-40.91 4271.1,-38.68 4273.01,-36.45 4275.17,-34.23 4277.56,-32 4280.19,-29.79 4283.05,-27.6 4286.13,-25.44 4289.42,-23.32 4292.93,-21.23 4296.64,-19.2 4300.55,-17.23 4304.64,-15.33 4308.92,-13.5 4313.38,-11.76 4318,-10.11 4322.78,-8.56 4327.72,-7.12 4332.79,-5.79 4338,-4.59 4343.33,-3.52 4348.77,-2.59 4354.32,-1.8 4359.96,-1.15 4365.68,-0.66 4371.46,-0.33 4377.3,-0.15 4383.18,-0.14 4389.09,-0.29 4395.02,-0.61 4400.94,-1.09 4406.84,-1.73 4412.71,-2.54 4418.54,-3.51 4424.29,-4.64 4429.97,-5.93 4435.55,-7.36 4441.01,-8.94 4446.34,-10.65 4451.52,-12.5 4456.53,-14.47 4461.35,-16.55 4465.98,-18.75 4470.38,-21.04 4474.55,-23.42 4478.47,-25.88 4482.12,-28.4 4485.49,-30.99 4488.57,-33.62"/>
<text text-anchor="middle" x="4378.75" y="-45.06" font-family="sans-serif" font-size="16.00">PagosContexto</text>
</g>
<!-- ProgramasLealtadContexto -->
<g id="node12" class="node">
<title>ProgramasLealtadContexto</title>
<polygon fill="none" stroke="black" stroke-width="2" points="4825.92,-85.57 4815.88,-87.19 4805.62,-88.69 4795.18,-90.08 4784.6,-91.34 4773.92,-92.47 4763.18,-93.47 4752.43,-94.32 4741.69,-95.04 4731.01,-95.61 4720.43,-96.02 4709.96,-96.29 4699.66,-96.4 4689.55,-96.36 4679.66,-96.17 4670.01,-95.82 4660.64,-95.32 4651.56,-94.67 4642.79,-93.87 4634.36,-92.92 4626.28,-91.84 4618.56,-90.61 4611.22,-89.26 4604.27,-87.78 4597.71,-86.18 4591.56,-84.47 4585.82,-82.65 4580.48,-80.73 4575.56,-78.72 4571.05,-76.63 4566.95,-74.47 4563.26,-72.23 4559.98,-69.94 4557.1,-67.6 4554.62,-65.22 4552.54,-62.81 4550.85,-60.37 4549.54,-57.92 4548.62,-55.47 4548.06,-53.01 4547.88,-50.57 4548.06,-48.14 4548.6,-45.74 4549.5,-43.37 4550.75,-41.04 4552.35,-38.76 4554.3,-36.53 4556.58,-34.35 4559.21,-32.24 4562.18,-30.19 4565.48,-28.22 4569.12,-26.32 4573.1,-24.5 4577.41,-22.76 4582.05,-21.1 4587.03,-19.54 4592.33,-18.06 4597.96,-16.67 4603.92,-15.37 4610.2,-14.17 4616.79,-13.06 4623.7,-12.05 4630.92,-11.13 4638.43,-10.3 4646.24,-9.57 4654.32,-8.94 4662.68,-8.4 4671.29,-7.95 4680.15,-7.6 4689.22,-7.33 4698.51,-7.17 4707.98,-7.09 4717.62,-7.1 4727.4,-7.21 4737.29,-7.4 4747.27,-7.69 4757.31,-8.06 4767.38,-8.52 4777.45,-9.07 4787.48,-9.71 4797.44,-10.44 4807.3,-11.25 4817.02,-12.15 4826.56,-13.13 4835.89,-14.2 4844.97,-15.35 4853.76,-16.59 4862.23,-17.9 4870.34,-19.3 4878.05,-20.78 4885.33,-22.34 4892.15,-23.97 4898.48,-25.68 4904.28,-27.46 4909.53,-29.31 4914.2,-31.22 4918.27,-33.2 4921.72,-35.24 4924.53,-37.34 4926.68,-39.49 4928.17,-41.68 4928.98,-43.92 4929.1,-46.19 4928.54,-48.49 4927.29,-50.82 4925.35,-53.17 4922.74,-55.53 4919.47,-57.9 4915.54,-60.26 4910.97,-62.61 4905.78,-64.95 4900,-67.26 4893.64,-69.54 4886.74,-71.77 4879.33,-73.96 4871.43,-76.08 4863.08,-78.15 4854.32,-80.13 4845.18,-82.04 4835.7,-83.85 4825.92,-85.57"/>
<text text-anchor="middle" x="4723.75" y="-45.06" font-family="sans-serif" font-size="16.00">ProgramasLealtadContexto</text>
</g>
</g>
</svg>
