<svg width="2000px" height="631px"
 viewBox="0.00 0.00 3088.21 973.53" xmlns="http://www.w3.org/2000/svg" xmlns:xlink="http://www.w3.org/1999/xlink">
<g id="graph0" class="graph" transform="scale(1.0 1.0) rotate(0) translate(4 969.53)">
<title>ContextMapGraph</title>
<polygon fill="white" stroke="transparent" points="-4,4 -4,-969.53 3084.21,-969.53 3084.21,4 -4,4"/>
<!-- AlianzasB2BContexto -->
<g id="node1" class="node">
<title>AlianzasB2BContexto</title>
<polygon fill="none" stroke="black" stroke-width="2" points="2721.67,-301.98 2728.52,-304.07 2735,-306.22 2741.11,-308.44 2746.81,-310.7 2752.08,-313.01 2756.89,-315.35 2761.22,-317.72 2765.06,-320.11 2768.39,-322.51 2771.19,-324.91 2773.46,-327.3 2775.17,-329.68 2776.33,-332.04 2776.94,-334.37 2776.98,-336.67 2776.47,-338.93 2775.39,-341.15 2773.77,-343.31 2771.61,-345.42 2768.92,-347.47 2765.71,-349.46 2762,-351.38 2757.81,-353.23 2753.16,-355 2748.06,-356.7 2742.55,-358.32 2736.64,-359.86 2730.37,-361.32 2723.76,-362.7 2716.84,-363.99 2709.64,-365.19 2702.18,-366.32 2694.51,-367.35 2686.64,-368.3 2678.62,-369.16 2670.46,-369.93 2662.21,-370.62 2653.88,-371.22 2645.52,-371.73 2637.14,-372.15 2628.78,-372.49 2620.45,-372.73 2612.19,-372.89 2604.02,-372.97 2595.96,-372.95 2588.04,-372.85 2580.26,-372.65 2572.66,-372.37 2565.24,-372 2558.03,-371.54 2551.03,-370.98 2544.25,-370.34 2537.72,-369.61 2531.43,-368.79 2525.4,-367.87 2519.64,-366.87 2514.14,-365.78 2508.92,-364.59 2503.98,-363.32 2499.32,-361.96 2494.94,-360.51 2490.85,-358.97 2487.04,-357.35 2483.53,-355.65 2480.3,-353.86 2477.36,-352 2474.71,-350.07 2472.36,-348.06 2470.29,-345.99 2468.51,-343.86 2467.03,-341.66 2465.84,-339.42 2464.94,-337.13 2464.33,-334.79 2464.03,-332.43 2464.02,-330.03 2464.31,-327.62 2464.91,-325.19 2465.81,-322.75 2467.02,-320.32 2468.54,-317.9 2470.37,-315.5 2472.53,-313.12 2475,-310.78 2477.79,-308.49 2480.9,-306.25 2484.34,-304.08 2488.11,-301.97 2492.2,-299.95 2496.61,-298.01 2501.35,-296.17 2506.41,-294.43 2511.78,-292.8 2517.46,-291.29 2523.44,-289.91 2529.73,-288.65 2536.29,-287.53 2543.14,-286.55 2550.24,-285.71 2557.59,-285.02 2565.18,-284.49 2572.98,-284.11 2580.98,-283.88 2589.15,-283.81 2597.47,-283.89 2605.92,-284.13 2614.47,-284.52 2623.1,-285.07 2631.78,-285.77 2640.48,-286.61 2649.16,-287.6 2657.81,-288.72 2666.38,-289.98 2674.85,-291.36 2683.18,-292.87 2691.35,-294.49 2699.31,-296.22 2707.04,-298.05 2714.5,-299.98 2721.67,-301.98"/>
<text text-anchor="middle" x="2608.61" y="-327.68" font-family="sans-serif" font-size="16.00">AlianzasB2BContexto</text>
</g>
<!-- OrquestadorPagosContexto -->
<g id="node2" class="node">
<title>OrquestadorPagosContexto</title>
<polygon fill="none" stroke="black" stroke-width="2" points="1196.2,-228.48 1184.35,-229.23 1172.45,-229.87 1160.54,-230.38 1148.67,-230.75 1136.89,-231 1125.24,-231.12 1113.76,-231.1 1102.5,-230.95 1091.5,-230.66 1080.8,-230.24 1070.43,-229.69 1060.42,-229 1050.81,-228.18 1041.63,-227.23 1032.89,-226.15 1024.62,-224.95 1016.85,-223.63 1009.58,-222.19 1002.84,-220.64 996.62,-218.99 990.95,-217.23 985.81,-215.38 981.23,-213.44 977.18,-211.41 973.68,-209.31 970.72,-207.14 968.29,-204.91 966.38,-202.62 964.98,-200.29 964.07,-197.92 963.66,-195.51 963.71,-193.08 964.21,-190.64 965.16,-188.19 966.52,-185.74 968.3,-183.3 970.46,-180.87 972.99,-178.47 975.87,-176.1 979.1,-173.76 982.65,-171.47 986.51,-169.24 990.66,-167.06 995.1,-164.94 999.81,-162.9 1004.77,-160.93 1009.99,-159.04 1015.44,-157.24 1021.13,-155.53 1027.03,-153.91 1033.16,-152.39 1039.49,-150.97 1046.03,-149.65 1052.77,-148.44 1059.71,-147.33 1066.84,-146.34 1074.15,-145.46 1081.65,-144.69 1089.33,-144.03 1097.17,-143.49 1105.19,-143.06 1113.37,-142.75 1121.7,-142.55 1130.18,-142.46 1138.8,-142.48 1147.54,-142.61 1156.39,-142.85 1165.35,-143.2 1174.39,-143.65 1183.51,-144.21 1192.67,-144.87 1201.86,-145.63 1211.06,-146.49 1220.25,-147.44 1229.39,-148.48 1238.47,-149.61 1247.46,-150.83 1256.32,-152.13 1265.02,-153.51 1273.53,-154.97 1281.83,-156.5 1289.87,-158.1 1297.63,-159.77 1305.06,-161.51 1312.13,-163.3 1318.82,-165.15 1325.08,-167.06 1330.88,-169.01 1336.2,-171.01 1341,-173.05 1345.24,-175.13 1348.91,-177.24 1351.98,-179.38 1354.43,-181.54 1356.23,-183.72 1357.37,-185.91 1357.83,-188.12 1357.6,-190.32 1356.67,-192.53 1355.03,-194.72 1352.69,-196.91 1349.65,-199.08 1345.9,-201.22 1341.47,-203.33 1336.35,-205.41 1330.57,-207.45 1324.15,-209.44 1317.1,-211.38 1309.46,-213.26 1301.25,-215.08 1292.51,-216.82 1283.26,-218.49 1273.55,-220.08 1263.42,-221.58 1252.91,-222.99 1242.06,-224.3 1230.92,-225.51 1219.53,-226.61 1207.94,-227.6 1196.2,-228.48"/>
<text text-anchor="middle" x="1149.61" y="-181.94" font-family="sans-serif" font-size="16.00">OrquestadorPagosContexto</text>
</g>
<!-- AlianzasB2BContexto&#45;&gt;OrquestadorPagosContexto -->
<g id="edge1" class="edge">
<title>AlianzasB2BContexto&#45;&gt;OrquestadorPagosContexto</title>
<path fill="none" stroke="black" stroke-width="2" d="M2508.56,-293.64C2461.08,-277.85 2403.13,-261 2349.61,-252.03 2245.65,-234.61 1980.88,-239.46 1875.61,-234.03 1696.33,-224.79 1492.35,-211.23 1346.35,-201"/>
<text text-anchor="middle" x="2482.11" y="-255.43" font-family="sans-serif" font-size="12.00"> &#160;&#160;&#160;&#160;&#160;&#160;&#160;&#160;&#160;&#160;&#160;&#160;&#160;&#160;&#160;&#160;&#160;&#160;&#160;&#160;&#160;&#160;&#160;&#160;&#160;&#160;&#160;&#160;&#160;&#160;&#160;&#160;&#160;&#160;&#160;&#160;&#160;&#160;&#160;</text>
<polygon fill="white" stroke="transparent" points="1323.35,-191 1323.35,-210 1339.35,-210 1339.35,-191 1323.35,-191"/>
<polyline fill="none" stroke="black" points="1339.35,-191 1339.35,-210 "/>
<text text-anchor="start" x="1326.35" y="-197.4" font-family="sans-serif" font-size="12.00">D</text>
<polygon fill="white" stroke="transparent" points="1339.35,-191 1339.35,-210 1369.35,-210 1369.35,-191 1339.35,-191"/>
<polygon fill="none" stroke="black" points="1339.35,-191 1339.35,-210 1369.35,-210 1369.35,-191 1339.35,-191"/>
<text text-anchor="start" x="1342.35" y="-197.4" font-family="sans-serif" font-size="12.00">ACL</text>
<polygon fill="white" stroke="transparent" points="2473.56,-283.64 2473.56,-302.64 2489.56,-302.64 2489.56,-283.64 2473.56,-283.64"/>
<polyline fill="none" stroke="black" points="2489.56,-283.64 2489.56,-302.64 "/>
<text text-anchor="start" x="2476.56" y="-290.04" font-family="sans-serif" font-size="12.00">U</text>
<polygon fill="white" stroke="transparent" points="2489.56,-283.64 2489.56,-302.64 2544.56,-302.64 2544.56,-283.64 2489.56,-283.64"/>
<polygon fill="none" stroke="black" points="2489.56,-283.64 2489.56,-302.64 2544.56,-302.64 2544.56,-283.64 2489.56,-283.64"/>
<text text-anchor="start" x="2492.56" y="-290.04" font-family="sans-serif" font-size="12.00">OHS, PL</text>
</g>
<!-- AnaliticaContexto -->
<g id="node3" class="node">
<title>AnaliticaContexto</title>
<polygon fill="none" stroke="black" stroke-width="2" points="2143.31,-200.44 2140.52,-203.15 2137.41,-205.8 2133.98,-208.38 2130.25,-210.88 2126.22,-213.29 2121.92,-215.61 2117.36,-217.81 2112.54,-219.9 2107.49,-221.87 2102.23,-223.7 2096.76,-225.39 2091.1,-226.94 2085.27,-228.34 2079.29,-229.59 2073.16,-230.68 2066.92,-231.61 2060.57,-232.38 2054.13,-232.98 2047.62,-233.43 2041.05,-233.71 2034.45,-233.83 2027.82,-233.8 2021.18,-233.6 2014.55,-233.26 2007.94,-232.77 2001.37,-232.14 1994.86,-231.37 1988.42,-230.47 1982.06,-229.45 1975.8,-228.31 1969.65,-227.06 1963.63,-225.7 1957.75,-224.25 1952.02,-222.71 1946.47,-221.08 1941.09,-219.39 1935.9,-217.62 1930.92,-215.8 1926.16,-213.93 1921.62,-212.01 1917.33,-210.06 1913.29,-208.07 1909.5,-206.06 1905.99,-204.04 1902.76,-201.99 1899.82,-199.94 1897.18,-197.89 1894.84,-195.84 1892.82,-193.79 1891.12,-191.75 1889.75,-189.73 1888.71,-187.71 1888.01,-185.72 1887.65,-183.75 1887.64,-181.8 1887.98,-179.87 1888.67,-177.97 1889.71,-176.1 1891.1,-174.25 1892.85,-172.43 1894.94,-170.65 1897.38,-168.9 1900.16,-167.18 1903.28,-165.49 1906.73,-163.84 1910.5,-162.22 1914.59,-160.65 1918.99,-159.11 1923.68,-157.62 1928.66,-156.17 1933.91,-154.76 1939.42,-153.41 1945.17,-152.11 1951.16,-150.86 1957.35,-149.67 1963.75,-148.55 1970.31,-147.49 1977.04,-146.5 1983.91,-145.59 1990.89,-144.75 1997.98,-144 2005.13,-143.33 2012.35,-142.76 2019.59,-142.29 2026.85,-141.92 2034.09,-141.66 2041.3,-141.51 2048.45,-141.47 2055.52,-141.55 2062.48,-141.76 2069.33,-142.09 2076.02,-142.55 2082.55,-143.14 2088.89,-143.87 2095.02,-144.73 2100.93,-145.73 2106.59,-146.86 2111.99,-148.13 2117.11,-149.53 2121.93,-151.06 2126.44,-152.73 2130.64,-154.52 2134.49,-156.43 2138.01,-158.46 2141.16,-160.6 2143.96,-162.84 2146.38,-165.19 2148.42,-167.62 2150.09,-170.14 2151.37,-172.73 2152.27,-175.39 2152.78,-178.1 2152.91,-180.85 2152.65,-183.64 2152.01,-186.45 2151,-189.27 2149.61,-192.09 2147.87,-194.9 2145.76,-197.69 2143.31,-200.44"/>
<text text-anchor="middle" x="2018.61" y="-181.94" font-family="sans-serif" font-size="16.00">AnaliticaContexto</text>
</g>
<!-- AlianzasB2BContexto&#45;&gt;AnaliticaContexto -->
<g id="edge2" class="edge">
<title>AlianzasB2BContexto&#45;&gt;AnaliticaContexto</title>
<path fill="none" stroke="black" stroke-width="2" d="M2595.62,-283.47C2590.1,-271.46 2582.37,-259.77 2571.61,-252.03 2506.53,-205.2 2293.62,-191.64 2151.77,-187.9"/>
<text text-anchor="middle" x="2658.11" y="-255.43" font-family="sans-serif" font-size="12.00"> &#160;&#160;&#160;&#160;&#160;&#160;&#160;&#160;&#160;&#160;&#160;&#160;&#160;&#160;&#160;&#160;&#160;&#160;&#160;&#160;&#160;&#160;&#160;&#160;&#160;&#160;&#160;&#160;&#160;&#160;&#160;&#160;&#160;&#160;&#160;&#160;&#160;&#160;&#160;</text>
<polygon fill="white" stroke="transparent" points="2144.77,-178.9 2144.77,-195.9 2158.77,-195.9 2158.77,-178.9 2144.77,-178.9"/>
<text text-anchor="start" x="2146.77" y="-184.3" font-family="sans-serif" font-size="12.00">D</text>
<polygon fill="white" stroke="transparent" points="2588.62,-274.47 2588.62,-291.47 2602.62,-291.47 2602.62,-274.47 2588.62,-274.47"/>
<text text-anchor="start" x="2590.62" y="-279.87" font-family="sans-serif" font-size="12.00">U</text>
</g>
<!-- DashboardContexto -->
<g id="node4" class="node">
<title>DashboardContexto</title>
<polygon fill="none" stroke="black" stroke-width="2" points="2057.64,-1.7 2066.78,-2.44 2075.76,-3.29 2084.54,-4.25 2093.08,-5.31 2101.35,-6.48 2109.32,-7.75 2116.95,-9.11 2124.21,-10.57 2131.08,-12.11 2137.53,-13.73 2143.54,-15.43 2149.08,-17.21 2154.15,-19.05 2158.72,-20.95 2162.78,-22.91 2166.33,-24.92 2169.35,-26.98 2171.84,-29.08 2173.8,-31.21 2175.23,-33.38 2176.14,-35.57 2176.52,-37.77 2176.4,-40 2175.78,-42.22 2174.66,-44.46 2173.08,-46.69 2171.04,-48.91 2168.57,-51.11 2165.67,-53.3 2162.38,-55.46 2158.72,-57.6 2154.7,-59.69 2150.35,-61.75 2145.7,-63.77 2140.77,-65.73 2135.58,-67.64 2130.16,-69.49 2124.53,-71.27 2118.72,-72.99 2112.74,-74.63 2106.61,-76.2 2100.37,-77.68 2094.02,-79.08 2087.59,-80.39 2081.1,-81.61 2074.56,-82.73 2067.98,-83.76 2061.39,-84.68 2054.78,-85.5 2048.19,-86.2 2041.61,-86.8 2035.05,-87.29 2028.52,-87.66 2022.04,-87.92 2015.6,-88.06 2009.22,-88.08 2002.89,-87.99 1996.63,-87.78 1990.43,-87.44 1984.3,-86.99 1978.25,-86.42 1972.28,-85.73 1966.39,-84.93 1960.58,-84.01 1954.87,-82.98 1949.25,-81.84 1943.74,-80.59 1938.34,-79.23 1933.05,-77.78 1927.88,-76.22 1922.85,-74.57 1917.96,-72.84 1913.23,-71.01 1908.65,-69.11 1904.26,-67.13 1900.06,-65.09 1896.06,-62.98 1892.28,-60.81 1888.74,-58.59 1885.45,-56.32 1882.43,-54.02 1879.7,-51.69 1877.27,-49.33 1875.15,-46.95 1873.38,-44.56 1871.95,-42.17 1870.9,-39.79 1870.23,-37.41 1869.97,-35.05 1870.12,-32.72 1870.69,-30.42 1871.7,-28.16 1873.16,-25.95 1875.07,-23.79 1877.45,-21.69 1880.28,-19.65 1883.59,-17.69 1887.36,-15.81 1891.6,-14 1896.29,-12.29 1901.44,-10.67 1907.03,-9.15 1913.04,-7.73 1919.47,-6.42 1926.3,-5.22 1933.49,-4.14 1941.05,-3.16 1948.93,-2.31 1957.11,-1.58 1965.57,-0.97 1974.26,-0.49 1983.17,-0.13 1992.25,0.11 2001.47,0.22 2010.8,0.21 2020.19,0.07 2029.61,-0.19 2039.01,-0.58 2048.37,-1.08 2057.64,-1.7"/>
<text text-anchor="middle" x="2018.61" y="-40.42" font-family="sans-serif" font-size="16.00">DashboardContexto</text>
</g>
<!-- AnaliticaContexto&#45;&gt;DashboardContexto -->
<g id="edge3" class="edge">
<title>AnaliticaContexto&#45;&gt;DashboardContexto</title>
<path fill="none" stroke="black" stroke-width="2" d="M2018.61,-142.12C2018.61,-124.97 2018.61,-105.23 2018.61,-88.06"/>
<text text-anchor="middle" x="2094.11" y="-109.84" font-family="sans-serif" font-size="12.00"> &#160;&#160;&#160;&#160;&#160;&#160;&#160;&#160;&#160;&#160;&#160;&#160;&#160;&#160;&#160;&#160;&#160;&#160;&#160;&#160;&#160;&#160;&#160;&#160;&#160;&#160;&#160;&#160;&#160;&#160;&#160;&#160;&#160;&#160;&#160;&#160;&#160;&#160;&#160;</text>
<polygon fill="white" stroke="transparent" points="1995.61,-78.06 1995.61,-97.06 2011.61,-97.06 2011.61,-78.06 1995.61,-78.06"/>
<polyline fill="none" stroke="black" points="2011.61,-78.06 2011.61,-97.06 "/>
<text text-anchor="start" x="1998.61" y="-84.46" font-family="sans-serif" font-size="12.00">D</text>
<polygon fill="white" stroke="transparent" points="2011.61,-78.06 2011.61,-97.06 2041.61,-97.06 2041.61,-78.06 2011.61,-78.06"/>
<polygon fill="none" stroke="black" points="2011.61,-78.06 2011.61,-97.06 2041.61,-97.06 2041.61,-78.06 2011.61,-78.06"/>
<text text-anchor="start" x="2014.61" y="-84.46" font-family="sans-serif" font-size="12.00">ACL</text>
<polygon fill="white" stroke="transparent" points="1983.61,-132.12 1983.61,-151.12 1999.61,-151.12 1999.61,-132.12 1983.61,-132.12"/>
<polyline fill="none" stroke="black" points="1999.61,-132.12 1999.61,-151.12 "/>
<text text-anchor="start" x="1986.61" y="-138.52" font-family="sans-serif" font-size="12.00">U</text>
<polygon fill="white" stroke="transparent" points="1999.61,-132.12 1999.61,-151.12 2054.61,-151.12 2054.61,-132.12 1999.61,-132.12"/>
<polygon fill="none" stroke="black" points="1999.61,-132.12 1999.61,-151.12 2054.61,-151.12 2054.61,-132.12 1999.61,-132.12"/>
<text text-anchor="start" x="2002.61" y="-138.52" font-family="sans-serif" font-size="12.00">OHS, PL</text>
</g>
<!-- BigDataContexto -->
<g id="node5" class="node">
<title>BigDataContexto</title>
<polygon fill="none" stroke="black" stroke-width="2" points="2994.59,-371.02 2987.13,-372.33 2979.56,-373.53 2971.91,-374.61 2964.21,-375.56 2956.49,-376.38 2948.77,-377.06 2941.09,-377.61 2933.48,-378.01 2925.96,-378.27 2918.55,-378.38 2911.28,-378.34 2904.18,-378.15 2897.26,-377.82 2890.55,-377.34 2884.06,-376.71 2877.81,-375.94 2871.82,-375.03 2866.09,-373.98 2860.65,-372.79 2855.49,-371.48 2850.64,-370.04 2846.09,-368.48 2841.85,-366.8 2837.92,-365.02 2834.31,-363.14 2831.02,-361.16 2828.04,-359.09 2825.38,-356.95 2823.04,-354.73 2821,-352.46 2819.26,-350.13 2817.83,-347.75 2816.69,-345.33 2815.84,-342.89 2815.27,-340.43 2814.98,-337.95 2814.95,-335.47 2815.19,-333 2815.68,-330.54 2816.43,-328.1 2817.42,-325.69 2818.64,-323.31 2820.1,-320.98 2821.79,-318.69 2823.7,-316.46 2825.82,-314.29 2828.17,-312.19 2830.72,-310.16 2833.48,-308.21 2836.45,-306.34 2839.62,-304.55 2843,-302.85 2846.57,-301.25 2850.34,-299.73 2854.31,-298.31 2858.47,-297 2862.83,-295.78 2867.37,-294.66 2872.1,-293.64 2877.02,-292.73 2882.12,-291.92 2887.39,-291.21 2892.84,-290.6 2898.45,-290.1 2904.22,-289.7 2910.14,-289.41 2916.21,-289.21 2922.4,-289.11 2928.72,-289.12 2935.15,-289.22 2941.67,-289.41 2948.27,-289.71 2954.93,-290.09 2961.65,-290.57 2968.39,-291.15 2975.14,-291.81 2981.88,-292.56 2988.59,-293.4 2995.24,-294.33 3001.81,-295.34 3008.28,-296.43 3014.62,-297.61 3020.82,-298.86 3026.83,-300.2 3032.64,-301.61 3038.23,-303.09 3043.57,-304.65 3048.63,-306.28 3053.39,-307.98 3057.83,-309.74 3061.92,-311.56 3065.65,-313.45 3069,-315.39 3071.94,-317.38 3074.46,-319.43 3076.55,-321.52 3078.19,-323.65 3079.37,-325.82 3080.08,-328.02 3080.32,-330.25 3080.07,-332.5 3079.35,-334.77 3078.14,-337.05 3076.46,-339.33 3074.3,-341.61 3071.67,-343.89 3068.58,-346.15 3065.04,-348.39 3061.07,-350.6 3056.69,-352.78 3051.9,-354.91 3046.73,-357 3041.21,-359.03 3035.34,-360.99 3029.17,-362.88 3022.71,-364.69 3016,-366.42 3009.05,-368.05 3001.91,-369.59 2994.59,-371.02"/>
<text text-anchor="middle" x="2937.61" y="-327.68" font-family="sans-serif" font-size="16.00">BigDataContexto</text>
</g>
<!-- BigDataContexto&#45;&gt;AnaliticaContexto -->
<g id="edge4" class="edge">
<title>BigDataContexto&#45;&gt;AnaliticaContexto</title>
<path fill="none" stroke="black" stroke-width="2" d="M2863.25,-295.5C2826.28,-279.62 2780.44,-262.16 2737.61,-252.03 2536.96,-204.59 2297.3,-191.16 2151.61,-187.61"/>
<text text-anchor="middle" x="2858.11" y="-255.43" font-family="sans-serif" font-size="12.00"> &#160;&#160;&#160;&#160;&#160;&#160;&#160;&#160;&#160;&#160;&#160;&#160;&#160;&#160;&#160;&#160;&#160;&#160;&#160;&#160;&#160;&#160;&#160;&#160;&#160;&#160;&#160;&#160;&#160;&#160;&#160;&#160;&#160;&#160;&#160;&#160;&#160;&#160;&#160;</text>
<polygon fill="white" stroke="transparent" points="2132.61,-177.61 2132.61,-196.61 2148.61,-196.61 2148.61,-177.61 2132.61,-177.61"/>
<polyline fill="none" stroke="black" points="2148.61,-177.61 2148.61,-196.61 "/>
<text text-anchor="start" x="2135.61" y="-184.01" font-family="sans-serif" font-size="12.00">D</text>
<polygon fill="white" stroke="transparent" points="2148.61,-177.61 2148.61,-196.61 2170.61,-196.61 2170.61,-177.61 2148.61,-177.61"/>
<polygon fill="none" stroke="black" points="2148.61,-177.61 2148.61,-196.61 2170.61,-196.61 2170.61,-177.61 2148.61,-177.61"/>
<text text-anchor="start" x="2151.61" y="-184.01" font-family="sans-serif" font-size="12.00">CF</text>
<polygon fill="white" stroke="transparent" points="2828.25,-285.5 2828.25,-304.5 2844.25,-304.5 2844.25,-285.5 2828.25,-285.5"/>
<polyline fill="none" stroke="black" points="2844.25,-285.5 2844.25,-304.5 "/>
<text text-anchor="start" x="2831.25" y="-291.9" font-family="sans-serif" font-size="12.00">U</text>
<polygon fill="white" stroke="transparent" points="2844.25,-285.5 2844.25,-304.5 2899.25,-304.5 2899.25,-285.5 2844.25,-285.5"/>
<polygon fill="none" stroke="black" points="2844.25,-285.5 2844.25,-304.5 2899.25,-304.5 2899.25,-285.5 2844.25,-285.5"/>
<text text-anchor="start" x="2847.25" y="-291.9" font-family="sans-serif" font-size="12.00">OHS, PL</text>
</g>
<!-- CumplimientoFraudeContexto -->
<g id="node6" class="node">
<title>CumplimientoFraudeContexto</title>
<polygon fill="none" stroke="black" stroke-width="2" points="29.99,-750.46 35.96,-747.91 42.39,-745.44 49.26,-743.04 56.53,-740.74 64.19,-738.53 72.21,-736.44 80.55,-734.47 89.2,-732.62 98.13,-730.91 107.3,-729.34 116.68,-727.91 126.26,-726.64 136,-725.52 145.88,-724.56 155.87,-723.76 165.94,-723.13 176.06,-722.66 186.22,-722.36 196.38,-722.22 206.52,-722.24 216.62,-722.42 226.65,-722.76 236.59,-723.26 246.43,-723.9 256.13,-724.69 265.68,-725.62 275.06,-726.68 284.25,-727.86 293.24,-729.17 301.99,-730.59 310.51,-732.11 318.76,-733.73 326.74,-735.43 334.43,-737.22 341.81,-739.08 348.88,-741.01 355.6,-742.99 361.98,-745.02 368,-747.1 373.64,-749.2 378.89,-751.33 383.74,-753.48 388.18,-755.65 392.2,-757.82 395.78,-759.98 398.92,-762.15 401.6,-764.3 403.82,-766.44 405.56,-768.56 406.83,-770.66 407.6,-772.72 407.88,-774.76 407.65,-776.77 406.92,-778.73 405.68,-780.67 403.92,-782.56 401.65,-784.41 398.87,-786.21 395.56,-787.98 391.75,-789.69 387.42,-791.36 382.59,-792.99 377.27,-794.56 371.45,-796.09 365.15,-797.56 358.39,-798.99 351.17,-800.36 343.51,-801.68 335.43,-802.94 326.95,-804.15 318.08,-805.29 308.85,-806.38 299.28,-807.4 289.41,-808.36 279.24,-809.25 268.82,-810.07 258.18,-810.82 247.34,-811.49 236.34,-812.08 225.21,-812.59 213.98,-813 202.7,-813.33 191.39,-813.56 180.1,-813.7 168.86,-813.73 157.7,-813.66 146.67,-813.48 135.81,-813.19 125.14,-812.78 114.71,-812.26 104.55,-811.62 94.69,-810.85 85.17,-809.96 76.03,-808.95 67.28,-807.82 58.97,-806.56 51.11,-805.18 43.75,-803.68 36.89,-802.06 30.56,-800.32 24.79,-798.46 19.59,-796.5 14.97,-794.43 10.95,-792.26 7.55,-790 4.76,-787.65 2.6,-785.21 1.07,-782.71 0.16,-780.14 -0.11,-777.52 0.24,-774.85 1.22,-772.14 2.8,-769.41 4.99,-766.66 7.77,-763.91 11.13,-761.17 15.05,-758.44 19.51,-755.74 24.5,-753.07 29.99,-750.46"/>
<text text-anchor="middle" x="209.61" y="-766.95" font-family="sans-serif" font-size="16.00">CumplimientoFraudeContexto</text>
</g>
<!-- CumplimientoFraudeContexto&#45;&gt;OrquestadorPagosContexto -->
<g id="edge6" class="edge">
<title>CumplimientoFraudeContexto&#45;&gt;OrquestadorPagosContexto</title>
<path fill="none" stroke="black" stroke-width="2" d="M140.54,-724.99C110.75,-699.88 82.61,-665.51 82.61,-625.27 82.61,-625.27 82.61,-625.27 82.61,-330.48 82.61,-246.87 172.62,-272.84 253.61,-252.03 383.15,-218.76 741.25,-200.76 963.53,-192.51"/>
<text text-anchor="middle" x="158.11" y="-474.64" font-family="sans-serif" font-size="12.00"> &#160;&#160;&#160;&#160;&#160;&#160;&#160;&#160;&#160;&#160;&#160;&#160;&#160;&#160;&#160;&#160;&#160;&#160;&#160;&#160;&#160;&#160;&#160;&#160;&#160;&#160;&#160;&#160;&#160;&#160;&#160;&#160;&#160;&#160;&#160;&#160;&#160;&#160;&#160;</text>
<polygon fill="white" stroke="transparent" points="940.53,-182.51 940.53,-201.51 956.53,-201.51 956.53,-182.51 940.53,-182.51"/>
<polyline fill="none" stroke="black" points="956.53,-182.51 956.53,-201.51 "/>
<text text-anchor="start" x="943.53" y="-188.91" font-family="sans-serif" font-size="12.00">D</text>
<polygon fill="white" stroke="transparent" points="956.53,-182.51 956.53,-201.51 986.53,-201.51 986.53,-182.51 956.53,-182.51"/>
<polygon fill="none" stroke="black" points="956.53,-182.51 956.53,-201.51 986.53,-201.51 986.53,-182.51 956.53,-182.51"/>
<text text-anchor="start" x="959.53" y="-188.91" font-family="sans-serif" font-size="12.00">ACL</text>
<polygon fill="white" stroke="transparent" points="105.54,-714.99 105.54,-733.99 121.54,-733.99 121.54,-714.99 105.54,-714.99"/>
<polyline fill="none" stroke="black" points="121.54,-714.99 121.54,-733.99 "/>
<text text-anchor="start" x="108.54" y="-721.39" font-family="sans-serif" font-size="12.00">U</text>
<polygon fill="white" stroke="transparent" points="121.54,-714.99 121.54,-733.99 176.54,-733.99 176.54,-714.99 121.54,-714.99"/>
<polygon fill="none" stroke="black" points="121.54,-714.99 121.54,-733.99 176.54,-733.99 176.54,-714.99 121.54,-714.99"/>
<text text-anchor="start" x="124.54" y="-721.39" font-family="sans-serif" font-size="12.00">OHS, PL</text>
</g>
<!-- ServicioAtribucionContexto -->
<g id="node7" class="node">
<title>ServicioAtribucionContexto</title>
<polygon fill="none" stroke="black" stroke-width="2" points="435.29,-646.57 428.96,-644.1 423.12,-641.59 417.79,-639.04 412.99,-636.47 408.74,-633.88 405.07,-631.28 401.99,-628.68 399.52,-626.1 397.67,-623.54 396.46,-621 395.87,-618.51 395.94,-616.06 396.64,-613.66 397.99,-611.33 399.98,-609.06 402.6,-606.86 405.85,-604.74 409.71,-602.7 414.17,-600.75 419.2,-598.89 424.8,-597.13 430.94,-595.46 437.59,-593.89 444.73,-592.42 452.32,-591.05 460.35,-589.78 468.78,-588.62 477.57,-587.55 486.69,-586.59 496.11,-585.74 505.79,-584.98 515.69,-584.32 525.78,-583.76 536.02,-583.3 546.38,-582.93 556.81,-582.66 567.29,-582.48 577.77,-582.39 588.22,-582.38 598.61,-582.47 608.91,-582.64 619.07,-582.89 629.09,-583.23 638.92,-583.65 648.53,-584.15 657.91,-584.73 667.03,-585.39 675.87,-586.12 684.41,-586.93 692.62,-587.82 700.5,-588.78 708.02,-589.82 715.18,-590.93 721.96,-592.12 728.36,-593.38 734.36,-594.72 739.96,-596.13 745.15,-597.61 749.92,-599.16 754.29,-600.78 758.23,-602.48 761.76,-604.23 764.87,-606.06 767.56,-607.95 769.83,-609.9 771.69,-611.91 773.14,-613.98 774.17,-616.1 774.81,-618.26 775.03,-620.47 774.86,-622.72 774.29,-625.01 773.33,-627.32 771.98,-629.66 770.25,-632.01 768.13,-634.37 765.64,-636.74 762.77,-639.09 759.53,-641.44 755.93,-643.77 751.96,-646.06 747.63,-648.32 742.96,-650.53 737.93,-652.69 732.56,-654.78 726.84,-656.8 720.8,-658.74 714.43,-660.59 707.75,-662.34 700.75,-663.98 693.46,-665.52 685.87,-666.93 678.01,-668.21 669.87,-669.36 661.49,-670.36 652.87,-671.23 644.02,-671.94 634.97,-672.49 625.74,-672.89 616.34,-673.13 606.8,-673.2 597.14,-673.11 587.38,-672.86 577.55,-672.44 567.68,-671.86 557.79,-671.11 547.92,-670.21 538.09,-669.16 528.33,-667.95 518.69,-666.6 509.18,-665.1 499.85,-663.48 490.72,-661.72 481.82,-659.85 473.2,-657.86 464.89,-655.77 456.9,-653.59 449.29,-651.32 442.08,-648.98 435.29,-646.57"/>
<text text-anchor="middle" x="596.61" y="-620.47" font-family="sans-serif" font-size="16.00">ServicioAtribucionContexto</text>
</g>
<!-- CumplimientoFraudeContexto&#45;&gt;ServicioAtribucionContexto -->
<g id="edge5" class="edge">
<title>CumplimientoFraudeContexto&#45;&gt;ServicioAtribucionContexto</title>
<path fill="none" stroke="black" stroke-width="2" d="M310.53,-732.07C367.64,-710.75 438.83,-684.18 495.9,-662.87"/>
<text text-anchor="middle" x="491.11" y="-694.38" font-family="sans-serif" font-size="12.00"> &#160;&#160;&#160;&#160;&#160;&#160;&#160;&#160;&#160;&#160;&#160;&#160;&#160;&#160;&#160;&#160;&#160;&#160;&#160;&#160;&#160;&#160;&#160;&#160;&#160;&#160;&#160;&#160;&#160;&#160;&#160;&#160;&#160;&#160;&#160;&#160;&#160;&#160;&#160;</text>
<polygon fill="white" stroke="transparent" points="472.9,-652.87 472.9,-671.87 488.9,-671.87 488.9,-652.87 472.9,-652.87"/>
<polyline fill="none" stroke="black" points="488.9,-652.87 488.9,-671.87 "/>
<text text-anchor="start" x="475.9" y="-659.27" font-family="sans-serif" font-size="12.00">D</text>
<polygon fill="white" stroke="transparent" points="488.9,-652.87 488.9,-671.87 518.9,-671.87 518.9,-652.87 488.9,-652.87"/>
<polygon fill="none" stroke="black" points="488.9,-652.87 488.9,-671.87 518.9,-671.87 518.9,-652.87 488.9,-652.87"/>
<text text-anchor="start" x="491.9" y="-659.27" font-family="sans-serif" font-size="12.00">ACL</text>
<polygon fill="white" stroke="transparent" points="275.53,-722.07 275.53,-741.07 291.53,-741.07 291.53,-722.07 275.53,-722.07"/>
<polyline fill="none" stroke="black" points="291.53,-722.07 291.53,-741.07 "/>
<text text-anchor="start" x="278.53" y="-728.47" font-family="sans-serif" font-size="12.00">U</text>
<polygon fill="white" stroke="transparent" points="291.53,-722.07 291.53,-741.07 346.53,-741.07 346.53,-722.07 291.53,-722.07"/>
<polygon fill="none" stroke="black" points="291.53,-722.07 291.53,-741.07 346.53,-741.07 346.53,-722.07 291.53,-722.07"/>
<text text-anchor="start" x="294.53" y="-728.47" font-family="sans-serif" font-size="12.00">OHS, PL</text>
</g>
<!-- ServicioAtribucionContexto&#45;&gt;BigDataContexto -->
<g id="edge8" class="edge">
<title>ServicioAtribucionContexto&#45;&gt;BigDataContexto</title>
<path fill="none" stroke="black" stroke-width="2" d="M438.87,-593.62C369.5,-577.07 299.1,-554.2 278.61,-526.55 252.78,-491.7 249.14,-460.77 278.61,-428.94 339.32,-363.35 590.31,-401.76 679.61,-397.94 796.51,-392.92 2670.02,-398.06 2785.61,-379.94 2804.18,-377.02 2823.61,-372.31 2842.13,-366.96"/>
<text text-anchor="middle" x="354.11" y="-474.64" font-family="sans-serif" font-size="12.00"> &#160;&#160;&#160;&#160;&#160;&#160;&#160;&#160;&#160;&#160;&#160;&#160;&#160;&#160;&#160;&#160;&#160;&#160;&#160;&#160;&#160;&#160;&#160;&#160;&#160;&#160;&#160;&#160;&#160;&#160;&#160;&#160;&#160;&#160;&#160;&#160;&#160;&#160;&#160;</text>
<polygon fill="white" stroke="transparent" points="2819.13,-356.96 2819.13,-375.96 2835.13,-375.96 2835.13,-356.96 2819.13,-356.96"/>
<polyline fill="none" stroke="black" points="2835.13,-356.96 2835.13,-375.96 "/>
<text text-anchor="start" x="2822.13" y="-363.36" font-family="sans-serif" font-size="12.00">D</text>
<polygon fill="white" stroke="transparent" points="2835.13,-356.96 2835.13,-375.96 2865.13,-375.96 2865.13,-356.96 2835.13,-356.96"/>
<polygon fill="none" stroke="black" points="2835.13,-356.96 2835.13,-375.96 2865.13,-375.96 2865.13,-356.96 2835.13,-356.96"/>
<text text-anchor="start" x="2838.13" y="-363.36" font-family="sans-serif" font-size="12.00">ACL</text>
<polygon fill="white" stroke="transparent" points="403.87,-583.62 403.87,-602.62 419.87,-602.62 419.87,-583.62 403.87,-583.62"/>
<polyline fill="none" stroke="black" points="419.87,-583.62 419.87,-602.62 "/>
<text text-anchor="start" x="406.87" y="-590.02" font-family="sans-serif" font-size="12.00">U</text>
<polygon fill="white" stroke="transparent" points="419.87,-583.62 419.87,-602.62 474.87,-602.62 474.87,-583.62 419.87,-583.62"/>
<polygon fill="none" stroke="black" points="419.87,-583.62 419.87,-602.62 474.87,-602.62 474.87,-583.62 419.87,-583.62"/>
<text text-anchor="start" x="422.87" y="-590.02" font-family="sans-serif" font-size="12.00">OHS, PL</text>
</g>
<!-- MotorComisionesContexto -->
<g id="node8" class="node">
<title>MotorComisionesContexto</title>
<polygon fill="none" stroke="black" stroke-width="2" points="797.94,-464.69 801.62,-467.41 804.81,-470.14 807.48,-472.88 809.63,-475.63 811.24,-478.35 812.3,-481.06 812.81,-483.73 812.76,-486.35 812.14,-488.93 810.95,-491.44 809.2,-493.88 806.89,-496.24 804.02,-498.52 800.6,-500.71 796.64,-502.8 792.15,-504.78 787.14,-506.66 781.64,-508.42 775.65,-510.07 769.2,-511.6 762.31,-513.02 755,-514.31 747.29,-515.47 739.22,-516.52 730.81,-517.44 722.09,-518.24 713.09,-518.92 703.84,-519.49 694.37,-519.93 684.72,-520.27 674.91,-520.49 664.99,-520.6 654.98,-520.61 644.92,-520.52 634.83,-520.33 624.76,-520.05 614.74,-519.67 604.79,-519.2 594.96,-518.66 585.26,-518.03 575.73,-517.32 566.39,-516.54 557.28,-515.69 548.42,-514.76 539.83,-513.77 531.53,-512.72 523.55,-511.61 515.91,-510.43 508.63,-509.2 501.71,-507.91 495.19,-506.56 489.06,-505.16 483.35,-503.71 478.06,-502.2 473.21,-500.65 468.79,-499.04 464.82,-497.39 461.3,-495.68 458.23,-493.93 455.62,-492.13 453.46,-490.29 451.77,-488.41 450.52,-486.48 449.73,-484.51 449.38,-482.5 449.48,-480.46 450.02,-478.39 451,-476.29 452.4,-474.16 454.22,-472.02 456.45,-469.85 459.09,-467.67 462.12,-465.49 465.54,-463.3 469.34,-461.12 473.5,-458.95 478.03,-456.8 482.9,-454.67 488.1,-452.57 493.63,-450.52 499.48,-448.51 505.63,-446.55 512.07,-444.66 518.78,-442.84 525.76,-441.1 533,-439.45 540.47,-437.9 548.16,-436.45 556.06,-435.11 564.16,-433.89 572.44,-432.79 580.87,-431.83 589.46,-431 598.16,-430.32 606.98,-429.79 615.89,-429.41 624.87,-429.19 633.89,-429.13 642.95,-429.23 652.01,-429.49 661.06,-429.93 670.07,-430.52 679.02,-431.28 687.88,-432.2 696.63,-433.29 705.25,-434.52 713.72,-435.92 721.99,-437.45 730.06,-439.13 737.89,-440.95 745.46,-442.89 752.75,-444.96 759.73,-447.13 766.37,-449.41 772.66,-451.78 778.56,-454.24 784.06,-456.77 789.14,-459.36 793.77,-462 797.94,-464.69"/>
<text text-anchor="middle" x="625.61" y="-473.94" font-family="sans-serif" font-size="16.00">MotorComisionesContexto</text>
</g>
<!-- ServicioAtribucionContexto&#45;&gt;MotorComisionesContexto -->
<g id="edge7" class="edge">
<title>ServicioAtribucionContexto&#45;&gt;MotorComisionesContexto</title>
<path fill="none" stroke="black" stroke-width="2" d="M604.84,-582.24C608.76,-562.71 613.44,-539.42 617.36,-519.87"/>
<text text-anchor="middle" x="688.11" y="-547.95" font-family="sans-serif" font-size="12.00"> &#160;&#160;&#160;&#160;&#160;&#160;&#160;&#160;&#160;&#160;&#160;&#160;&#160;&#160;&#160;&#160;&#160;&#160;&#160;&#160;&#160;&#160;&#160;&#160;&#160;&#160;&#160;&#160;&#160;&#160;&#160;&#160;&#160;&#160;&#160;&#160;&#160;&#160;&#160;</text>
<polygon fill="white" stroke="transparent" points="594.36,-509.87 594.36,-528.87 610.36,-528.87 610.36,-509.87 594.36,-509.87"/>
<polyline fill="none" stroke="black" points="610.36,-509.87 610.36,-528.87 "/>
<text text-anchor="start" x="597.36" y="-516.27" font-family="sans-serif" font-size="12.00">D</text>
<polygon fill="white" stroke="transparent" points="610.36,-509.87 610.36,-528.87 640.36,-528.87 640.36,-509.87 610.36,-509.87"/>
<polygon fill="none" stroke="black" points="610.36,-509.87 610.36,-528.87 640.36,-528.87 640.36,-509.87 610.36,-509.87"/>
<text text-anchor="start" x="613.36" y="-516.27" font-family="sans-serif" font-size="12.00">ACL</text>
<polygon fill="white" stroke="transparent" points="569.84,-572.24 569.84,-591.24 585.84,-591.24 585.84,-572.24 569.84,-572.24"/>
<polyline fill="none" stroke="black" points="585.84,-572.24 585.84,-591.24 "/>
<text text-anchor="start" x="572.84" y="-578.64" font-family="sans-serif" font-size="12.00">U</text>
<polygon fill="white" stroke="transparent" points="585.84,-572.24 585.84,-591.24 640.84,-591.24 640.84,-572.24 585.84,-572.24"/>
<polygon fill="none" stroke="black" points="585.84,-572.24 585.84,-591.24 640.84,-591.24 640.84,-572.24 585.84,-572.24"/>
<text text-anchor="start" x="588.84" y="-578.64" font-family="sans-serif" font-size="12.00">OHS, PL</text>
</g>
<!-- MotorComisionesContexto&#45;&gt;OrquestadorPagosContexto -->
<g id="edge9" class="edge">
<title>MotorComisionesContexto&#45;&gt;OrquestadorPagosContexto</title>
<path fill="none" stroke="black" stroke-width="2" d="M502.56,-447.45C383.5,-419.09 220.89,-380.3 220.61,-379.94 193.93,-346.13 191.77,-315.02 220.61,-283.03 269.35,-228.97 706.77,-203.37 963.64,-192.91"/>
<text text-anchor="middle" x="296.11" y="-328.38" font-family="sans-serif" font-size="12.00"> &#160;&#160;&#160;&#160;&#160;&#160;&#160;&#160;&#160;&#160;&#160;&#160;&#160;&#160;&#160;&#160;&#160;&#160;&#160;&#160;&#160;&#160;&#160;&#160;&#160;&#160;&#160;&#160;&#160;&#160;&#160;&#160;&#160;&#160;&#160;&#160;&#160;&#160;&#160;</text>
<polygon fill="white" stroke="transparent" points="940.64,-182.91 940.64,-201.91 956.64,-201.91 956.64,-182.91 940.64,-182.91"/>
<polyline fill="none" stroke="black" points="956.64,-182.91 956.64,-201.91 "/>
<text text-anchor="start" x="943.64" y="-189.31" font-family="sans-serif" font-size="12.00">D</text>
<polygon fill="white" stroke="transparent" points="956.64,-182.91 956.64,-201.91 986.64,-201.91 986.64,-182.91 956.64,-182.91"/>
<polygon fill="none" stroke="black" points="956.64,-182.91 956.64,-201.91 986.64,-201.91 986.64,-182.91 956.64,-182.91"/>
<text text-anchor="start" x="959.64" y="-189.31" font-family="sans-serif" font-size="12.00">ACL</text>
<polygon fill="white" stroke="transparent" points="467.56,-437.45 467.56,-456.45 483.56,-456.45 483.56,-437.45 467.56,-437.45"/>
<polyline fill="none" stroke="black" points="483.56,-437.45 483.56,-456.45 "/>
<text text-anchor="start" x="470.56" y="-443.85" font-family="sans-serif" font-size="12.00">U</text>
<polygon fill="white" stroke="transparent" points="483.56,-437.45 483.56,-456.45 538.56,-456.45 538.56,-437.45 483.56,-437.45"/>
<polygon fill="none" stroke="black" points="483.56,-437.45 483.56,-456.45 538.56,-456.45 538.56,-437.45 483.56,-437.45"/>
<text text-anchor="start" x="486.56" y="-443.85" font-family="sans-serif" font-size="12.00">OHS, PL</text>
</g>
<!-- MotorComisionesContexto&#45;&gt;BigDataContexto -->
<g id="edge10" class="edge">
<title>MotorComisionesContexto&#45;&gt;BigDataContexto</title>
<path fill="none" stroke="black" stroke-width="2" d="M661.09,-429.63C673.34,-416.93 688.17,-404.82 704.61,-397.94 757.93,-375.62 2728.5,-388.9 2785.61,-379.94 2804.18,-377.02 2823.61,-372.31 2842.13,-366.96"/>
<text text-anchor="middle" x="780.11" y="-401.34" font-family="sans-serif" font-size="12.00"> &#160;&#160;&#160;&#160;&#160;&#160;&#160;&#160;&#160;&#160;&#160;&#160;&#160;&#160;&#160;&#160;&#160;&#160;&#160;&#160;&#160;&#160;&#160;&#160;&#160;&#160;&#160;&#160;&#160;&#160;&#160;&#160;&#160;&#160;&#160;&#160;&#160;&#160;&#160;</text>
<polygon fill="white" stroke="transparent" points="2819.13,-356.96 2819.13,-375.96 2835.13,-375.96 2835.13,-356.96 2819.13,-356.96"/>
<polyline fill="none" stroke="black" points="2835.13,-356.96 2835.13,-375.96 "/>
<text text-anchor="start" x="2822.13" y="-363.36" font-family="sans-serif" font-size="12.00">D</text>
<polygon fill="white" stroke="transparent" points="2835.13,-356.96 2835.13,-375.96 2865.13,-375.96 2865.13,-356.96 2835.13,-356.96"/>
<polygon fill="none" stroke="black" points="2835.13,-356.96 2835.13,-375.96 2865.13,-375.96 2865.13,-356.96 2835.13,-356.96"/>
<text text-anchor="start" x="2838.13" y="-363.36" font-family="sans-serif" font-size="12.00">ACL</text>
<polygon fill="white" stroke="transparent" points="626.09,-419.63 626.09,-438.63 642.09,-438.63 642.09,-419.63 626.09,-419.63"/>
<polyline fill="none" stroke="black" points="642.09,-419.63 642.09,-438.63 "/>
<text text-anchor="start" x="629.09" y="-426.03" font-family="sans-serif" font-size="12.00">U</text>
<polygon fill="white" stroke="transparent" points="642.09,-419.63 642.09,-438.63 697.09,-438.63 697.09,-419.63 642.09,-419.63"/>
<polygon fill="none" stroke="black" points="642.09,-419.63 642.09,-438.63 697.09,-438.63 697.09,-419.63 642.09,-419.63"/>
<text text-anchor="start" x="645.09" y="-426.03" font-family="sans-serif" font-size="12.00">OHS, PL</text>
</g>
<!-- LinkGeneratorContexto -->
<g id="node9" class="node">
<title>LinkGeneratorContexto</title>
<polygon fill="none" stroke="black" stroke-width="2" points="894.65,-908.37 896.92,-911.18 898.73,-913.99 900.07,-916.8 900.94,-919.59 901.33,-922.35 901.23,-925.08 900.64,-927.76 899.56,-930.38 897.99,-932.93 895.93,-935.41 893.39,-937.81 890.37,-940.11 886.88,-942.31 882.93,-944.4 878.53,-946.39 873.68,-948.26 868.42,-950 862.75,-951.63 856.68,-953.12 850.24,-954.49 843.45,-955.72 836.33,-956.82 828.9,-957.79 821.19,-958.63 813.22,-959.34 805.01,-959.92 796.6,-960.37 788.01,-960.7 779.27,-960.9 770.41,-960.99 761.45,-960.96 752.42,-960.82 743.36,-960.58 734.29,-960.23 725.25,-959.78 716.25,-959.24 707.33,-958.61 698.51,-957.89 689.82,-957.1 681.3,-956.22 672.95,-955.27 664.81,-954.25 656.9,-953.17 649.24,-952.02 641.86,-950.82 634.77,-949.56 627.99,-948.24 621.53,-946.87 615.43,-945.45 609.68,-943.99 604.3,-942.48 599.31,-940.93 594.71,-939.33 590.52,-937.69 586.73,-936.02 583.37,-934.3 580.42,-932.55 577.91,-930.75 575.82,-928.93 574.16,-927.07 572.93,-925.17 572.14,-923.25 571.77,-921.29 571.82,-919.3 572.3,-917.29 573.19,-915.26 574.49,-913.2 576.19,-911.13 578.3,-909.04 580.79,-906.94 583.66,-904.84 586.9,-902.73 590.5,-900.62 594.45,-898.53 598.74,-896.45 603.36,-894.39 608.3,-892.35 613.54,-890.35 619.07,-888.39 624.88,-886.48 630.96,-884.62 637.29,-882.82 643.86,-881.1 650.65,-879.45 657.65,-877.9 664.84,-876.43 672.21,-875.07 679.74,-873.81 687.42,-872.68 695.22,-871.66 703.14,-870.78 711.15,-870.03 719.24,-869.43 727.38,-868.97 735.57,-868.66 743.78,-868.51 751.99,-868.52 760.18,-868.69 768.33,-869.02 776.43,-869.51 784.44,-870.17 792.36,-871 800.16,-871.98 807.82,-873.13 815.31,-874.43 822.63,-875.89 829.74,-877.49 836.62,-879.24 843.26,-881.12 849.64,-883.14 855.73,-885.27 861.51,-887.51 866.97,-889.86 872.09,-892.31 876.84,-894.84 881.22,-897.44 885.21,-900.11 888.78,-902.82 891.93,-905.58 894.65,-908.37"/>
<text text-anchor="middle" x="733.61" y="-913.22" font-family="sans-serif" font-size="16.00">LinkGeneratorContexto</text>
</g>
<!-- ServicioTrackerContexto -->
<g id="node10" class="node">
<title>ServicioTrackerContexto</title>
<polygon fill="none" stroke="black" stroke-width="2" points="894.87,-784.85 891.48,-787.6 887.65,-790.29 883.42,-792.91 878.79,-795.45 873.78,-797.91 868.41,-800.27 862.69,-802.52 856.65,-804.65 850.29,-806.66 843.65,-808.54 836.73,-810.28 829.57,-811.87 822.17,-813.32 814.57,-814.61 806.77,-815.75 798.81,-816.72 790.7,-817.53 782.47,-818.18 774.13,-818.67 765.71,-818.99 757.23,-819.15 748.7,-819.15 740.16,-819 731.62,-818.69 723.09,-818.24 714.61,-817.64 706.19,-816.9 697.84,-816.03 689.6,-815.04 681.48,-813.92 673.49,-812.69 665.66,-811.36 658.01,-809.93 650.55,-808.41 643.29,-806.81 636.26,-805.13 629.48,-803.38 622.96,-801.58 616.71,-799.72 610.75,-797.81 605.1,-795.86 599.77,-793.89 594.77,-791.88 590.12,-789.86 585.82,-787.82 581.91,-785.77 578.37,-783.71 575.23,-781.65 572.49,-779.6 570.17,-777.56 568.27,-775.52 566.8,-773.5 565.76,-771.5 565.17,-769.51 565.02,-767.54 565.33,-765.6 566.08,-763.68 567.3,-761.78 568.96,-759.91 571.08,-758.07 573.65,-756.26 576.66,-754.48 580.12,-752.73 584.01,-751.01 588.33,-749.32 593.07,-747.67 598.22,-746.06 603.77,-744.49 609.7,-742.95 616,-741.46 622.65,-740.02 629.64,-738.62 636.95,-737.27 644.55,-735.98 652.44,-734.75 660.57,-733.58 668.94,-732.47 677.52,-731.43 686.29,-730.47 695.21,-729.59 704.26,-728.79 713.41,-728.08 722.64,-727.46 731.92,-726.94 741.22,-726.53 750.51,-726.22 759.77,-726.02 768.95,-725.94 778.04,-725.99 787.01,-726.15 795.83,-726.45 804.46,-726.87 812.89,-727.43 821.09,-728.13 829.03,-728.96 836.69,-729.93 844.04,-731.04 851.06,-732.29 857.74,-733.67 864.04,-735.19 869.96,-736.84 875.46,-738.62 880.55,-740.53 885.2,-742.55 889.41,-744.69 893.15,-746.94 896.42,-749.29 899.22,-751.73 901.53,-754.26 903.35,-756.87 904.68,-759.54 905.53,-762.27 905.87,-765.05 905.73,-767.86 905.1,-770.7 903.99,-773.55 902.4,-776.4 900.35,-779.24 897.84,-782.06 894.87,-784.85"/>
<text text-anchor="middle" x="733.61" y="-766.95" font-family="sans-serif" font-size="16.00">ServicioTrackerContexto</text>
</g>
<!-- LinkGeneratorContexto&#45;&gt;ServicioTrackerContexto -->
<g id="edge11" class="edge">
<title>LinkGeneratorContexto&#45;&gt;ServicioTrackerContexto</title>
<path fill="none" stroke="black" stroke-width="2" d="M733.61,-868.38C733.61,-852.46 733.61,-834.73 733.61,-818.85"/>
<text text-anchor="middle" x="809.11" y="-840.92" font-family="sans-serif" font-size="12.00"> &#160;&#160;&#160;&#160;&#160;&#160;&#160;&#160;&#160;&#160;&#160;&#160;&#160;&#160;&#160;&#160;&#160;&#160;&#160;&#160;&#160;&#160;&#160;&#160;&#160;&#160;&#160;&#160;&#160;&#160;&#160;&#160;&#160;&#160;&#160;&#160;&#160;&#160;&#160;</text>
<polygon fill="white" stroke="transparent" points="710.61,-808.85 710.61,-827.85 726.61,-827.85 726.61,-808.85 710.61,-808.85"/>
<polyline fill="none" stroke="black" points="726.61,-808.85 726.61,-827.85 "/>
<text text-anchor="start" x="713.61" y="-815.25" font-family="sans-serif" font-size="12.00">D</text>
<polygon fill="white" stroke="transparent" points="726.61,-808.85 726.61,-827.85 756.61,-827.85 756.61,-808.85 726.61,-808.85"/>
<polygon fill="none" stroke="black" points="726.61,-808.85 726.61,-827.85 756.61,-827.85 756.61,-808.85 726.61,-808.85"/>
<text text-anchor="start" x="729.61" y="-815.25" font-family="sans-serif" font-size="12.00">ACL</text>
<polygon fill="white" stroke="transparent" points="698.61,-858.38 698.61,-877.38 714.61,-877.38 714.61,-858.38 698.61,-858.38"/>
<polyline fill="none" stroke="black" points="714.61,-858.38 714.61,-877.38 "/>
<text text-anchor="start" x="701.61" y="-864.78" font-family="sans-serif" font-size="12.00">U</text>
<polygon fill="white" stroke="transparent" points="714.61,-858.38 714.61,-877.38 769.61,-877.38 769.61,-858.38 714.61,-858.38"/>
<polygon fill="none" stroke="black" points="714.61,-858.38 714.61,-877.38 769.61,-877.38 769.61,-858.38 714.61,-858.38"/>
<text text-anchor="start" x="717.61" y="-864.78" font-family="sans-serif" font-size="12.00">OHS, PL</text>
</g>
<!-- ServicioTrackerContexto&#45;&gt;BigDataContexto -->
<g id="edge13" class="edge">
<title>ServicioTrackerContexto&#45;&gt;BigDataContexto</title>
<path fill="none" stroke="black" stroke-width="2" d="M891.99,-746.03C1238.2,-692.79 2087.33,-554.64 2785.61,-379.94 2802.77,-375.64 2820.86,-370.53 2838.32,-365.28"/>
<text text-anchor="middle" x="2106.11" y="-547.95" font-family="sans-serif" font-size="12.00"> &#160;&#160;&#160;&#160;&#160;&#160;&#160;&#160;&#160;&#160;&#160;&#160;&#160;&#160;&#160;&#160;&#160;&#160;&#160;&#160;&#160;&#160;&#160;&#160;&#160;&#160;&#160;&#160;&#160;&#160;&#160;&#160;&#160;&#160;&#160;&#160;&#160;&#160;&#160;</text>
<polygon fill="white" stroke="transparent" points="2815.32,-355.28 2815.32,-374.28 2831.32,-374.28 2831.32,-355.28 2815.32,-355.28"/>
<polyline fill="none" stroke="black" points="2831.32,-355.28 2831.32,-374.28 "/>
<text text-anchor="start" x="2818.32" y="-361.68" font-family="sans-serif" font-size="12.00">D</text>
<polygon fill="white" stroke="transparent" points="2831.32,-355.28 2831.32,-374.28 2861.32,-374.28 2861.32,-355.28 2831.32,-355.28"/>
<polygon fill="none" stroke="black" points="2831.32,-355.28 2831.32,-374.28 2861.32,-374.28 2861.32,-355.28 2831.32,-355.28"/>
<text text-anchor="start" x="2834.32" y="-361.68" font-family="sans-serif" font-size="12.00">ACL</text>
<polygon fill="white" stroke="transparent" points="856.99,-736.03 856.99,-755.03 872.99,-755.03 872.99,-736.03 856.99,-736.03"/>
<polyline fill="none" stroke="black" points="872.99,-736.03 872.99,-755.03 "/>
<text text-anchor="start" x="859.99" y="-742.43" font-family="sans-serif" font-size="12.00">U</text>
<polygon fill="white" stroke="transparent" points="872.99,-736.03 872.99,-755.03 927.99,-755.03 927.99,-736.03 872.99,-736.03"/>
<polygon fill="none" stroke="black" points="872.99,-736.03 872.99,-755.03 927.99,-755.03 927.99,-736.03 872.99,-736.03"/>
<text text-anchor="start" x="875.99" y="-742.43" font-family="sans-serif" font-size="12.00">OHS, PL</text>
</g>
<!-- ServicioTrackerContexto&#45;&gt;ServicioAtribucionContexto -->
<g id="edge12" class="edge">
<title>ServicioTrackerContexto&#45;&gt;ServicioAtribucionContexto</title>
<path fill="none" stroke="black" stroke-width="2" d="M695.45,-729.5C678.58,-711.72 658.65,-690.69 641.11,-672.2"/>
<text text-anchor="middle" x="744.11" y="-694.38" font-family="sans-serif" font-size="12.00"> &#160;&#160;&#160;&#160;&#160;&#160;&#160;&#160;&#160;&#160;&#160;&#160;&#160;&#160;&#160;&#160;&#160;&#160;&#160;&#160;&#160;&#160;&#160;&#160;&#160;&#160;&#160;&#160;&#160;&#160;&#160;&#160;&#160;&#160;&#160;&#160;&#160;&#160;&#160;</text>
<polygon fill="white" stroke="transparent" points="618.11,-662.2 618.11,-681.2 634.11,-681.2 634.11,-662.2 618.11,-662.2"/>
<polyline fill="none" stroke="black" points="634.11,-662.2 634.11,-681.2 "/>
<text text-anchor="start" x="621.11" y="-668.6" font-family="sans-serif" font-size="12.00">D</text>
<polygon fill="white" stroke="transparent" points="634.11,-662.2 634.11,-681.2 664.11,-681.2 664.11,-662.2 634.11,-662.2"/>
<polygon fill="none" stroke="black" points="634.11,-662.2 634.11,-681.2 664.11,-681.2 664.11,-662.2 634.11,-662.2"/>
<text text-anchor="start" x="637.11" y="-668.6" font-family="sans-serif" font-size="12.00">ACL</text>
<polygon fill="white" stroke="transparent" points="660.45,-719.5 660.45,-738.5 676.45,-738.5 676.45,-719.5 660.45,-719.5"/>
<polyline fill="none" stroke="black" points="676.45,-719.5 676.45,-738.5 "/>
<text text-anchor="start" x="663.45" y="-725.9" font-family="sans-serif" font-size="12.00">U</text>
<polygon fill="white" stroke="transparent" points="676.45,-719.5 676.45,-738.5 731.45,-738.5 731.45,-719.5 676.45,-719.5"/>
<polygon fill="none" stroke="black" points="676.45,-719.5 676.45,-738.5 731.45,-738.5 731.45,-719.5 676.45,-719.5"/>
<text text-anchor="start" x="679.45" y="-725.9" font-family="sans-serif" font-size="12.00">OHS, PL</text>
</g>
<!-- MarketingAfiliadosContexto -->
<g id="node11" class="node">
<title>MarketingAfiliadosContexto</title>
<polygon fill="none" stroke="black" stroke-width="2" points="2405.84,-347.67 2401.46,-350.35 2396.63,-352.97 2391.36,-355.52 2385.68,-357.98 2379.59,-360.36 2373.12,-362.63 2366.29,-364.79 2359.13,-366.82 2351.65,-368.74 2343.88,-370.51 2335.84,-372.15 2327.56,-373.64 2319.05,-374.97 2310.35,-376.15 2301.48,-377.17 2292.45,-378.03 2283.3,-378.73 2274.05,-379.27 2264.72,-379.63 2255.33,-379.84 2245.91,-379.89 2236.48,-379.77 2227.06,-379.51 2217.68,-379.09 2208.36,-378.52 2199.11,-377.81 2189.95,-376.96 2180.92,-375.99 2172.03,-374.89 2163.29,-373.67 2154.73,-372.34 2146.37,-370.91 2138.22,-369.39 2130.31,-367.78 2122.64,-366.09 2115.24,-364.33 2108.13,-362.5 2101.32,-360.62 2094.82,-358.68 2088.66,-356.71 2082.84,-354.7 2077.39,-352.66 2072.3,-350.6 2067.61,-348.53 2063.32,-346.44 2059.45,-344.35 2056,-342.26 2052.98,-340.18 2050.41,-338.1 2048.3,-336.04 2046.65,-333.99 2045.48,-331.97 2044.78,-329.96 2044.57,-327.98 2044.85,-326.02 2045.62,-324.09 2046.89,-322.2 2048.65,-320.33 2050.91,-318.5 2053.66,-316.69 2056.91,-314.93 2060.64,-313.2 2064.86,-311.51 2069.55,-309.85 2074.71,-308.24 2080.32,-306.66 2086.38,-305.13 2092.86,-303.64 2099.76,-302.2 2107.07,-300.8 2114.75,-299.45 2122.79,-298.16 2131.18,-296.92 2139.88,-295.74 2148.87,-294.62 2158.14,-293.57 2167.64,-292.58 2177.36,-291.67 2187.27,-290.83 2197.34,-290.07 2207.53,-289.4 2217.81,-288.82 2228.16,-288.33 2238.54,-287.94 2248.92,-287.65 2259.27,-287.47 2269.54,-287.4 2279.72,-287.45 2289.77,-287.61 2299.65,-287.9 2309.34,-288.31 2318.79,-288.85 2328,-289.52 2336.91,-290.32 2345.51,-291.26 2353.76,-292.32 2361.64,-293.52 2369.13,-294.86 2376.2,-296.32 2382.84,-297.92 2389.01,-299.64 2394.71,-301.48 2399.91,-303.44 2404.6,-305.52 2408.77,-307.7 2412.41,-309.98 2415.5,-312.36 2418.05,-314.83 2420.04,-317.37 2421.47,-319.98 2422.35,-322.66 2422.67,-325.38 2422.43,-328.14 2421.65,-330.93 2420.32,-333.74 2418.45,-336.56 2416.06,-339.37 2413.15,-342.17 2409.74,-344.94 2405.84,-347.67"/>
<text text-anchor="middle" x="2230.61" y="-327.68" font-family="sans-serif" font-size="16.00">MarketingAfiliadosContexto</text>
</g>
<!-- MarketingAfiliadosContexto&#45;&gt;OrquestadorPagosContexto -->
<g id="edge15" class="edge">
<title>MarketingAfiliadosContexto&#45;&gt;OrquestadorPagosContexto</title>
<path fill="none" stroke="black" stroke-width="2" d="M2117.51,-298.92C2087.77,-289.3 2056.06,-277.83 2027.61,-265.03 2017.25,-260.37 2016.44,-255.44 2005.61,-252.03 1974.76,-242.32 1592.01,-215.75 1348.88,-199.65"/>
<text text-anchor="middle" x="2103.11" y="-255.43" font-family="sans-serif" font-size="12.00"> &#160;&#160;&#160;&#160;&#160;&#160;&#160;&#160;&#160;&#160;&#160;&#160;&#160;&#160;&#160;&#160;&#160;&#160;&#160;&#160;&#160;&#160;&#160;&#160;&#160;&#160;&#160;&#160;&#160;&#160;&#160;&#160;&#160;&#160;&#160;&#160;&#160;&#160;&#160;</text>
<polygon fill="white" stroke="transparent" points="1325.88,-189.65 1325.88,-208.65 1341.88,-208.65 1341.88,-189.65 1325.88,-189.65"/>
<polyline fill="none" stroke="black" points="1341.88,-189.65 1341.88,-208.65 "/>
<text text-anchor="start" x="1328.88" y="-196.05" font-family="sans-serif" font-size="12.00">D</text>
<polygon fill="white" stroke="transparent" points="1341.88,-189.65 1341.88,-208.65 1371.88,-208.65 1371.88,-189.65 1341.88,-189.65"/>
<polygon fill="none" stroke="black" points="1341.88,-189.65 1341.88,-208.65 1371.88,-208.65 1371.88,-189.65 1341.88,-189.65"/>
<text text-anchor="start" x="1344.88" y="-196.05" font-family="sans-serif" font-size="12.00">ACL</text>
<polygon fill="white" stroke="transparent" points="2082.51,-288.92 2082.51,-307.92 2098.51,-307.92 2098.51,-288.92 2082.51,-288.92"/>
<polyline fill="none" stroke="black" points="2098.51,-288.92 2098.51,-307.92 "/>
<text text-anchor="start" x="2085.51" y="-295.32" font-family="sans-serif" font-size="12.00">U</text>
<polygon fill="white" stroke="transparent" points="2098.51,-288.92 2098.51,-307.92 2153.51,-307.92 2153.51,-288.92 2098.51,-288.92"/>
<polygon fill="none" stroke="black" points="2098.51,-288.92 2098.51,-307.92 2153.51,-307.92 2153.51,-288.92 2098.51,-288.92"/>
<text text-anchor="start" x="2101.51" y="-295.32" font-family="sans-serif" font-size="12.00">OHS, PL</text>
</g>
<!-- MarketingAfiliadosContexto&#45;&gt;AnaliticaContexto -->
<g id="edge14" class="edge">
<title>MarketingAfiliadosContexto&#45;&gt;AnaliticaContexto</title>
<path fill="none" stroke="black" stroke-width="2" d="M2211.77,-288.84C2204.21,-275.7 2194.45,-262.01 2182.61,-252.03 2164.8,-237.02 2143.11,-225.17 2121.42,-215.92"/>
<text text-anchor="middle" x="2270.11" y="-255.43" font-family="sans-serif" font-size="12.00"> &#160;&#160;&#160;&#160;&#160;&#160;&#160;&#160;&#160;&#160;&#160;&#160;&#160;&#160;&#160;&#160;&#160;&#160;&#160;&#160;&#160;&#160;&#160;&#160;&#160;&#160;&#160;&#160;&#160;&#160;&#160;&#160;&#160;&#160;&#160;&#160;&#160;&#160;&#160;</text>
<polygon fill="white" stroke="transparent" points="2114.42,-206.92 2114.42,-223.92 2128.42,-223.92 2128.42,-206.92 2114.42,-206.92"/>
<text text-anchor="start" x="2116.42" y="-212.32" font-family="sans-serif" font-size="12.00">D</text>
<polygon fill="white" stroke="transparent" points="2204.77,-279.84 2204.77,-296.84 2218.77,-296.84 2218.77,-279.84 2204.77,-279.84"/>
<text text-anchor="start" x="2206.77" y="-285.24" font-family="sans-serif" font-size="12.00">U</text>
</g>
<!-- MarketingInfluencersContexto -->
<g id="node12" class="node">
<title>MarketingInfluencersContexto</title>
<polygon fill="none" stroke="black" stroke-width="2" points="381.58,-326.42 382.92,-323.58 384.81,-320.76 387.25,-317.99 390.22,-315.28 393.72,-312.63 397.74,-310.05 402.27,-307.56 407.29,-305.17 412.79,-302.88 418.76,-300.7 425.17,-298.64 432.02,-296.71 439.28,-294.91 446.93,-293.25 454.95,-291.73 463.33,-290.36 472.03,-289.14 481.03,-288.07 490.31,-287.16 499.85,-286.39 509.61,-285.78 519.57,-285.32 529.71,-285.02 539.99,-284.86 550.39,-284.84 560.88,-284.97 571.43,-285.24 582.01,-285.63 592.6,-286.16 603.17,-286.81 613.68,-287.57 624.11,-288.44 634.43,-289.42 644.61,-290.5 654.62,-291.67 664.45,-292.92 674.05,-294.25 683.41,-295.66 692.5,-297.13 701.29,-298.66 709.76,-300.25 717.89,-301.88 725.66,-303.56 733.03,-305.27 740.01,-307.02 746.55,-308.8 752.65,-310.61 758.3,-312.44 763.46,-314.28 768.14,-316.14 772.31,-318.01 775.97,-319.9 779.1,-321.79 781.7,-323.68 783.75,-325.58 785.26,-327.49 786.22,-329.39 786.62,-331.3 786.47,-333.2 785.76,-335.1 784.49,-336.99 782.67,-338.88 780.31,-340.77 777.41,-342.64 773.97,-344.51 770.01,-346.36 765.54,-348.2 760.56,-350.03 755.1,-351.83 749.17,-353.62 742.77,-355.37 735.94,-357.1 728.69,-358.8 721.04,-360.46 713.01,-362.08 704.62,-363.65 695.89,-365.17 686.86,-366.64 677.54,-368.04 667.96,-369.37 658.14,-370.63 648.12,-371.81 637.92,-372.9 627.57,-373.9 617.1,-374.8 606.54,-375.6 595.91,-376.28 585.25,-376.85 574.58,-377.3 563.94,-377.61 553.35,-377.8 542.84,-377.85 532.45,-377.75 522.2,-377.52 512.12,-377.13 502.24,-376.6 492.58,-375.92 483.18,-375.09 474.05,-374.1 465.23,-372.96 456.73,-371.68 448.59,-370.24 440.81,-368.67 433.43,-366.95 426.47,-365.1 419.94,-363.12 413.86,-361.01 408.25,-358.79 403.13,-356.46 398.5,-354.03 394.38,-351.51 390.78,-348.91 387.71,-346.23 385.18,-343.49 383.2,-340.71 381.76,-337.88 380.88,-335.03 380.56,-332.16 380.79,-329.29 381.58,-326.42"/>
<text text-anchor="middle" x="583.61" y="-327.68" font-family="sans-serif" font-size="16.00">MarketingInfluencersContexto</text>
</g>
<!-- MarketingInfluencersContexto&#45;&gt;OrquestadorPagosContexto -->
<g id="edge16" class="edge">
<title>MarketingInfluencersContexto&#45;&gt;OrquestadorPagosContexto</title>
<path fill="none" stroke="black" stroke-width="2" d="M620.01,-287.71C633.84,-274.16 650.62,-260.5 668.61,-252.03 720.31,-227.68 852.23,-210.81 964.87,-200.32"/>
<text text-anchor="middle" x="744.11" y="-255.43" font-family="sans-serif" font-size="12.00"> &#160;&#160;&#160;&#160;&#160;&#160;&#160;&#160;&#160;&#160;&#160;&#160;&#160;&#160;&#160;&#160;&#160;&#160;&#160;&#160;&#160;&#160;&#160;&#160;&#160;&#160;&#160;&#160;&#160;&#160;&#160;&#160;&#160;&#160;&#160;&#160;&#160;&#160;&#160;</text>
<polygon fill="white" stroke="transparent" points="941.87,-190.32 941.87,-209.32 957.87,-209.32 957.87,-190.32 941.87,-190.32"/>
<polyline fill="none" stroke="black" points="957.87,-190.32 957.87,-209.32 "/>
<text text-anchor="start" x="944.87" y="-196.72" font-family="sans-serif" font-size="12.00">D</text>
<polygon fill="white" stroke="transparent" points="957.87,-190.32 957.87,-209.32 987.87,-209.32 987.87,-190.32 957.87,-190.32"/>
<polygon fill="none" stroke="black" points="957.87,-190.32 957.87,-209.32 987.87,-209.32 987.87,-190.32 957.87,-190.32"/>
<text text-anchor="start" x="960.87" y="-196.72" font-family="sans-serif" font-size="12.00">ACL</text>
<polygon fill="white" stroke="transparent" points="585.01,-277.71 585.01,-296.71 601.01,-296.71 601.01,-277.71 585.01,-277.71"/>
<polyline fill="none" stroke="black" points="601.01,-277.71 601.01,-296.71 "/>
<text text-anchor="start" x="588.01" y="-284.11" font-family="sans-serif" font-size="12.00">U</text>
<polygon fill="white" stroke="transparent" points="601.01,-277.71 601.01,-296.71 656.01,-296.71 656.01,-277.71 601.01,-277.71"/>
<polygon fill="none" stroke="black" points="601.01,-277.71 601.01,-296.71 656.01,-296.71 656.01,-277.71 601.01,-277.71"/>
<text text-anchor="start" x="604.01" y="-284.11" font-family="sans-serif" font-size="12.00">OHS, PL</text>
</g>
<!-- MarketingInfluencersContexto&#45;&gt;AnaliticaContexto -->
<g id="edge17" class="edge">
<title>MarketingInfluencersContexto&#45;&gt;AnaliticaContexto</title>
<path fill="none" stroke="black" stroke-width="2" d="M696.74,-297.85C759.98,-281.07 840.54,-262.07 913.61,-252.03 1113.23,-224.6 1165.43,-245.32 1366.61,-234.03 1551.17,-223.67 1764.81,-207.35 1895.81,-196.85"/>
<text text-anchor="middle" x="989.11" y="-255.43" font-family="sans-serif" font-size="12.00"> &#160;&#160;&#160;&#160;&#160;&#160;&#160;&#160;&#160;&#160;&#160;&#160;&#160;&#160;&#160;&#160;&#160;&#160;&#160;&#160;&#160;&#160;&#160;&#160;&#160;&#160;&#160;&#160;&#160;&#160;&#160;&#160;&#160;&#160;&#160;&#160;&#160;&#160;&#160;</text>
<polygon fill="white" stroke="transparent" points="1888.81,-187.85 1888.81,-204.85 1902.81,-204.85 1902.81,-187.85 1888.81,-187.85"/>
<text text-anchor="start" x="1890.81" y="-193.25" font-family="sans-serif" font-size="12.00">D</text>
<polygon fill="white" stroke="transparent" points="689.74,-288.85 689.74,-305.85 703.74,-305.85 703.74,-288.85 689.74,-288.85"/>
<text text-anchor="start" x="691.74" y="-294.25" font-family="sans-serif" font-size="12.00">U</text>
</g>
<!-- PlataformaContexto -->
<g id="node13" class="node">
<title>PlataformaContexto</title>
<polygon fill="none" stroke="black" stroke-width="2" points="1300.31,-329.45 1300.6,-326.58 1301.3,-323.73 1302.38,-320.91 1303.86,-318.14 1305.73,-315.42 1307.99,-312.78 1310.62,-310.21 1313.63,-307.73 1317,-305.35 1320.72,-303.08 1324.79,-300.91 1329.2,-298.87 1333.93,-296.96 1338.97,-295.18 1344.31,-293.53 1349.92,-292.03 1355.8,-290.67 1361.94,-289.46 1368.3,-288.4 1374.88,-287.49 1381.66,-286.73 1388.61,-286.12 1395.72,-285.66 1402.97,-285.35 1410.33,-285.18 1417.79,-285.14 1425.33,-285.25 1432.92,-285.49 1440.54,-285.86 1448.18,-286.35 1455.8,-286.95 1463.39,-287.67 1470.93,-288.5 1478.39,-289.43 1485.76,-290.45 1493,-291.56 1500.12,-292.75 1507.07,-294.02 1513.85,-295.36 1520.43,-296.76 1526.8,-298.23 1532.93,-299.74 1538.82,-301.31 1544.44,-302.92 1549.78,-304.57 1554.83,-306.26 1559.57,-307.98 1563.99,-309.73 1568.07,-311.5 1571.82,-313.3 1575.2,-315.12 1578.23,-316.95 1580.88,-318.8 1583.16,-320.66 1585.05,-322.54 1586.56,-324.43 1587.68,-326.32 1588.4,-328.23 1588.73,-330.14 1588.66,-332.06 1588.2,-333.98 1587.35,-335.9 1586.11,-337.83 1584.48,-339.76 1582.48,-341.68 1580.1,-343.6 1577.35,-345.52 1574.25,-347.42 1570.8,-349.32 1567,-351.2 1562.88,-353.06 1558.44,-354.9 1553.69,-356.71 1548.65,-358.49 1543.33,-360.24 1537.75,-361.94 1531.92,-363.6 1525.86,-365.21 1519.58,-366.75 1513.09,-368.24 1506.43,-369.65 1499.6,-370.98 1492.63,-372.23 1485.52,-373.39 1478.31,-374.46 1471.01,-375.41 1463.64,-376.26 1456.21,-376.99 1448.76,-377.6 1441.29,-378.08 1433.83,-378.42 1426.4,-378.63 1419.02,-378.7 1411.7,-378.61 1404.47,-378.38 1397.35,-378 1390.35,-377.46 1383.49,-376.76 1376.8,-375.91 1370.29,-374.9 1363.97,-373.74 1357.87,-372.43 1352,-370.96 1346.38,-369.35 1341.02,-367.6 1335.93,-365.71 1331.14,-363.68 1326.66,-361.54 1322.49,-359.28 1318.65,-356.91 1315.15,-354.44 1312,-351.88 1309.21,-349.24 1306.79,-346.53 1304.74,-343.77 1303.07,-340.95 1301.79,-338.1 1300.9,-335.23 1300.41,-332.34 1300.31,-329.45"/>
<text text-anchor="middle" x="1444.61" y="-327.68" font-family="sans-serif" font-size="16.00">PlataformaContexto</text>
</g>
<!-- PlataformaContexto&#45;&gt;OrquestadorPagosContexto -->
<g id="edge18" class="edge">
<title>PlataformaContexto&#45;&gt;OrquestadorPagosContexto</title>
<path fill="none" stroke="black" stroke-width="2" d="M1342.05,-293.93C1320.13,-285.18 1297.35,-275.36 1276.61,-265.03 1254.47,-254.01 1231.17,-240.31 1210.66,-227.47"/>
<text text-anchor="middle" x="1352.11" y="-255.43" font-family="sans-serif" font-size="12.00"> &#160;&#160;&#160;&#160;&#160;&#160;&#160;&#160;&#160;&#160;&#160;&#160;&#160;&#160;&#160;&#160;&#160;&#160;&#160;&#160;&#160;&#160;&#160;&#160;&#160;&#160;&#160;&#160;&#160;&#160;&#160;&#160;&#160;&#160;&#160;&#160;&#160;&#160;&#160;</text>
<polygon fill="white" stroke="transparent" points="1203.66,-218.47 1203.66,-235.47 1217.66,-235.47 1217.66,-218.47 1203.66,-218.47"/>
<text text-anchor="start" x="1205.66" y="-223.87" font-family="sans-serif" font-size="12.00">D</text>
<polygon fill="white" stroke="transparent" points="1335.05,-284.93 1335.05,-301.93 1349.05,-301.93 1349.05,-284.93 1335.05,-284.93"/>
<text text-anchor="start" x="1337.05" y="-290.33" font-family="sans-serif" font-size="12.00">U</text>
</g>
<!-- PlataformaContexto&#45;&gt;AnaliticaContexto -->
<g id="edge19" class="edge">
<title>PlataformaContexto&#45;&gt;AnaliticaContexto</title>
<path fill="none" stroke="black" stroke-width="2" d="M1445.44,-286.12C1447.91,-273.44 1452.94,-260.71 1462.61,-252.03 1494.02,-223.87 1738.57,-203.87 1892.71,-193.92"/>
<text text-anchor="middle" x="1538.11" y="-255.43" font-family="sans-serif" font-size="12.00"> &#160;&#160;&#160;&#160;&#160;&#160;&#160;&#160;&#160;&#160;&#160;&#160;&#160;&#160;&#160;&#160;&#160;&#160;&#160;&#160;&#160;&#160;&#160;&#160;&#160;&#160;&#160;&#160;&#160;&#160;&#160;&#160;&#160;&#160;&#160;&#160;&#160;&#160;&#160;</text>
<polygon fill="white" stroke="transparent" points="1885.71,-184.92 1885.71,-201.92 1899.71,-201.92 1899.71,-184.92 1885.71,-184.92"/>
<text text-anchor="start" x="1887.71" y="-190.32" font-family="sans-serif" font-size="12.00">D</text>
<polygon fill="white" stroke="transparent" points="1438.44,-277.12 1438.44,-294.12 1452.44,-294.12 1452.44,-277.12 1438.44,-277.12"/>
<text text-anchor="start" x="1440.44" y="-282.52" font-family="sans-serif" font-size="12.00">U</text>
</g>
<!-- ProcesadorPagosExternoContexto -->
<g id="node14" class="node">
<title>ProcesadorPagosExternoContexto</title>
<polygon fill="none" stroke="black" stroke-width="2" points="1029.42,-375.19 1014.85,-375.05 1000.4,-374.79 986.15,-374.42 972.14,-373.92 958.43,-373.31 945.08,-372.58 932.13,-371.73 919.64,-370.78 907.66,-369.72 896.22,-368.55 885.36,-367.28 875.13,-365.9 865.55,-364.44 856.65,-362.88 848.46,-361.23 840.99,-359.5 834.27,-357.7 828.3,-355.82 823.1,-353.87 818.66,-351.86 814.99,-349.79 812.09,-347.67 809.94,-345.51 808.54,-343.31 807.87,-341.07 807.91,-338.81 808.66,-336.53 810.07,-334.23 812.14,-331.92 814.83,-329.62 818.12,-327.32 821.97,-325.03 826.37,-322.76 831.27,-320.51 836.65,-318.3 842.47,-316.12 848.7,-313.99 855.32,-311.9 862.3,-309.87 869.59,-307.9 877.18,-305.99 885.05,-304.16 893.15,-302.4 901.47,-300.72 909.99,-299.13 918.68,-297.63 927.53,-296.23 936.51,-294.92 945.62,-293.71 954.83,-292.61 964.13,-291.61 973.51,-290.73 982.97,-289.95 992.48,-289.3 1002.05,-288.75 1011.66,-288.33 1021.3,-288.03 1030.98,-287.84 1040.68,-287.77 1050.41,-287.83 1060.14,-288 1069.88,-288.29 1079.61,-288.7 1089.33,-289.23 1099.04,-289.87 1108.71,-290.62 1118.35,-291.49 1127.93,-292.46 1137.44,-293.54 1146.87,-294.72 1156.19,-296.01 1165.4,-297.38 1174.46,-298.86 1183.36,-300.41 1192.07,-302.06 1200.56,-303.78 1208.81,-305.57 1216.79,-307.44 1224.47,-309.37 1231.82,-311.36 1238.8,-313.41 1245.38,-315.5 1251.53,-317.64 1257.22,-319.81 1262.41,-322.01 1267.07,-324.24 1271.17,-326.49 1274.67,-328.76 1277.55,-331.03 1279.78,-333.3 1281.34,-335.57 1282.19,-337.82 1282.31,-340.06 1281.7,-342.28 1280.32,-344.47 1278.18,-346.62 1275.25,-348.73 1271.54,-350.8 1267.05,-352.81 1261.76,-354.77 1255.7,-356.66 1248.87,-358.49 1241.28,-360.24 1232.96,-361.92 1223.92,-363.51 1214.2,-365.02 1203.82,-366.44 1192.83,-367.76 1181.25,-368.99 1169.13,-370.11 1156.52,-371.13 1143.46,-372.04 1130,-372.84 1116.2,-373.53 1102.11,-374.1 1087.8,-374.55 1073.31,-374.89 1058.71,-375.11 1044.06,-375.21 1029.42,-375.19"/>
<text text-anchor="middle" x="1043.61" y="-327.68" font-family="sans-serif" font-size="16.00">ProcesadorPagosExternoContexto</text>
</g>
<!-- ProcesadorPagosExternoContexto&#45;&gt;OrquestadorPagosContexto -->
<g id="edge20" class="edge">
<title>ProcesadorPagosExternoContexto&#45;&gt;OrquestadorPagosContexto</title>
<path fill="none" stroke="black" stroke-width="2" d="M1057.67,-287.55C1062.66,-275.48 1068.97,-262.74 1076.61,-252.03 1081.84,-244.7 1088.04,-237.6 1094.57,-230.96"/>
<text text-anchor="middle" x="1152.11" y="-255.43" font-family="sans-serif" font-size="12.00"> &#160;&#160;&#160;&#160;&#160;&#160;&#160;&#160;&#160;&#160;&#160;&#160;&#160;&#160;&#160;&#160;&#160;&#160;&#160;&#160;&#160;&#160;&#160;&#160;&#160;&#160;&#160;&#160;&#160;&#160;&#160;&#160;&#160;&#160;&#160;&#160;&#160;&#160;&#160;</text>
<polygon fill="white" stroke="transparent" points="1071.57,-220.96 1071.57,-239.96 1087.57,-239.96 1087.57,-220.96 1071.57,-220.96"/>
<polyline fill="none" stroke="black" points="1087.57,-220.96 1087.57,-239.96 "/>
<text text-anchor="start" x="1074.57" y="-227.36" font-family="sans-serif" font-size="12.00">D</text>
<polygon fill="white" stroke="transparent" points="1087.57,-220.96 1087.57,-239.96 1117.57,-239.96 1117.57,-220.96 1087.57,-220.96"/>
<polygon fill="none" stroke="black" points="1087.57,-220.96 1087.57,-239.96 1117.57,-239.96 1117.57,-220.96 1087.57,-220.96"/>
<text text-anchor="start" x="1090.57" y="-227.36" font-family="sans-serif" font-size="12.00">ACL</text>
<polygon fill="white" stroke="transparent" points="1022.67,-277.55 1022.67,-296.55 1038.67,-296.55 1038.67,-277.55 1022.67,-277.55"/>
<polyline fill="none" stroke="black" points="1038.67,-277.55 1038.67,-296.55 "/>
<text text-anchor="start" x="1025.67" y="-283.95" font-family="sans-serif" font-size="12.00">U</text>
<polygon fill="white" stroke="transparent" points="1038.67,-277.55 1038.67,-296.55 1093.67,-296.55 1093.67,-277.55 1038.67,-277.55"/>
<polygon fill="none" stroke="black" points="1038.67,-277.55 1038.67,-296.55 1093.67,-296.55 1093.67,-277.55 1038.67,-277.55"/>
<text text-anchor="start" x="1041.67" y="-283.95" font-family="sans-serif" font-size="12.00">OHS, PL</text>
</g>
<!-- ProgramasLealtadContexto -->
<g id="node15" class="node">
<title>ProgramasLealtadContexto</title>
<polygon fill="none" stroke="black" stroke-width="2" points="1742.96,-290.68 1754.11,-289.55 1765.39,-288.53 1776.76,-287.64 1788.15,-286.87 1799.54,-286.24 1810.88,-285.75 1822.12,-285.39 1833.23,-285.17 1844.17,-285.1 1854.9,-285.16 1865.38,-285.37 1875.58,-285.73 1885.47,-286.23 1895.02,-286.87 1904.2,-287.65 1912.99,-288.57 1921.38,-289.62 1929.33,-290.81 1936.85,-292.12 1943.9,-293.56 1950.49,-295.11 1956.6,-296.78 1962.22,-298.55 1967.37,-300.42 1972.02,-302.39 1976.2,-304.44 1979.88,-306.57 1983.1,-308.77 1985.83,-311.04 1988.11,-313.36 1989.93,-315.73 1991.3,-318.13 1992.24,-320.57 1992.75,-323.03 1992.85,-325.5 1992.54,-327.97 1991.85,-330.45 1990.78,-332.91 1989.34,-335.35 1987.55,-337.77 1985.42,-340.15 1982.95,-342.49 1980.16,-344.78 1977.05,-347.02 1973.64,-349.2 1969.93,-351.31 1965.94,-353.35 1961.65,-355.32 1957.09,-357.2 1952.26,-358.99 1947.15,-360.7 1941.78,-362.31 1936.15,-363.83 1930.26,-365.25 1924.12,-366.57 1917.72,-367.79 1911.08,-368.9 1904.19,-369.91 1897.06,-370.81 1889.69,-371.6 1882.1,-372.29 1874.27,-372.87 1866.24,-373.34 1857.99,-373.7 1849.54,-373.96 1840.9,-374.12 1832.09,-374.17 1823.12,-374.12 1814,-373.96 1804.75,-373.71 1795.4,-373.36 1785.95,-372.91 1776.45,-372.36 1766.9,-371.72 1757.33,-370.99 1747.78,-370.16 1738.27,-369.25 1728.84,-368.25 1719.51,-367.17 1710.32,-366 1701.3,-364.76 1692.49,-363.43 1683.92,-362.03 1675.62,-360.56 1667.65,-359.01 1660.02,-357.39 1652.77,-355.71 1645.94,-353.97 1639.57,-352.16 1633.68,-350.3 1628.3,-348.38 1623.47,-346.41 1619.21,-344.39 1615.55,-342.33 1612.51,-340.23 1610.11,-338.1 1608.37,-335.93 1607.31,-333.74 1606.93,-331.53 1607.24,-329.3 1608.25,-327.06 1609.96,-324.81 1612.37,-322.57 1615.48,-320.33 1619.27,-318.1 1623.73,-315.89 1628.85,-313.71 1634.61,-311.56 1640.99,-309.45 1647.97,-307.38 1655.5,-305.37 1663.58,-303.42 1672.15,-301.53 1681.19,-299.71 1690.65,-297.97 1700.51,-296.32 1710.71,-294.76 1721.21,-293.29 1731.98,-291.93 1742.96,-290.68"/>
<text text-anchor="middle" x="1813.61" y="-327.68" font-family="sans-serif" font-size="16.00">ProgramasLealtadContexto</text>
</g>
<!-- ProgramasLealtadContexto&#45;&gt;OrquestadorPagosContexto -->
<g id="edge21" class="edge">
<title>ProgramasLealtadContexto&#45;&gt;OrquestadorPagosContexto</title>
<path fill="none" stroke="black" stroke-width="2" d="M1728.94,-292.2C1693.87,-277.68 1652.39,-262.22 1613.61,-252.03 1525.49,-228.89 1425.66,-213.5 1341.24,-203.51"/>
<text text-anchor="middle" x="1728.11" y="-255.43" font-family="sans-serif" font-size="12.00"> &#160;&#160;&#160;&#160;&#160;&#160;&#160;&#160;&#160;&#160;&#160;&#160;&#160;&#160;&#160;&#160;&#160;&#160;&#160;&#160;&#160;&#160;&#160;&#160;&#160;&#160;&#160;&#160;&#160;&#160;&#160;&#160;&#160;&#160;&#160;&#160;&#160;&#160;&#160;</text>
<polygon fill="white" stroke="transparent" points="1318.24,-193.51 1318.24,-212.51 1334.24,-212.51 1334.24,-193.51 1318.24,-193.51"/>
<polyline fill="none" stroke="black" points="1334.24,-193.51 1334.24,-212.51 "/>
<text text-anchor="start" x="1321.24" y="-199.91" font-family="sans-serif" font-size="12.00">D</text>
<polygon fill="white" stroke="transparent" points="1334.24,-193.51 1334.24,-212.51 1364.24,-212.51 1364.24,-193.51 1334.24,-193.51"/>
<polygon fill="none" stroke="black" points="1334.24,-193.51 1334.24,-212.51 1364.24,-212.51 1364.24,-193.51 1334.24,-193.51"/>
<text text-anchor="start" x="1337.24" y="-199.91" font-family="sans-serif" font-size="12.00">ACL</text>
<polygon fill="white" stroke="transparent" points="1693.94,-282.2 1693.94,-301.2 1709.94,-301.2 1709.94,-282.2 1693.94,-282.2"/>
<polyline fill="none" stroke="black" points="1709.94,-282.2 1709.94,-301.2 "/>
<text text-anchor="start" x="1696.94" y="-288.6" font-family="sans-serif" font-size="12.00">U</text>
<polygon fill="white" stroke="transparent" points="1709.94,-282.2 1709.94,-301.2 1764.94,-301.2 1764.94,-282.2 1709.94,-282.2"/>
<polygon fill="none" stroke="black" points="1709.94,-282.2 1709.94,-301.2 1764.94,-301.2 1764.94,-282.2 1709.94,-282.2"/>
<text text-anchor="start" x="1712.94" y="-288.6" font-family="sans-serif" font-size="12.00">OHS, PL</text>
</g>
<!-- ProgramasLealtadContexto&#45;&gt;AnaliticaContexto -->
<g id="edge22" class="edge">
<title>ProgramasLealtadContexto&#45;&gt;AnaliticaContexto</title>
<path fill="none" stroke="black" stroke-width="2" d="M1830.43,-285.17C1836.59,-273.19 1844.57,-261.09 1854.61,-252.03 1873.72,-234.79 1897.95,-221.83 1921.88,-212.2"/>
<text text-anchor="middle" x="1930.11" y="-255.43" font-family="sans-serif" font-size="12.00"> &#160;&#160;&#160;&#160;&#160;&#160;&#160;&#160;&#160;&#160;&#160;&#160;&#160;&#160;&#160;&#160;&#160;&#160;&#160;&#160;&#160;&#160;&#160;&#160;&#160;&#160;&#160;&#160;&#160;&#160;&#160;&#160;&#160;&#160;&#160;&#160;&#160;&#160;&#160;</text>
<polygon fill="white" stroke="transparent" points="1914.88,-203.2 1914.88,-220.2 1928.88,-220.2 1928.88,-203.2 1914.88,-203.2"/>
<text text-anchor="start" x="1916.88" y="-208.6" font-family="sans-serif" font-size="12.00">D</text>
<polygon fill="white" stroke="transparent" points="1823.43,-276.17 1823.43,-293.17 1837.43,-293.17 1837.43,-276.17 1823.43,-276.17"/>
<text text-anchor="start" x="1825.43" y="-281.57" font-family="sans-serif" font-size="12.00">U</text>
</g>
</g>
</svg>
