<svg width="2000px" height="331px"
 viewBox="0.00 0.00 2372.33 393.04" xmlns="http://www.w3.org/2000/svg" xmlns:xlink="http://www.w3.org/1999/xlink">
<g id="graph0" class="graph" transform="scale(1.0 1.0) rotate(0) translate(4 389.04)">
<title>ContextMapGraph</title>
<polygon fill="white" stroke="transparent" points="-4,4 -4,-389.04 2368.33,-389.04 2368.33,4 -4,4"/>
<!-- AlianzasB2BContexto -->
<g id="node1" class="node">
<title>AlianzasB2BContexto</title>
<polygon fill="none" stroke="black" stroke-width="2" points="243.43,-297.58 252.28,-298.92 260.87,-300.36 269.17,-301.89 277.14,-303.51 284.75,-305.21 291.97,-306.98 298.77,-308.83 305.12,-310.74 310.99,-312.7 316.37,-314.72 321.24,-316.78 325.57,-318.88 329.36,-321.01 332.59,-323.17 335.24,-325.35 337.33,-327.55 338.84,-329.75 339.77,-331.96 340.12,-334.16 339.91,-336.36 339.14,-338.55 337.81,-340.72 335.95,-342.87 333.57,-344.99 330.68,-347.08 327.31,-349.13 323.48,-351.15 319.2,-353.12 314.52,-355.05 309.44,-356.92 304,-358.74 298.22,-360.5 292.14,-362.2 285.77,-363.84 279.16,-365.41 272.33,-366.91 265.3,-368.33 258.1,-369.68 250.77,-370.95 243.32,-372.13 235.79,-373.24 228.2,-374.25 220.57,-375.17 212.92,-376.01 205.28,-376.75 197.66,-377.39 190.08,-377.93 182.57,-378.38 175.13,-378.72 167.77,-378.95 160.52,-379.09 153.39,-379.11 146.37,-379.03 139.49,-378.83 132.74,-378.53 126.15,-378.12 119.7,-377.59 113.41,-376.96 107.28,-376.21 101.32,-375.35 95.53,-374.38 89.91,-373.31 84.47,-372.12 79.2,-370.84 74.12,-369.44 69.22,-367.95 64.52,-366.36 60,-364.68 55.69,-362.9 51.58,-361.04 47.68,-359.1 43.99,-357.08 40.53,-354.99 37.31,-352.83 34.32,-350.61 31.59,-348.33 29.11,-346.01 26.91,-343.65 24.99,-341.25 23.37,-338.83 22.05,-336.39 21.06,-333.93 20.39,-331.48 20.07,-329.03 20.1,-326.59 20.5,-324.17 21.27,-321.78 22.44,-319.43 24,-317.12 25.97,-314.87 28.36,-312.68 31.16,-310.55 34.39,-308.5 38.05,-306.54 42.14,-304.66 46.65,-302.88 51.59,-301.2 56.94,-299.63 62.72,-298.17 68.89,-296.83 75.46,-295.61 82.4,-294.52 89.7,-293.55 97.35,-292.72 105.32,-292.02 113.59,-291.46 122.13,-291.03 130.92,-290.74 139.92,-290.59 149.11,-290.58 158.45,-290.7 167.91,-290.96 177.45,-291.35 187.04,-291.87 196.64,-292.53 206.21,-293.3 215.71,-294.2 225.11,-295.22 234.36,-296.34 243.43,-297.58"/>
<text text-anchor="middle" x="170.04" y="-332.38" font-family="sans-serif" font-size="16.00">AlianzasB2BContexto</text>
</g>
<!-- AnaliticaContexto -->
<g id="node2" class="node">
<title>AnaliticaContexto</title>
<polygon fill="none" stroke="black" stroke-width="2" points="1198.48,-215.94 1193.25,-213.66 1188.35,-211.32 1183.8,-208.93 1179.61,-206.51 1175.81,-204.06 1172.42,-201.58 1169.44,-199.1 1166.89,-196.61 1164.78,-194.12 1163.13,-191.65 1161.94,-189.2 1161.22,-186.78 1160.96,-184.4 1161.18,-182.06 1161.87,-179.77 1163.03,-177.54 1164.65,-175.37 1166.73,-173.27 1169.25,-171.23 1172.21,-169.27 1175.6,-167.39 1179.4,-165.6 1183.58,-163.88 1188.15,-162.26 1193.07,-160.72 1198.32,-159.27 1203.89,-157.91 1209.74,-156.65 1215.86,-155.48 1222.22,-154.4 1228.8,-153.42 1235.56,-152.53 1242.49,-151.73 1249.55,-151.02 1256.73,-150.4 1263.99,-149.88 1271.3,-149.44 1278.65,-149.1 1286.01,-148.84 1293.35,-148.67 1300.65,-148.59 1307.89,-148.59 1315.04,-148.68 1322.09,-148.85 1329.02,-149.11 1335.8,-149.45 1342.43,-149.87 1348.88,-150.38 1355.14,-150.97 1361.2,-151.65 1367.05,-152.4 1372.67,-153.25 1378.06,-154.17 1383.2,-155.18 1388.1,-156.26 1392.74,-157.44 1397.12,-158.69 1401.24,-160.02 1405.09,-161.44 1408.67,-162.93 1411.97,-164.51 1415.01,-166.16 1417.77,-167.88 1420.25,-169.68 1422.47,-171.55 1424.41,-173.49 1426.07,-175.49 1427.47,-177.56 1428.59,-179.68 1429.44,-181.86 1430.03,-184.08 1430.34,-186.35 1430.39,-188.66 1430.17,-191 1429.69,-193.36 1428.94,-195.75 1427.93,-198.14 1426.65,-200.54 1425.1,-202.93 1423.29,-205.32 1421.22,-207.68 1418.88,-210.01 1416.28,-212.31 1413.42,-214.56 1410.29,-216.76 1406.91,-218.89 1403.26,-220.95 1399.36,-222.93 1395.2,-224.83 1390.79,-226.62 1386.14,-228.31 1381.24,-229.89 1376.11,-231.35 1370.74,-232.68 1365.16,-233.88 1359.36,-234.94 1353.35,-235.86 1347.16,-236.63 1340.78,-237.25 1334.24,-237.71 1327.55,-238.02 1320.72,-238.17 1313.77,-238.16 1306.72,-237.98 1299.59,-237.65 1292.4,-237.16 1285.17,-236.51 1277.92,-235.71 1270.67,-234.76 1263.46,-233.66 1256.3,-232.42 1249.22,-231.04 1242.24,-229.53 1235.39,-227.9 1228.7,-226.15 1222.2,-224.3 1215.89,-222.34 1209.83,-220.28 1204.01,-218.15 1198.48,-215.94"/>
<text text-anchor="middle" x="1305.04" y="-186.17" font-family="sans-serif" font-size="16.00">AnaliticaContexto</text>
</g>
<!-- AlianzasB2BContexto&#45;&gt;AnaliticaContexto -->
<g id="edge1" class="edge">
<title>AlianzasB2BContexto&#45;&gt;AnaliticaContexto</title>
<path fill="none" stroke="black" stroke-width="2" d="M262.31,-300.57C316.36,-280.56 376.61,-258.85 390.04,-256.32 531.17,-229.76 893.16,-252.81 1036.04,-238.32 1088.41,-233.01 1145.94,-223.4 1194.3,-214.23"/>
<text text-anchor="middle" x="465.54" y="-259.72" font-family="sans-serif" font-size="12.00"> &#160;&#160;&#160;&#160;&#160;&#160;&#160;&#160;&#160;&#160;&#160;&#160;&#160;&#160;&#160;&#160;&#160;&#160;&#160;&#160;&#160;&#160;&#160;&#160;&#160;&#160;&#160;&#160;&#160;&#160;&#160;&#160;&#160;&#160;&#160;&#160;&#160;&#160;&#160;</text>
<polygon fill="white" stroke="transparent" points="1187.3,-205.23 1187.3,-222.23 1201.3,-222.23 1201.3,-205.23 1187.3,-205.23"/>
<text text-anchor="start" x="1189.3" y="-210.63" font-family="sans-serif" font-size="12.00">D</text>
<polygon fill="white" stroke="transparent" points="255.31,-291.57 255.31,-308.57 269.31,-308.57 269.31,-291.57 255.31,-291.57"/>
<text text-anchor="start" x="257.31" y="-296.97" font-family="sans-serif" font-size="12.00">U</text>
</g>
<!-- PagosContexto -->
<g id="node4" class="node">
<title>PagosContexto</title>
<polygon fill="none" stroke="black" stroke-width="2" points="873.06,-147.09 880.49,-146.44 887.94,-145.9 895.38,-145.49 902.78,-145.21 910.12,-145.06 917.36,-145.04 924.49,-145.15 931.46,-145.4 938.27,-145.77 944.87,-146.28 951.26,-146.91 957.41,-147.68 963.3,-148.57 968.92,-149.59 974.24,-150.74 979.26,-152 983.97,-153.37 988.35,-154.86 992.39,-156.46 996.1,-158.15 999.46,-159.95 1002.48,-161.83 1005.14,-163.8 1007.47,-165.84 1009.45,-167.96 1011.08,-170.14 1012.39,-172.38 1013.36,-174.67 1014.02,-177.01 1014.36,-179.37 1014.4,-181.77 1014.14,-184.18 1013.6,-186.61 1012.79,-189.04 1011.71,-191.46 1010.39,-193.88 1008.82,-196.27 1007.03,-198.64 1005.02,-200.98 1002.8,-203.27 1000.39,-205.52 997.78,-207.71 995,-209.84 992.05,-211.91 988.94,-213.9 985.68,-215.82 982.26,-217.65 978.71,-219.4 975.02,-221.06 971.21,-222.62 967.26,-224.08 963.2,-225.44 959.02,-226.7 954.72,-227.85 950.31,-228.89 945.79,-229.82 941.17,-230.64 936.45,-231.34 931.62,-231.93 926.7,-232.41 921.68,-232.77 916.57,-233.01 911.38,-233.15 906.11,-233.17 900.76,-233.08 895.35,-232.87 889.87,-232.56 884.34,-232.14 878.77,-231.62 873.16,-230.99 867.53,-230.26 861.9,-229.43 856.26,-228.5 850.65,-227.48 845.07,-226.37 839.53,-225.17 834.07,-223.89 828.69,-222.52 823.41,-221.08 818.26,-219.56 813.25,-217.97 808.41,-216.31 803.75,-214.58 799.29,-212.8 795.06,-210.95 791.08,-209.06 787.37,-207.11 783.95,-205.12 780.83,-203.09 778.04,-201.02 775.6,-198.92 773.51,-196.79 771.81,-194.64 770.49,-192.47 769.57,-190.29 769.07,-188.1 768.98,-185.91 769.33,-183.72 770.11,-181.53 771.33,-179.36 772.98,-177.21 775.07,-175.08 777.6,-172.97 780.55,-170.91 783.92,-168.88 787.69,-166.9 791.87,-164.98 796.42,-163.1 801.34,-161.3 806.6,-159.56 812.19,-157.89 818.08,-156.31 824.26,-154.81 830.69,-153.4 837.34,-152.09 844.2,-150.87 851.23,-149.76 858.41,-148.76 865.69,-147.87 873.06,-147.09"/>
<text text-anchor="middle" x="898.04" y="-186.17" font-family="sans-serif" font-size="16.00">PagosContexto</text>
</g>
<!-- AlianzasB2BContexto&#45;&gt;PagosContexto -->
<g id="edge2" class="edge">
<title>AlianzasB2BContexto&#45;&gt;PagosContexto</title>
<path fill="none" stroke="black" stroke-width="2" d="M174.66,-291C178.23,-277.95 184.42,-264.88 195.04,-256.32 238.89,-220.99 581.97,-202.71 772.14,-195.21"/>
<text text-anchor="middle" x="270.54" y="-259.72" font-family="sans-serif" font-size="12.00"> &#160;&#160;&#160;&#160;&#160;&#160;&#160;&#160;&#160;&#160;&#160;&#160;&#160;&#160;&#160;&#160;&#160;&#160;&#160;&#160;&#160;&#160;&#160;&#160;&#160;&#160;&#160;&#160;&#160;&#160;&#160;&#160;&#160;&#160;&#160;&#160;&#160;&#160;&#160;</text>
<polygon fill="white" stroke="transparent" points="749.14,-185.21 749.14,-204.21 765.14,-204.21 765.14,-185.21 749.14,-185.21"/>
<polyline fill="none" stroke="black" points="765.14,-185.21 765.14,-204.21 "/>
<text text-anchor="start" x="752.14" y="-191.61" font-family="sans-serif" font-size="12.00">D</text>
<polygon fill="white" stroke="transparent" points="765.14,-185.21 765.14,-204.21 795.14,-204.21 795.14,-185.21 765.14,-185.21"/>
<polygon fill="none" stroke="black" points="765.14,-185.21 765.14,-204.21 795.14,-204.21 795.14,-185.21 765.14,-185.21"/>
<text text-anchor="start" x="768.14" y="-191.61" font-family="sans-serif" font-size="12.00">ACL</text>
<polygon fill="white" stroke="transparent" points="139.66,-281 139.66,-300 155.66,-300 155.66,-281 139.66,-281"/>
<polyline fill="none" stroke="black" points="155.66,-281 155.66,-300 "/>
<text text-anchor="start" x="142.66" y="-287.4" font-family="sans-serif" font-size="12.00">U</text>
<polygon fill="white" stroke="transparent" points="155.66,-281 155.66,-300 210.66,-300 210.66,-281 155.66,-281"/>
<polygon fill="none" stroke="black" points="155.66,-281 155.66,-300 210.66,-300 210.66,-281 155.66,-281"/>
<text text-anchor="start" x="158.66" y="-287.4" font-family="sans-serif" font-size="12.00">OHS, PL</text>
</g>
<!-- DashboardContexto -->
<g id="node3" class="node">
<title>DashboardContexto</title>
<polygon fill="none" stroke="black" stroke-width="2" points="1222.95,-82.31 1215.11,-80.72 1207.55,-79.04 1200.29,-77.28 1193.37,-75.44 1186.81,-73.53 1180.65,-71.56 1174.9,-69.53 1169.6,-67.45 1164.76,-65.33 1160.41,-63.18 1156.55,-60.99 1153.2,-58.79 1150.39,-56.56 1148.1,-54.33 1146.35,-52.09 1145.15,-49.86 1144.49,-47.63 1144.38,-45.42 1144.8,-43.23 1145.76,-41.06 1147.23,-38.92 1149.22,-36.81 1151.7,-34.74 1154.66,-32.71 1158.09,-30.73 1161.96,-28.8 1166.25,-26.92 1170.93,-25.09 1175.99,-23.33 1181.4,-21.63 1187.13,-19.99 1193.15,-18.42 1199.44,-16.92 1205.97,-15.49 1212.71,-14.13 1219.64,-12.86 1226.72,-11.66 1233.93,-10.54 1241.24,-9.5 1248.64,-8.55 1256.08,-7.69 1263.55,-6.91 1271.03,-6.22 1278.49,-5.63 1285.91,-5.12 1293.28,-4.72 1300.57,-4.4 1307.77,-4.19 1314.87,-4.07 1321.85,-4.06 1328.69,-4.15 1335.4,-4.34 1341.95,-4.63 1348.34,-5.02 1354.56,-5.53 1360.61,-6.13 1366.48,-6.84 1372.16,-7.66 1377.65,-8.58 1382.94,-9.61 1388.05,-10.74 1392.95,-11.97 1397.65,-13.31 1402.15,-14.74 1406.44,-16.27 1410.52,-17.89 1414.39,-19.6 1418.04,-21.4 1421.48,-23.29 1424.7,-25.25 1427.69,-27.29 1430.45,-29.4 1432.98,-31.58 1435.27,-33.81 1437.3,-36.09 1439.09,-38.43 1440.61,-40.8 1441.87,-43.2 1442.84,-45.63 1443.53,-48.08 1443.93,-50.53 1444.03,-52.99 1443.81,-55.44 1443.27,-57.87 1442.4,-60.28 1441.2,-62.66 1439.65,-65 1437.75,-67.3 1435.49,-69.53 1432.87,-71.7 1429.88,-73.8 1426.52,-75.82 1422.79,-77.75 1418.68,-79.59 1414.21,-81.32 1409.36,-82.95 1404.15,-84.46 1398.59,-85.86 1392.67,-87.13 1386.42,-88.27 1379.85,-89.28 1372.96,-90.15 1365.77,-90.89 1358.31,-91.49 1350.6,-91.94 1342.65,-92.25 1334.49,-92.42 1326.15,-92.44 1317.65,-92.32 1309.03,-92.06 1300.31,-91.66 1291.52,-91.12 1282.7,-90.45 1273.89,-89.64 1265.11,-88.71 1256.4,-87.66 1247.79,-86.48 1239.33,-85.2 1231.04,-83.81 1222.95,-82.31"/>
<text text-anchor="middle" x="1305.04" y="-42.51" font-family="sans-serif" font-size="16.00">DashboardContexto</text>
</g>
<!-- AnaliticaContexto&#45;&gt;DashboardContexto -->
<g id="edge3" class="edge">
<title>AnaliticaContexto&#45;&gt;DashboardContexto</title>
<path fill="none" stroke="black" stroke-width="2" d="M1305.04,-148.38C1305.04,-130.72 1305.04,-109.97 1305.04,-91.89"/>
<text text-anchor="middle" x="1380.54" y="-114.03" font-family="sans-serif" font-size="12.00"> &#160;&#160;&#160;&#160;&#160;&#160;&#160;&#160;&#160;&#160;&#160;&#160;&#160;&#160;&#160;&#160;&#160;&#160;&#160;&#160;&#160;&#160;&#160;&#160;&#160;&#160;&#160;&#160;&#160;&#160;&#160;&#160;&#160;&#160;&#160;&#160;&#160;&#160;&#160;</text>
<polygon fill="white" stroke="transparent" points="1282.04,-81.89 1282.04,-100.89 1298.04,-100.89 1298.04,-81.89 1282.04,-81.89"/>
<polyline fill="none" stroke="black" points="1298.04,-81.89 1298.04,-100.89 "/>
<text text-anchor="start" x="1285.04" y="-88.29" font-family="sans-serif" font-size="12.00">D</text>
<polygon fill="white" stroke="transparent" points="1298.04,-81.89 1298.04,-100.89 1328.04,-100.89 1328.04,-81.89 1298.04,-81.89"/>
<polygon fill="none" stroke="black" points="1298.04,-81.89 1298.04,-100.89 1328.04,-100.89 1328.04,-81.89 1298.04,-81.89"/>
<text text-anchor="start" x="1301.04" y="-88.29" font-family="sans-serif" font-size="12.00">ACL</text>
<polygon fill="white" stroke="transparent" points="1270.04,-138.38 1270.04,-157.38 1286.04,-157.38 1286.04,-138.38 1270.04,-138.38"/>
<polyline fill="none" stroke="black" points="1286.04,-138.38 1286.04,-157.38 "/>
<text text-anchor="start" x="1273.04" y="-144.78" font-family="sans-serif" font-size="12.00">U</text>
<polygon fill="white" stroke="transparent" points="1286.04,-138.38 1286.04,-157.38 1341.04,-157.38 1341.04,-138.38 1286.04,-138.38"/>
<polygon fill="none" stroke="black" points="1286.04,-138.38 1286.04,-157.38 1341.04,-157.38 1341.04,-138.38 1286.04,-138.38"/>
<text text-anchor="start" x="1289.04" y="-144.78" font-family="sans-serif" font-size="12.00">OHS, PL</text>
</g>
<!-- MarketingAfiliadosContexto -->
<g id="node5" class="node">
<title>MarketingAfiliadosContexto</title>
<polygon fill="none" stroke="black" stroke-width="2" points="529.44,-379.41 517.26,-378.97 505.25,-378.42 493.44,-377.75 481.89,-376.97 470.66,-376.07 459.77,-375.07 449.27,-373.97 439.21,-372.76 429.62,-371.46 420.53,-370.06 411.99,-368.57 404.01,-366.99 396.62,-365.34 389.85,-363.6 383.7,-361.79 378.21,-359.92 373.38,-357.98 369.21,-355.99 365.72,-353.94 362.89,-351.85 360.74,-349.72 359.25,-347.55 358.42,-345.35 358.24,-343.13 358.68,-340.89 359.74,-338.64 361.39,-336.38 363.61,-334.12 366.39,-331.87 369.69,-329.63 373.48,-327.4 377.75,-325.21 382.47,-323.03 387.59,-320.9 393.11,-318.8 398.98,-316.75 405.18,-314.76 411.68,-312.82 418.45,-310.94 425.47,-309.12 432.71,-307.38 440.13,-305.72 447.73,-304.14 455.48,-302.64 463.35,-301.23 471.33,-299.91 479.4,-298.69 487.53,-297.57 495.72,-296.56 503.96,-295.65 512.22,-294.85 520.5,-294.16 528.79,-293.59 537.08,-293.13 545.36,-292.78 553.62,-292.56 561.87,-292.45 570.08,-292.46 578.26,-292.6 586.4,-292.85 594.5,-293.22 602.55,-293.71 610.55,-294.32 618.48,-295.04 626.34,-295.88 634.13,-296.83 641.83,-297.89 649.44,-299.06 656.95,-300.33 664.34,-301.7 671.59,-303.17 678.71,-304.73 685.66,-306.38 692.43,-308.11 699.01,-309.93 705.37,-311.82 711.49,-313.77 717.36,-315.8 722.94,-317.88 728.21,-320.01 733.15,-322.19 737.74,-324.41 741.95,-326.66 745.75,-328.94 749.12,-331.24 752.03,-333.56 754.46,-335.88 756.38,-338.21 757.78,-340.53 758.63,-342.84 758.91,-345.12 758.61,-347.39 757.71,-349.62 756.2,-351.81 754.06,-353.96 751.29,-356.06 747.88,-358.11 743.83,-360.09 739.15,-362 733.83,-363.84 727.88,-365.6 721.32,-367.28 714.15,-368.87 706.41,-370.37 698.1,-371.77 689.25,-373.08 679.9,-374.27 670.07,-375.37 659.79,-376.35 649.1,-377.22 638.05,-377.97 626.66,-378.61 615,-379.13 603.1,-379.53 591.01,-379.81 578.77,-379.97 566.45,-380.01 554.09,-379.93 541.73,-379.73 529.44,-379.41"/>
<text text-anchor="middle" x="561.04" y="-332.38" font-family="sans-serif" font-size="16.00">MarketingAfiliadosContexto</text>
</g>
<!-- MarketingAfiliadosContexto&#45;&gt;AnaliticaContexto -->
<g id="edge4" class="edge">
<title>MarketingAfiliadosContexto&#45;&gt;AnaliticaContexto</title>
<path fill="none" stroke="black" stroke-width="2" d="M638.9,-297.42C676.96,-279.63 718.84,-261.24 739.04,-256.32 867.53,-225.04 904.71,-253.81 1036.04,-238.32 1087.84,-232.21 1144.79,-222.61 1192.9,-213.65"/>
<text text-anchor="middle" x="814.54" y="-259.72" font-family="sans-serif" font-size="12.00"> &#160;&#160;&#160;&#160;&#160;&#160;&#160;&#160;&#160;&#160;&#160;&#160;&#160;&#160;&#160;&#160;&#160;&#160;&#160;&#160;&#160;&#160;&#160;&#160;&#160;&#160;&#160;&#160;&#160;&#160;&#160;&#160;&#160;&#160;&#160;&#160;&#160;&#160;&#160;</text>
<polygon fill="white" stroke="transparent" points="1185.9,-204.65 1185.9,-221.65 1199.9,-221.65 1199.9,-204.65 1185.9,-204.65"/>
<text text-anchor="start" x="1187.9" y="-210.05" font-family="sans-serif" font-size="12.00">D</text>
<polygon fill="white" stroke="transparent" points="631.9,-288.42 631.9,-305.42 645.9,-305.42 645.9,-288.42 631.9,-288.42"/>
<text text-anchor="start" x="633.9" y="-293.82" font-family="sans-serif" font-size="12.00">U</text>
</g>
<!-- MarketingAfiliadosContexto&#45;&gt;PagosContexto -->
<g id="edge5" class="edge">
<title>MarketingAfiliadosContexto&#45;&gt;PagosContexto</title>
<path fill="none" stroke="black" stroke-width="2" d="M544.22,-292.82C541.89,-279.87 542.67,-266.41 551.04,-256.32 579.36,-222.17 686.6,-205.75 774.45,-197.92"/>
<text text-anchor="middle" x="626.54" y="-259.72" font-family="sans-serif" font-size="12.00"> &#160;&#160;&#160;&#160;&#160;&#160;&#160;&#160;&#160;&#160;&#160;&#160;&#160;&#160;&#160;&#160;&#160;&#160;&#160;&#160;&#160;&#160;&#160;&#160;&#160;&#160;&#160;&#160;&#160;&#160;&#160;&#160;&#160;&#160;&#160;&#160;&#160;&#160;&#160;</text>
<polygon fill="white" stroke="transparent" points="751.45,-187.92 751.45,-206.92 767.45,-206.92 767.45,-187.92 751.45,-187.92"/>
<polyline fill="none" stroke="black" points="767.45,-187.92 767.45,-206.92 "/>
<text text-anchor="start" x="754.45" y="-194.32" font-family="sans-serif" font-size="12.00">D</text>
<polygon fill="white" stroke="transparent" points="767.45,-187.92 767.45,-206.92 797.45,-206.92 797.45,-187.92 767.45,-187.92"/>
<polygon fill="none" stroke="black" points="767.45,-187.92 767.45,-206.92 797.45,-206.92 797.45,-187.92 767.45,-187.92"/>
<text text-anchor="start" x="770.45" y="-194.32" font-family="sans-serif" font-size="12.00">ACL</text>
<polygon fill="white" stroke="transparent" points="509.22,-282.82 509.22,-301.82 525.22,-301.82 525.22,-282.82 509.22,-282.82"/>
<polyline fill="none" stroke="black" points="525.22,-282.82 525.22,-301.82 "/>
<text text-anchor="start" x="512.22" y="-289.22" font-family="sans-serif" font-size="12.00">U</text>
<polygon fill="white" stroke="transparent" points="525.22,-282.82 525.22,-301.82 580.22,-301.82 580.22,-282.82 525.22,-282.82"/>
<polygon fill="none" stroke="black" points="525.22,-282.82 525.22,-301.82 580.22,-301.82 580.22,-282.82 525.22,-282.82"/>
<text text-anchor="start" x="528.22" y="-289.22" font-family="sans-serif" font-size="12.00">OHS, PL</text>
</g>
<!-- MarketingInfluencersContexto -->
<g id="node6" class="node">
<title>MarketingInfluencersContexto</title>
<polygon fill="none" stroke="black" stroke-width="2" points="1151.93,-365.5 1143.25,-367.69 1134.21,-369.78 1124.83,-371.76 1115.17,-373.63 1105.24,-375.39 1095.09,-377.01 1084.76,-378.51 1074.27,-379.86 1063.66,-381.07 1052.98,-382.12 1042.25,-383.03 1031.5,-383.77 1020.76,-384.35 1010.08,-384.77 999.47,-385.02 988.96,-385.11 978.59,-385.04 968.37,-384.8 958.33,-384.41 948.5,-383.85 938.88,-383.14 929.51,-382.28 920.39,-381.27 911.55,-380.12 903,-378.84 894.75,-377.43 886.82,-375.9 879.21,-374.25 871.95,-372.5 865.02,-370.65 858.45,-368.71 852.24,-366.69 846.4,-364.6 840.94,-362.44 835.85,-360.23 831.15,-357.97 826.84,-355.68 822.92,-353.35 819.4,-351.01 816.28,-348.65 813.57,-346.28 811.27,-343.92 809.38,-341.57 807.91,-339.23 806.87,-336.92 806.25,-334.64 806.06,-332.39 806.31,-330.18 807,-328.01 808.13,-325.89 809.7,-323.82 811.72,-321.81 814.19,-319.86 817.12,-317.97 820.5,-316.15 824.33,-314.39 828.62,-312.7 833.36,-311.07 838.56,-309.52 844.2,-308.04 850.28,-306.63 856.81,-305.3 863.76,-304.03 871.13,-302.85 878.92,-301.73 887.1,-300.69 895.66,-299.73 904.59,-298.84 913.87,-298.03 923.48,-297.3 933.39,-296.64 943.59,-296.06 954.05,-295.56 964.73,-295.14 975.62,-294.81 986.67,-294.55 997.87,-294.38 1009.16,-294.3 1020.53,-294.3 1031.92,-294.39 1043.31,-294.57 1054.65,-294.84 1065.91,-295.21 1077.04,-295.67 1088.01,-296.23 1098.78,-296.89 1109.3,-297.65 1119.54,-298.51 1129.46,-299.47 1139.02,-300.53 1148.18,-301.69 1156.91,-302.96 1165.17,-304.33 1172.93,-305.8 1180.16,-307.37 1186.83,-309.04 1192.91,-310.81 1198.39,-312.67 1203.23,-314.62 1207.43,-316.65 1210.96,-318.77 1213.81,-320.97 1215.97,-323.24 1217.44,-325.57 1218.21,-327.97 1218.28,-330.42 1217.64,-332.91 1216.32,-335.45 1214.31,-338.01 1211.62,-340.59 1208.28,-343.19 1204.29,-345.79 1199.67,-348.38 1194.45,-350.96 1188.65,-353.5 1182.3,-356.02 1175.42,-358.48 1168.04,-360.89 1160.2,-363.24 1151.93,-365.5"/>
<text text-anchor="middle" x="1000.04" y="-332.38" font-family="sans-serif" font-size="16.00">MarketingInfluencersContexto</text>
</g>
<!-- MarketingInfluencersContexto&#45;&gt;AnaliticaContexto -->
<g id="edge7" class="edge">
<title>MarketingInfluencersContexto&#45;&gt;AnaliticaContexto</title>
<path fill="none" stroke="black" stroke-width="2" d="M1030.24,-294.28C1042.22,-280.51 1056.97,-266.16 1073.04,-256.32 1107.48,-235.24 1148.92,-220.77 1187.19,-210.91"/>
<text text-anchor="middle" x="1148.54" y="-259.72" font-family="sans-serif" font-size="12.00"> &#160;&#160;&#160;&#160;&#160;&#160;&#160;&#160;&#160;&#160;&#160;&#160;&#160;&#160;&#160;&#160;&#160;&#160;&#160;&#160;&#160;&#160;&#160;&#160;&#160;&#160;&#160;&#160;&#160;&#160;&#160;&#160;&#160;&#160;&#160;&#160;&#160;&#160;&#160;</text>
<polygon fill="white" stroke="transparent" points="1180.19,-201.91 1180.19,-218.91 1194.19,-218.91 1194.19,-201.91 1180.19,-201.91"/>
<text text-anchor="start" x="1182.19" y="-207.31" font-family="sans-serif" font-size="12.00">D</text>
<polygon fill="white" stroke="transparent" points="1023.24,-285.28 1023.24,-302.28 1037.24,-302.28 1037.24,-285.28 1023.24,-285.28"/>
<text text-anchor="start" x="1025.24" y="-290.68" font-family="sans-serif" font-size="12.00">U</text>
</g>
<!-- MarketingInfluencersContexto&#45;&gt;PagosContexto -->
<g id="edge6" class="edge">
<title>MarketingInfluencersContexto&#45;&gt;PagosContexto</title>
<path fill="none" stroke="black" stroke-width="2" d="M922.75,-297.02C913.28,-289.16 904.89,-279.96 899.04,-269.32 893.01,-258.36 891.18,-245.15 891.32,-232.74"/>
<text text-anchor="middle" x="974.54" y="-259.72" font-family="sans-serif" font-size="12.00"> &#160;&#160;&#160;&#160;&#160;&#160;&#160;&#160;&#160;&#160;&#160;&#160;&#160;&#160;&#160;&#160;&#160;&#160;&#160;&#160;&#160;&#160;&#160;&#160;&#160;&#160;&#160;&#160;&#160;&#160;&#160;&#160;&#160;&#160;&#160;&#160;&#160;&#160;&#160;</text>
<polygon fill="white" stroke="transparent" points="868.32,-222.74 868.32,-241.74 884.32,-241.74 884.32,-222.74 868.32,-222.74"/>
<polyline fill="none" stroke="black" points="884.32,-222.74 884.32,-241.74 "/>
<text text-anchor="start" x="871.32" y="-229.14" font-family="sans-serif" font-size="12.00">D</text>
<polygon fill="white" stroke="transparent" points="884.32,-222.74 884.32,-241.74 914.32,-241.74 914.32,-222.74 884.32,-222.74"/>
<polygon fill="none" stroke="black" points="884.32,-222.74 884.32,-241.74 914.32,-241.74 914.32,-222.74 884.32,-222.74"/>
<text text-anchor="start" x="887.32" y="-229.14" font-family="sans-serif" font-size="12.00">ACL</text>
<polygon fill="white" stroke="transparent" points="887.75,-287.02 887.75,-306.02 903.75,-306.02 903.75,-287.02 887.75,-287.02"/>
<polyline fill="none" stroke="black" points="903.75,-287.02 903.75,-306.02 "/>
<text text-anchor="start" x="890.75" y="-293.42" font-family="sans-serif" font-size="12.00">U</text>
<polygon fill="white" stroke="transparent" points="903.75,-287.02 903.75,-306.02 958.75,-306.02 958.75,-287.02 903.75,-287.02"/>
<polygon fill="none" stroke="black" points="903.75,-287.02 903.75,-306.02 958.75,-306.02 958.75,-287.02 903.75,-287.02"/>
<text text-anchor="start" x="906.75" y="-293.42" font-family="sans-serif" font-size="12.00">OHS, PL</text>
</g>
<!-- PlataformaContexto -->
<g id="node7" class="node">
<title>PlataformaContexto</title>
<polygon fill="none" stroke="black" stroke-width="2" points="1365.14,-293.3 1374.32,-292.64 1383.54,-292.11 1392.74,-291.7 1401.9,-291.42 1410.98,-291.27 1419.95,-291.25 1428.76,-291.36 1437.39,-291.6 1445.81,-291.98 1453.98,-292.48 1461.88,-293.12 1469.49,-293.89 1476.78,-294.78 1483.73,-295.8 1490.32,-296.94 1496.53,-298.2 1502.35,-299.58 1507.77,-301.07 1512.77,-302.66 1517.36,-304.36 1521.52,-306.15 1525.25,-308.04 1528.55,-310.01 1531.42,-312.05 1533.87,-314.17 1535.9,-316.35 1537.51,-318.59 1538.72,-320.88 1539.53,-323.21 1539.95,-325.58 1540,-327.98 1539.68,-330.39 1539.01,-332.81 1538.01,-335.24 1536.68,-337.67 1535.04,-340.08 1533.1,-342.48 1530.88,-344.85 1528.39,-347.18 1525.65,-349.48 1522.66,-351.72 1519.44,-353.92 1516,-356.05 1512.35,-358.12 1508.5,-360.11 1504.46,-362.03 1500.24,-363.86 1495.85,-365.61 1491.28,-367.27 1486.56,-368.83 1481.68,-370.29 1476.66,-371.65 1471.48,-372.91 1466.16,-374.06 1460.71,-375.1 1455.12,-376.03 1449.4,-376.84 1443.56,-377.55 1437.59,-378.14 1431.49,-378.61 1425.29,-378.97 1418.97,-379.22 1412.55,-379.35 1406.02,-379.37 1399.41,-379.28 1392.71,-379.08 1385.93,-378.77 1379.09,-378.35 1372.2,-377.82 1365.26,-377.19 1358.3,-376.46 1351.32,-375.64 1344.35,-374.71 1337.41,-373.69 1330.5,-372.58 1323.65,-371.38 1316.89,-370.1 1310.24,-368.73 1303.71,-367.29 1297.33,-365.77 1291.14,-364.18 1285.14,-362.52 1279.38,-360.79 1273.87,-359.01 1268.64,-357.16 1263.71,-355.27 1259.12,-353.32 1254.89,-351.33 1251.03,-349.3 1247.58,-347.23 1244.56,-345.13 1241.98,-343 1239.86,-340.85 1238.23,-338.68 1237.1,-336.5 1236.47,-334.31 1236.37,-332.12 1236.8,-329.92 1237.77,-327.74 1239.27,-325.57 1241.32,-323.41 1243.91,-321.28 1247.03,-319.18 1250.68,-317.12 1254.85,-315.09 1259.52,-313.11 1264.68,-311.18 1270.31,-309.31 1276.4,-307.5 1282.91,-305.77 1289.83,-304.1 1297.12,-302.52 1304.76,-301.02 1312.71,-299.61 1320.95,-298.29 1329.43,-297.08 1338.13,-295.97 1347,-294.96 1356.02,-294.07 1365.14,-293.3"/>
<text text-anchor="middle" x="1396.04" y="-332.38" font-family="sans-serif" font-size="16.00">PlataformaContexto</text>
</g>
<!-- PlataformaContexto&#45;&gt;AnaliticaContexto -->
<g id="edge8" class="edge">
<title>PlataformaContexto&#45;&gt;AnaliticaContexto</title>
<path fill="none" stroke="black" stroke-width="2" d="M1404.69,-291.28C1405.06,-279.39 1403.53,-266.89 1398.04,-256.32 1393.13,-246.86 1386.15,-238.49 1378.2,-231.16"/>
<text text-anchor="middle" x="1477.54" y="-259.72" font-family="sans-serif" font-size="12.00"> &#160;&#160;&#160;&#160;&#160;&#160;&#160;&#160;&#160;&#160;&#160;&#160;&#160;&#160;&#160;&#160;&#160;&#160;&#160;&#160;&#160;&#160;&#160;&#160;&#160;&#160;&#160;&#160;&#160;&#160;&#160;&#160;&#160;&#160;&#160;&#160;&#160;&#160;&#160;</text>
<polygon fill="white" stroke="transparent" points="1371.2,-222.16 1371.2,-239.16 1385.2,-239.16 1385.2,-222.16 1371.2,-222.16"/>
<text text-anchor="start" x="1373.2" y="-227.56" font-family="sans-serif" font-size="12.00">D</text>
<polygon fill="white" stroke="transparent" points="1397.69,-282.28 1397.69,-299.28 1411.69,-299.28 1411.69,-282.28 1397.69,-282.28"/>
<text text-anchor="start" x="1399.69" y="-287.68" font-family="sans-serif" font-size="12.00">U</text>
</g>
<!-- PlataformaContexto&#45;&gt;PagosContexto -->
<g id="edge9" class="edge">
<title>PlataformaContexto&#45;&gt;PagosContexto</title>
<path fill="none" stroke="black" stroke-width="2" d="M1307.26,-300.42C1285.85,-291.09 1263.31,-280.48 1243.04,-269.32 1234.08,-264.39 1233.47,-260.3 1224.04,-256.32 1203.13,-247.51 1084.91,-224.86 996.81,-208.71"/>
<text text-anchor="middle" x="1318.54" y="-259.72" font-family="sans-serif" font-size="12.00"> &#160;&#160;&#160;&#160;&#160;&#160;&#160;&#160;&#160;&#160;&#160;&#160;&#160;&#160;&#160;&#160;&#160;&#160;&#160;&#160;&#160;&#160;&#160;&#160;&#160;&#160;&#160;&#160;&#160;&#160;&#160;&#160;&#160;&#160;&#160;&#160;&#160;&#160;&#160;</text>
<polygon fill="white" stroke="transparent" points="989.81,-199.71 989.81,-216.71 1003.81,-216.71 1003.81,-199.71 989.81,-199.71"/>
<text text-anchor="start" x="991.81" y="-205.11" font-family="sans-serif" font-size="12.00">D</text>
<polygon fill="white" stroke="transparent" points="1300.26,-291.42 1300.26,-308.42 1314.26,-308.42 1314.26,-291.42 1300.26,-291.42"/>
<text text-anchor="start" x="1302.26" y="-296.82" font-family="sans-serif" font-size="12.00">U</text>
</g>
<!-- ProgramasLealtadContexto -->
<g id="node8" class="node">
<title>ProgramasLealtadContexto</title>
<polygon fill="none" stroke="black" stroke-width="2" points="1593.91,-351.42 1589.52,-348.75 1585.63,-346.06 1582.28,-343.35 1579.46,-340.64 1577.2,-337.93 1575.51,-335.24 1574.4,-332.58 1573.87,-329.95 1573.93,-327.37 1574.59,-324.84 1575.85,-322.38 1577.7,-319.99 1580.14,-317.67 1583.17,-315.45 1586.77,-313.31 1590.95,-311.27 1595.67,-309.33 1600.94,-307.49 1606.72,-305.77 1613.01,-304.15 1619.78,-302.66 1627,-301.27 1634.65,-300.01 1642.71,-298.86 1651.15,-297.83 1659.93,-296.92 1669.02,-296.12 1678.4,-295.44 1688.03,-294.88 1697.87,-294.42 1707.89,-294.07 1718.06,-293.83 1728.35,-293.7 1738.71,-293.66 1749.11,-293.72 1759.51,-293.88 1769.89,-294.13 1780.22,-294.47 1790.44,-294.89 1800.55,-295.4 1810.5,-295.98 1820.26,-296.65 1829.81,-297.38 1839.12,-298.19 1848.17,-299.07 1856.92,-300.02 1865.36,-301.03 1873.47,-302.11 1881.23,-303.25 1888.62,-304.45 1895.62,-305.72 1902.23,-307.04 1908.42,-308.42 1914.19,-309.85 1919.52,-311.35 1924.41,-312.9 1928.86,-314.5 1932.86,-316.16 1936.4,-317.87 1939.48,-319.64 1942.1,-321.45 1944.27,-323.32 1945.97,-325.23 1947.22,-327.18 1948.02,-329.18 1948.37,-331.22 1948.28,-333.3 1947.75,-335.42 1946.78,-337.56 1945.39,-339.73 1943.57,-341.92 1941.35,-344.13 1938.72,-346.36 1935.69,-348.59 1932.27,-350.82 1928.48,-353.04 1924.31,-355.25 1919.78,-357.44 1914.9,-359.6 1909.67,-361.72 1904.11,-363.81 1898.23,-365.84 1892.03,-367.81 1885.54,-369.71 1878.75,-371.54 1871.69,-373.28 1864.36,-374.93 1856.78,-376.48 1848.96,-377.92 1840.91,-379.25 1832.65,-380.45 1824.2,-381.52 1815.57,-382.45 1806.77,-383.24 1797.83,-383.89 1788.76,-384.38 1779.59,-384.71 1770.33,-384.89 1761.01,-384.9 1751.64,-384.75 1742.25,-384.43 1732.86,-383.95 1723.5,-383.31 1714.19,-382.5 1704.95,-381.53 1695.82,-380.4 1686.82,-379.12 1677.98,-377.68 1669.31,-376.11 1660.87,-374.39 1652.65,-372.54 1644.71,-370.57 1637.06,-368.49 1629.73,-366.29 1622.74,-364 1616.13,-361.62 1609.92,-359.16 1604.13,-356.64 1598.78,-354.05 1593.91,-351.42"/>
<text text-anchor="middle" x="1768.04" y="-332.38" font-family="sans-serif" font-size="16.00">ProgramasLealtadContexto</text>
</g>
<!-- ProgramasLealtadContexto&#45;&gt;AnaliticaContexto -->
<g id="edge10" class="edge">
<title>ProgramasLealtadContexto&#45;&gt;AnaliticaContexto</title>
<path fill="none" stroke="black" stroke-width="2" d="M1765.45,-293.9C1762.5,-280.1 1756.81,-265.82 1746.04,-256.32 1700.23,-215.9 1543.2,-200.48 1429.55,-194.6"/>
<text text-anchor="middle" x="1830.54" y="-259.72" font-family="sans-serif" font-size="12.00"> &#160;&#160;&#160;&#160;&#160;&#160;&#160;&#160;&#160;&#160;&#160;&#160;&#160;&#160;&#160;&#160;&#160;&#160;&#160;&#160;&#160;&#160;&#160;&#160;&#160;&#160;&#160;&#160;&#160;&#160;&#160;&#160;&#160;&#160;&#160;&#160;&#160;&#160;&#160;</text>
<polygon fill="white" stroke="transparent" points="1422.55,-185.6 1422.55,-202.6 1436.55,-202.6 1436.55,-185.6 1422.55,-185.6"/>
<text text-anchor="start" x="1424.55" y="-191" font-family="sans-serif" font-size="12.00">D</text>
<polygon fill="white" stroke="transparent" points="1758.45,-284.9 1758.45,-301.9 1772.45,-301.9 1772.45,-284.9 1758.45,-284.9"/>
<text text-anchor="start" x="1760.45" y="-290.3" font-family="sans-serif" font-size="12.00">U</text>
</g>
<!-- ProgramasLealtadContexto&#45;&gt;PagosContexto -->
<g id="edge11" class="edge">
<title>ProgramasLealtadContexto&#45;&gt;PagosContexto</title>
<path fill="none" stroke="black" stroke-width="2" d="M1663.63,-296.51C1639.76,-287.62 1614.51,-278.17 1591.04,-269.32 1575.9,-263.61 1572.88,-259.61 1557.04,-256.32 1380.63,-219.68 1331.04,-258.88 1152.04,-238.32 1098.79,-232.2 1039.9,-221.48 992.25,-211.78"/>
<text text-anchor="middle" x="1666.54" y="-259.72" font-family="sans-serif" font-size="12.00"> &#160;&#160;&#160;&#160;&#160;&#160;&#160;&#160;&#160;&#160;&#160;&#160;&#160;&#160;&#160;&#160;&#160;&#160;&#160;&#160;&#160;&#160;&#160;&#160;&#160;&#160;&#160;&#160;&#160;&#160;&#160;&#160;&#160;&#160;&#160;&#160;&#160;&#160;&#160;</text>
<polygon fill="white" stroke="transparent" points="969.25,-201.78 969.25,-220.78 985.25,-220.78 985.25,-201.78 969.25,-201.78"/>
<polyline fill="none" stroke="black" points="985.25,-201.78 985.25,-220.78 "/>
<text text-anchor="start" x="972.25" y="-208.18" font-family="sans-serif" font-size="12.00">D</text>
<polygon fill="white" stroke="transparent" points="985.25,-201.78 985.25,-220.78 1015.25,-220.78 1015.25,-201.78 985.25,-201.78"/>
<polygon fill="none" stroke="black" points="985.25,-201.78 985.25,-220.78 1015.25,-220.78 1015.25,-201.78 985.25,-201.78"/>
<text text-anchor="start" x="988.25" y="-208.18" font-family="sans-serif" font-size="12.00">ACL</text>
<polygon fill="white" stroke="transparent" points="1628.63,-286.51 1628.63,-305.51 1644.63,-305.51 1644.63,-286.51 1628.63,-286.51"/>
<polyline fill="none" stroke="black" points="1644.63,-286.51 1644.63,-305.51 "/>
<text text-anchor="start" x="1631.63" y="-292.91" font-family="sans-serif" font-size="12.00">U</text>
<polygon fill="white" stroke="transparent" points="1644.63,-286.51 1644.63,-305.51 1699.63,-305.51 1699.63,-286.51 1644.63,-286.51"/>
<polygon fill="none" stroke="black" points="1644.63,-286.51 1644.63,-305.51 1699.63,-305.51 1699.63,-286.51 1644.63,-286.51"/>
<text text-anchor="start" x="1647.63" y="-292.91" font-family="sans-serif" font-size="12.00">OHS, PL</text>
</g>
<!-- TrackerMonolitoContexto -->
<g id="node9" class="node">
<title>TrackerMonolitoContexto</title>
<polygon fill="none" stroke="black" stroke-width="2" points="2081.43,-373.52 2071.74,-372.06 2062.36,-370.5 2053.32,-368.85 2044.68,-367.11 2036.45,-365.31 2028.68,-363.43 2021.4,-361.49 2014.64,-359.5 2008.42,-357.45 2002.78,-355.36 1997.72,-353.24 1993.27,-351.08 1989.44,-348.9 1986.25,-346.7 1983.7,-344.49 1981.81,-342.27 1980.56,-340.05 1979.97,-337.84 1980.02,-335.64 1980.71,-333.45 1982.03,-331.29 1983.97,-329.15 1986.51,-327.03 1989.63,-324.96 1993.31,-322.92 1997.53,-320.92 2002.26,-318.97 2007.48,-317.07 2013.16,-315.22 2019.26,-313.43 2025.77,-311.7 2032.64,-310.03 2039.84,-308.43 2047.35,-306.9 2055.12,-305.43 2063.13,-304.04 2071.34,-302.73 2079.72,-301.5 2088.24,-300.34 2096.87,-299.27 2105.58,-298.29 2114.35,-297.39 2123.13,-296.59 2131.92,-295.87 2140.68,-295.25 2149.4,-294.72 2158.04,-294.3 2166.6,-293.97 2175.05,-293.74 2183.39,-293.61 2191.58,-293.59 2199.63,-293.67 2207.51,-293.86 2215.23,-294.16 2222.76,-294.56 2230.11,-295.07 2237.26,-295.69 2244.22,-296.42 2250.97,-297.26 2257.51,-298.2 2263.83,-299.25 2269.94,-300.41 2275.83,-301.67 2281.5,-303.03 2286.94,-304.49 2292.15,-306.05 2297.13,-307.7 2301.86,-309.45 2306.36,-311.28 2310.61,-313.2 2314.6,-315.19 2318.34,-317.26 2321.8,-319.39 2325,-321.59 2327.9,-323.85 2330.51,-326.15 2332.82,-328.5 2334.82,-330.89 2336.49,-333.31 2337.82,-335.74 2338.8,-338.19 2339.42,-340.65 2339.67,-343.11 2339.53,-345.56 2338.99,-347.98 2338.04,-350.39 2336.68,-352.75 2334.88,-355.08 2332.65,-357.35 2329.96,-359.57 2326.83,-361.71 2323.23,-363.79 2319.17,-365.78 2314.65,-367.68 2309.66,-369.49 2304.21,-371.2 2298.3,-372.79 2291.94,-374.28 2285.14,-375.65 2277.91,-376.89 2270.26,-378.01 2262.21,-378.99 2253.79,-379.84 2245,-380.56 2235.88,-381.13 2226.45,-381.57 2216.74,-381.87 2206.78,-382.02 2196.61,-382.04 2186.25,-381.91 2175.75,-381.65 2165.15,-381.25 2154.48,-380.72 2143.78,-380.05 2133.1,-379.26 2122.48,-378.34 2111.96,-377.31 2101.59,-376.15 2091.4,-374.89 2081.43,-373.52"/>
<text text-anchor="middle" x="2172.04" y="-332.38" font-family="sans-serif" font-size="16.00">TrackerMonolitoContexto</text>
</g>
<!-- TrackerMonolitoContexto&#45;&gt;AnaliticaContexto -->
<g id="edge12" class="edge">
<title>TrackerMonolitoContexto&#45;&gt;AnaliticaContexto</title>
<path fill="none" stroke="black" stroke-width="2" d="M2076.69,-301.85C2027.48,-285.83 1966.14,-267.69 1910.04,-256.32 1745.15,-222.9 1551.29,-205.77 1428.31,-197.6"/>
<text text-anchor="middle" x="2035.54" y="-259.72" font-family="sans-serif" font-size="12.00"> &#160;&#160;&#160;&#160;&#160;&#160;&#160;&#160;&#160;&#160;&#160;&#160;&#160;&#160;&#160;&#160;&#160;&#160;&#160;&#160;&#160;&#160;&#160;&#160;&#160;&#160;&#160;&#160;&#160;&#160;&#160;&#160;&#160;&#160;&#160;&#160;&#160;&#160;&#160;</text>
<polygon fill="white" stroke="transparent" points="1409.31,-187.6 1409.31,-206.6 1425.31,-206.6 1425.31,-187.6 1409.31,-187.6"/>
<polyline fill="none" stroke="black" points="1425.31,-187.6 1425.31,-206.6 "/>
<text text-anchor="start" x="1412.31" y="-194" font-family="sans-serif" font-size="12.00">D</text>
<polygon fill="white" stroke="transparent" points="1425.31,-187.6 1425.31,-206.6 1447.31,-206.6 1447.31,-187.6 1425.31,-187.6"/>
<polygon fill="none" stroke="black" points="1425.31,-187.6 1425.31,-206.6 1447.31,-206.6 1447.31,-187.6 1425.31,-187.6"/>
<text text-anchor="start" x="1428.31" y="-194" font-family="sans-serif" font-size="12.00">CF</text>
<polygon fill="white" stroke="transparent" points="2041.69,-291.85 2041.69,-310.85 2057.69,-310.85 2057.69,-291.85 2041.69,-291.85"/>
<polyline fill="none" stroke="black" points="2057.69,-291.85 2057.69,-310.85 "/>
<text text-anchor="start" x="2044.69" y="-298.25" font-family="sans-serif" font-size="12.00">U</text>
<polygon fill="white" stroke="transparent" points="2057.69,-291.85 2057.69,-310.85 2112.69,-310.85 2112.69,-291.85 2057.69,-291.85"/>
<polygon fill="none" stroke="black" points="2057.69,-291.85 2057.69,-310.85 2112.69,-310.85 2112.69,-291.85 2057.69,-291.85"/>
<text text-anchor="start" x="2060.69" y="-298.25" font-family="sans-serif" font-size="12.00">OHS, PL</text>
</g>
</g>
</svg>
