<svg width="2000px" height="43px"
 viewBox="0.00 0.00 4980.71 105.72" xmlns="http://www.w3.org/2000/svg" xmlns:xlink="http://www.w3.org/1999/xlink">
<g id="graph0" class="graph" transform="scale(1.0 1.0) rotate(0) translate(4 101.72)">
<title>ContextMapGraph</title>
<polygon fill="white" stroke="transparent" points="-4,4 -4,-101.72 4976.71,-101.72 4976.71,4 -4,4"/>
<!-- AlianzasB2BContexto -->
<g id="node1" class="node">
<title>AlianzasB2BContexto</title>
<polygon fill="none" stroke="black" stroke-width="2" points="297.34,-65.78 293.64,-68.44 289.56,-71.04 285.14,-73.57 280.37,-76.02 275.29,-78.37 269.91,-80.61 264.25,-82.75 258.32,-84.76 252.14,-86.64 245.73,-88.39 239.11,-89.99 232.31,-91.45 225.33,-92.75 218.21,-93.9 210.95,-94.88 203.58,-95.71 196.12,-96.37 188.59,-96.86 181,-97.2 173.38,-97.37 165.74,-97.37 158.11,-97.22 150.49,-96.91 142.91,-96.46 135.38,-95.85 127.93,-95.1 120.56,-94.22 113.3,-93.21 106.15,-92.07 99.15,-90.81 92.29,-89.45 85.6,-87.99 79.08,-86.43 72.76,-84.78 66.65,-83.06 60.76,-81.26 55.11,-79.41 49.7,-77.49 44.55,-75.53 39.68,-73.53 35.08,-71.5 30.78,-69.44 26.79,-67.35 23.11,-65.26 19.76,-63.15 16.75,-61.05 14.08,-58.94 11.76,-56.84 9.8,-54.75 8.22,-52.68 7,-50.62 6.18,-48.59 5.73,-46.58 5.68,-44.59 6.03,-42.64 6.77,-40.71 7.91,-38.82 9.45,-36.95 11.4,-35.13 13.74,-33.34 16.48,-31.58 19.61,-29.87 23.13,-28.19 27.03,-26.55 31.31,-24.95 35.96,-23.4 40.96,-21.89 46.31,-20.43 51.99,-19.01 58,-17.64 64.31,-16.33 70.9,-15.06 77.78,-13.86 84.9,-12.71 92.26,-11.63 99.84,-10.61 107.6,-9.66 115.54,-8.79 123.62,-7.99 131.82,-7.27 140.13,-6.64 148.5,-6.1 156.92,-5.65 165.36,-5.31 173.79,-5.06 182.19,-4.92 190.52,-4.89 198.77,-4.98 206.9,-5.19 214.9,-5.51 222.73,-5.96 230.36,-6.54 237.78,-7.25 244.95,-8.09 251.87,-9.06 258.49,-10.16 264.81,-11.4 270.8,-12.76 276.44,-14.26 281.72,-15.88 286.62,-17.63 291.13,-19.49 295.23,-21.48 298.9,-23.57 302.15,-25.78 304.96,-28.08 307.32,-30.47 309.24,-32.95 310.7,-35.5 311.7,-38.12 312.25,-40.8 312.34,-43.53 311.99,-46.29 311.18,-49.09 309.93,-51.89 308.24,-54.71 306.13,-57.51 303.61,-60.3 300.67,-63.06 297.34,-65.78"/>
<text text-anchor="middle" x="156.28" y="-45.06" font-family="sans-serif" font-size="16.00">AlianzasB2BContexto</text>
</g>
<!-- AnaliticaContexto -->
<g id="node2" class="node">
<title>AnaliticaContexto</title>
<polygon fill="none" stroke="black" stroke-width="2" points="570.85,-78.72 565.08,-80.87 559.07,-82.92 552.85,-84.87 546.44,-86.71 539.87,-88.42 533.16,-90.01 526.34,-91.46 519.43,-92.77 512.44,-93.94 505.41,-94.95 498.36,-95.81 491.31,-96.51 484.28,-97.05 477.28,-97.43 470.35,-97.64 463.49,-97.69 456.72,-97.58 450.07,-97.31 443.54,-96.87 437.15,-96.28 430.91,-95.53 424.84,-94.64 418.94,-93.59 413.23,-92.41 407.72,-91.1 402.41,-89.66 397.32,-88.1 392.44,-86.43 387.79,-84.65 383.37,-82.78 379.18,-80.82 375.24,-78.78 371.54,-76.66 368.08,-74.49 364.88,-72.26 361.93,-69.99 359.24,-67.68 356.8,-65.34 354.63,-62.99 352.72,-60.62 351.07,-58.25 349.69,-55.88 348.59,-53.52 347.75,-51.18 347.19,-48.87 346.91,-46.58 346.9,-44.34 347.18,-42.13 347.74,-39.97 348.59,-37.85 349.72,-35.8 351.15,-33.8 352.86,-31.86 354.87,-29.98 357.17,-28.17 359.77,-26.43 362.66,-24.75 365.83,-23.15 369.31,-21.62 373.06,-20.16 377.11,-18.78 381.44,-17.47 386.04,-16.24 390.91,-15.08 396.05,-13.99 401.44,-12.99 407.08,-12.06 412.96,-11.2 419.05,-10.43 425.36,-9.73 431.87,-9.11 438.55,-8.57 445.4,-8.12 452.39,-7.74 459.52,-7.44 466.74,-7.23 474.06,-7.1 481.43,-7.06 488.85,-7.1 496.28,-7.24 503.7,-7.46 511.08,-7.78 518.41,-8.19 525.65,-8.69 532.78,-9.29 539.77,-9.99 546.6,-10.79 553.24,-11.68 559.66,-12.68 565.84,-13.77 571.76,-14.97 577.38,-16.27 582.7,-17.67 587.69,-19.17 592.32,-20.77 596.59,-22.46 600.47,-24.25 603.94,-26.12 607,-28.09 609.63,-30.14 611.83,-32.27 613.57,-34.48 614.86,-36.75 615.7,-39.09 616.07,-41.49 615.99,-43.93 615.45,-46.42 614.45,-48.95 613,-51.5 611.11,-54.07 608.79,-56.65 606.06,-59.23 602.91,-61.8 599.37,-64.35 595.45,-66.88 591.17,-69.36 586.55,-71.8 581.61,-74.18 576.37,-76.49 570.85,-78.72"/>
<text text-anchor="middle" x="473.28" y="-45.06" font-family="sans-serif" font-size="16.00">AnaliticaContexto</text>
</g>
<!-- CumplimientosContexto -->
<g id="node3" class="node">
<title>CumplimientosContexto</title>
<polygon fill="none" stroke="black" stroke-width="2" points="954.61,-22.9 961.29,-25.18 967.56,-27.51 973.39,-29.9 978.75,-32.32 983.61,-34.78 987.95,-37.25 991.77,-39.74 995.03,-42.23 997.72,-44.71 999.83,-47.18 1001.36,-49.63 1002.28,-52.05 1002.61,-54.43 1002.33,-56.77 1001.45,-59.06 999.97,-61.29 997.89,-63.46 995.23,-65.57 992,-67.6 988.21,-69.56 983.88,-71.44 979.02,-73.24 973.66,-74.95 967.83,-76.58 961.53,-78.12 954.81,-79.56 947.69,-80.92 940.2,-82.18 932.37,-83.35 924.23,-84.43 915.82,-85.41 907.17,-86.31 898.3,-87.11 889.27,-87.81 880.09,-88.43 870.8,-88.95 861.44,-89.39 852.04,-89.74 842.63,-89.99 833.24,-90.16 823.9,-90.25 814.64,-90.25 805.49,-90.16 796.47,-89.99 787.61,-89.73 778.93,-89.39 770.45,-88.96 762.2,-88.45 754.19,-87.86 746.44,-87.19 738.96,-86.43 731.76,-85.59 724.87,-84.66 718.29,-83.66 712.02,-82.57 706.08,-81.4 700.48,-80.14 695.21,-78.81 690.29,-77.4 685.71,-75.9 681.48,-74.33 677.6,-72.68 674.07,-70.95 670.89,-69.15 668.06,-67.28 665.57,-65.34 663.44,-63.34 661.66,-61.27 660.22,-59.15 659.13,-56.97 658.38,-54.75 657.98,-52.48 657.92,-50.17 658.19,-47.83 658.81,-45.47 659.77,-43.09 661.07,-40.69 662.71,-38.3 664.68,-35.9 667,-33.52 669.65,-31.15 672.64,-28.82 675.97,-26.52 679.63,-24.27 683.63,-22.08 687.96,-19.94 692.62,-17.88 697.62,-15.9 702.94,-14.01 708.58,-12.21 714.53,-10.52 720.8,-8.94 727.37,-7.48 734.23,-6.15 741.37,-4.95 748.79,-3.89 756.47,-2.97 764.4,-2.2 772.55,-1.58 780.92,-1.12 789.49,-0.81 798.22,-0.67 807.11,-0.68 816.13,-0.85 825.25,-1.18 834.46,-1.67 843.71,-2.32 852.98,-3.12 862.25,-4.08 871.48,-5.18 880.64,-6.42 889.7,-7.79 898.62,-9.3 907.38,-10.93 915.94,-12.68 924.27,-14.54 932.33,-16.5 940.09,-18.55 947.53,-20.69 954.61,-22.9"/>
<text text-anchor="middle" x="818.28" y="-45.06" font-family="sans-serif" font-size="16.00">CumplimientosContexto</text>
</g>
<!-- GestionCampanasContratosContexto -->
<g id="node4" class="node">
<title>GestionCampanasContratosContexto</title>
<polygon fill="none" stroke="black" stroke-width="2" points="1372.68,-7.61 1387.57,-8.59 1402.14,-9.67 1416.31,-10.86 1430.04,-12.15 1443.27,-13.53 1455.94,-15 1468.01,-16.56 1479.42,-18.2 1490.13,-19.91 1500.11,-21.7 1509.32,-23.55 1517.72,-25.46 1525.28,-27.42 1531.99,-29.44 1537.83,-31.49 1542.78,-33.59 1546.83,-35.71 1549.98,-37.87 1552.23,-40.04 1553.58,-42.23 1554.04,-44.43 1553.63,-46.64 1552.36,-48.85 1550.25,-51.05 1547.33,-53.24 1543.63,-55.41 1539.17,-57.57 1533.98,-59.7 1528.11,-61.79 1521.59,-63.86 1514.46,-65.88 1506.76,-67.86 1498.53,-69.79 1489.82,-71.67 1480.66,-73.49 1471.1,-75.25 1461.17,-76.95 1450.93,-78.57 1440.42,-80.13 1429.66,-81.6 1418.7,-83 1407.58,-84.31 1396.34,-85.53 1384.99,-86.67 1373.58,-87.7 1362.14,-88.65 1350.69,-89.49 1339.25,-90.23 1327.85,-90.87 1316.52,-91.4 1305.26,-91.82 1294.09,-92.13 1283.03,-92.33 1272.1,-92.41 1261.3,-92.38 1250.65,-92.24 1240.15,-91.97 1229.81,-91.59 1219.63,-91.1 1209.63,-90.48 1199.82,-89.76 1190.19,-88.91 1180.75,-87.96 1171.51,-86.89 1162.48,-85.71 1153.67,-84.43 1145.07,-83.04 1136.71,-81.55 1128.59,-79.96 1120.72,-78.28 1113.12,-76.51 1105.8,-74.65 1098.78,-72.71 1092.07,-70.7 1085.69,-68.61 1079.66,-66.47 1074.01,-64.26 1068.75,-62.01 1063.9,-59.7 1059.5,-57.36 1055.57,-54.99 1052.12,-52.6 1049.2,-50.19 1046.81,-47.77 1044.99,-45.35 1043.76,-42.93 1043.15,-40.53 1043.17,-38.15 1043.86,-35.8 1045.22,-33.48 1047.27,-31.21 1050.04,-28.99 1053.53,-26.83 1057.75,-24.73 1062.71,-22.71 1068.42,-20.76 1074.87,-18.89 1082.06,-17.12 1089.98,-15.44 1098.63,-13.86 1107.98,-12.39 1118.02,-11.02 1128.73,-9.77 1140.07,-8.64 1152.03,-7.63 1164.55,-6.74 1177.6,-5.97 1191.15,-5.33 1205.14,-4.82 1219.53,-4.44 1234.26,-4.19 1249.28,-4.07 1264.53,-4.08 1279.96,-4.21 1295.5,-4.47 1311.09,-4.86 1326.66,-5.37 1342.16,-6 1357.52,-6.75 1372.68,-7.61"/>
<text text-anchor="middle" x="1287.28" y="-45.06" font-family="sans-serif" font-size="16.00">GestionCampanasContratosContexto</text>
</g>
<!-- GestionContenidoContexto -->
<g id="node5" class="node">
<title>GestionContenidoContexto</title>
<polygon fill="none" stroke="black" stroke-width="2" points="1827.31,-6.95 1838.95,-7.73 1850.37,-8.62 1861.53,-9.62 1872.37,-10.72 1882.86,-11.92 1892.95,-13.22 1902.61,-14.61 1911.79,-16.09 1920.46,-17.65 1928.59,-19.29 1936.15,-21.01 1943.12,-22.79 1949.46,-24.64 1955.17,-26.55 1960.22,-28.51 1964.61,-30.52 1968.32,-32.58 1971.35,-34.67 1973.7,-36.79 1975.38,-38.95 1976.37,-41.12 1976.71,-43.31 1976.39,-45.51 1975.42,-47.71 1973.84,-49.92 1971.65,-52.12 1968.88,-54.31 1965.55,-56.48 1961.69,-58.63 1957.32,-60.76 1952.48,-62.85 1947.19,-64.91 1941.48,-66.92 1935.39,-68.89 1928.94,-70.81 1922.16,-72.67 1915.1,-74.47 1907.76,-76.21 1900.2,-77.88 1892.43,-79.48 1884.49,-81 1876.39,-82.44 1868.17,-83.79 1859.86,-85.05 1851.46,-86.23 1843.01,-87.3 1834.53,-88.28 1826.03,-89.16 1817.52,-89.93 1809.03,-90.6 1800.57,-91.16 1792.15,-91.61 1783.78,-91.94 1775.47,-92.16 1767.23,-92.27 1759.06,-92.26 1750.98,-92.13 1742.98,-91.89 1735.08,-91.52 1727.28,-91.04 1719.58,-90.45 1711.99,-89.73 1704.51,-88.91 1697.16,-87.97 1689.93,-86.91 1682.83,-85.75 1675.87,-84.49 1669.06,-83.12 1662.4,-81.65 1655.91,-80.08 1649.59,-78.42 1643.47,-76.67 1637.55,-74.84 1631.84,-72.94 1626.37,-70.95 1621.14,-68.9 1616.18,-66.79 1611.51,-64.63 1607.15,-62.41 1603.1,-60.15 1599.41,-57.85 1596.08,-55.52 1593.14,-53.17 1590.62,-50.81 1588.52,-48.44 1586.88,-46.06 1585.7,-43.69 1585.03,-41.33 1584.86,-39 1585.22,-36.69 1586.12,-34.41 1587.58,-32.18 1589.6,-30 1592.21,-27.87 1595.4,-25.8 1599.18,-23.8 1603.55,-21.87 1608.51,-20.02 1614.06,-18.26 1620.19,-16.59 1626.89,-15.01 1634.15,-13.54 1641.94,-12.17 1650.26,-10.9 1659.08,-9.75 1668.36,-8.71 1678.09,-7.79 1688.23,-6.98 1698.75,-6.3 1709.61,-5.74 1720.77,-5.31 1732.18,-5 1743.82,-4.81 1755.62,-4.75 1767.54,-4.82 1779.54,-5 1791.56,-5.31 1803.57,-5.74 1815.5,-6.29 1827.31,-6.95"/>
<text text-anchor="middle" x="1774.28" y="-45.06" font-family="sans-serif" font-size="16.00">GestionContenidoContexto</text>
</g>
<!-- GestionContratosCatalogosDeOfertasContexto -->
<g id="node6" class="node">
<title>GestionContratosCatalogosDeOfertasContexto</title>
<polygon fill="none" stroke="black" stroke-width="2" points="2478.36,-11.52 2494.95,-12.98 2511.01,-14.54 2526.47,-16.19 2541.27,-17.93 2555.35,-19.73 2568.65,-21.61 2581.11,-23.55 2592.68,-25.54 2603.32,-27.59 2612.99,-29.68 2621.64,-31.8 2629.26,-33.96 2635.81,-36.14 2641.27,-38.34 2645.63,-40.55 2648.88,-42.77 2651.01,-44.99 2652.03,-47.2 2651.94,-49.4 2650.75,-51.59 2648.49,-53.75 2645.18,-55.9 2640.83,-58.01 2635.49,-60.08 2629.19,-62.12 2621.97,-64.12 2613.87,-66.07 2604.93,-67.97 2595.22,-69.82 2584.77,-71.61 2573.63,-73.34 2561.88,-75.01 2549.55,-76.61 2536.7,-78.14 2523.4,-79.61 2509.69,-81 2495.64,-82.31 2481.29,-83.54 2466.71,-84.7 2451.94,-85.77 2437.03,-86.75 2422.03,-87.65 2406.99,-88.45 2391.95,-89.17 2376.95,-89.79 2362.04,-90.32 2347.24,-90.74 2332.59,-91.07 2318.12,-91.3 2303.87,-91.43 2289.84,-91.45 2276.07,-91.37 2262.57,-91.18 2249.37,-90.88 2236.47,-90.48 2223.89,-89.97 2211.65,-89.35 2199.75,-88.62 2188.2,-87.78 2177.01,-86.84 2166.18,-85.79 2155.72,-84.63 2145.64,-83.37 2135.94,-82.01 2126.63,-80.55 2117.71,-78.99 2109.19,-77.34 2101.08,-75.59 2093.39,-73.76 2086.12,-71.84 2079.28,-69.85 2072.89,-67.78 2066.96,-65.65 2061.49,-63.45 2056.52,-61.19 2052.05,-58.89 2048.09,-56.54 2044.68,-54.15 2041.82,-51.74 2039.55,-49.3 2037.87,-46.85 2036.8,-44.39 2036.38,-41.93 2036.62,-39.49 2037.54,-37.06 2039.16,-34.66 2041.5,-32.29 2044.57,-29.96 2048.4,-27.69 2052.99,-25.47 2058.36,-23.33 2064.52,-21.25 2071.46,-19.26 2079.21,-17.36 2087.74,-15.55 2097.07,-13.84 2107.18,-12.25 2118.07,-10.76 2129.71,-9.39 2142.09,-8.15 2155.17,-7.04 2168.95,-6.05 2183.37,-5.2 2198.41,-4.48 2214.02,-3.91 2230.16,-3.47 2246.78,-3.17 2263.83,-3.02 2281.24,-3 2298.96,-3.13 2316.93,-3.39 2335.08,-3.79 2353.34,-4.32 2371.65,-4.99 2389.92,-5.78 2408.1,-6.7 2426.11,-7.73 2443.87,-8.89 2461.31,-10.15 2478.36,-11.52"/>
<text text-anchor="middle" x="2323.28" y="-45.06" font-family="sans-serif" font-size="16.00">GestionContratosCatalogosDeOfertasContexto</text>
</g>
<!-- GestionMarcasContexto -->
<g id="node7" class="node">
<title>GestionMarcasContexto</title>
<polygon fill="none" stroke="black" stroke-width="2" points="2997.75,-61.45 2994.79,-64.22 2991.41,-66.93 2987.62,-69.58 2983.43,-72.15 2978.86,-74.64 2973.92,-77.04 2968.63,-79.33 2963,-81.51 2957.05,-83.57 2950.81,-85.5 2944.28,-87.3 2937.48,-88.95 2930.45,-90.46 2923.18,-91.82 2915.71,-93.02 2908.06,-94.06 2900.24,-94.94 2892.28,-95.66 2884.2,-96.22 2876.01,-96.61 2867.74,-96.85 2859.41,-96.93 2851.04,-96.85 2842.64,-96.63 2834.25,-96.25 2825.88,-95.73 2817.55,-95.07 2809.29,-94.28 2801.1,-93.36 2793.01,-92.33 2785.05,-91.18 2777.22,-89.92 2769.55,-88.57 2762.06,-87.12 2754.75,-85.59 2747.67,-83.98 2740.81,-82.3 2734.19,-80.56 2727.84,-78.76 2721.76,-76.92 2715.98,-75.03 2710.51,-73.11 2705.36,-71.16 2700.55,-69.18 2696.09,-67.19 2691.99,-65.18 2688.26,-63.17 2684.92,-61.15 2681.98,-59.13 2679.44,-57.11 2677.31,-55.1 2675.61,-53.1 2674.33,-51.12 2673.49,-49.14 2673.09,-47.18 2673.13,-45.25 2673.62,-43.33 2674.55,-41.43 2675.93,-39.55 2677.76,-37.7 2680.03,-35.87 2682.74,-34.07 2685.89,-32.29 2689.47,-30.55 2693.47,-28.83 2697.89,-27.14 2702.71,-25.49 2707.92,-23.87 2713.51,-22.29 2719.48,-20.75 2725.79,-19.25 2732.43,-17.8 2739.4,-16.39 2746.66,-15.03 2754.2,-13.73 2762,-12.49 2770.04,-11.32 2778.29,-10.21 2786.72,-9.17 2795.33,-8.21 2804.07,-7.33 2812.92,-6.54 2821.86,-5.84 2830.86,-5.24 2839.9,-4.75 2848.94,-4.36 2857.96,-4.08 2866.92,-3.92 2875.81,-3.88 2884.6,-3.96 2893.26,-4.18 2901.75,-4.52 2910.07,-5 2918.17,-5.62 2926.04,-6.38 2933.65,-7.28 2940.99,-8.32 2948.01,-9.49 2954.72,-10.81 2961.08,-12.27 2967.08,-13.86 2972.7,-15.58 2977.92,-17.43 2982.73,-19.41 2987.12,-21.5 2991.07,-23.71 2994.58,-26.02 2997.64,-28.43 3000.23,-30.92 3002.35,-33.5 3004.01,-36.15 3005.19,-38.86 3005.9,-41.63 3006.13,-44.43 3005.89,-47.26 3005.17,-50.11 3004,-52.96 3002.37,-55.81 3000.28,-58.65 2997.75,-61.45"/>
<text text-anchor="middle" x="2838.28" y="-45.06" font-family="sans-serif" font-size="16.00">GestionMarcasContexto</text>
</g>
<!-- GestionSociosContexto -->
<g id="node8" class="node">
<title>GestionSociosContexto</title>
<polygon fill="none" stroke="black" stroke-width="2" points="3343.58,-28.75 3348.63,-31.27 3353.25,-33.83 3357.42,-36.42 3361.11,-39.03 3364.32,-41.65 3367.02,-44.26 3369.21,-46.87 3370.86,-49.46 3371.98,-52.02 3372.56,-54.55 3372.58,-57.03 3372.05,-59.45 3370.97,-61.82 3369.34,-64.11 3367.16,-66.34 3364.44,-68.48 3361.19,-70.54 3357.42,-72.51 3353.15,-74.39 3348.39,-76.17 3343.16,-77.85 3337.47,-79.43 3331.35,-80.9 3324.83,-82.27 3317.92,-83.53 3310.66,-84.69 3303.07,-85.74 3295.19,-86.69 3287.03,-87.52 3278.63,-88.26 3270.03,-88.89 3261.24,-89.42 3252.32,-89.85 3243.28,-90.18 3234.16,-90.42 3224.99,-90.56 3215.8,-90.61 3206.62,-90.58 3197.49,-90.45 3188.42,-90.24 3179.46,-89.94 3170.62,-89.57 3161.94,-89.11 3153.43,-88.57 3145.12,-87.96 3137.04,-87.27 3129.2,-86.51 3121.61,-85.68 3114.31,-84.77 3107.31,-83.79 3100.61,-82.74 3094.24,-81.62 3088.2,-80.43 3082.5,-79.17 3077.16,-77.84 3072.17,-76.44 3067.55,-74.98 3063.31,-73.45 3059.43,-71.85 3055.94,-70.19 3052.82,-68.47 3050.08,-66.68 3047.71,-64.83 3045.73,-62.93 3044.12,-60.97 3042.89,-58.95 3042.02,-56.89 3041.53,-54.78 3041.4,-52.62 3041.63,-50.43 3042.21,-48.21 3043.15,-45.95 3044.44,-43.67 3046.07,-41.37 3048.05,-39.06 3050.35,-36.75 3052.99,-34.44 3055.95,-32.14 3059.24,-29.85 3062.84,-27.6 3066.75,-25.37 3070.97,-23.19 3075.49,-21.05 3080.3,-18.98 3085.4,-16.97 3090.78,-15.04 3096.44,-13.2 3102.36,-11.44 3108.55,-9.79 3114.98,-8.24 3121.65,-6.82 3128.56,-5.51 3135.68,-4.34 3143.01,-3.3 3150.53,-2.41 3158.23,-1.66 3166.1,-1.06 3174.11,-0.62 3182.26,-0.34 3190.52,-0.22 3198.87,-0.27 3207.3,-0.47 3215.78,-0.85 3224.28,-1.38 3232.8,-2.08 3241.29,-2.94 3249.75,-3.95 3258.13,-5.12 3266.42,-6.43 3274.59,-7.89 3282.61,-9.48 3290.45,-11.21 3298.09,-13.06 3305.49,-15.02 3312.64,-17.1 3319.51,-19.27 3326.06,-21.53 3332.27,-23.87 3338.12,-26.28 3343.58,-28.75"/>
<text text-anchor="middle" x="3198.28" y="-45.06" font-family="sans-serif" font-size="16.00">GestionSociosContexto</text>
</g>
<!-- MarketingAfiliadosContexto -->
<g id="node9" class="node">
<title>MarketingAfiliadosContexto</title>
<polygon fill="none" stroke="black" stroke-width="2" points="3665.89,-89.99 3654.4,-91.02 3642.8,-91.94 3631.14,-92.73 3619.46,-93.4 3607.81,-93.93 3596.23,-94.33 3584.76,-94.59 3573.46,-94.72 3562.35,-94.7 3551.47,-94.55 3540.87,-94.25 3530.57,-93.81 3520.61,-93.24 3511.01,-92.52 3501.81,-91.67 3493.02,-90.68 3484.67,-89.57 3476.78,-88.33 3469.35,-86.96 3462.4,-85.47 3455.95,-83.88 3450,-82.17 3444.55,-80.36 3439.61,-78.46 3435.18,-76.47 3431.25,-74.39 3427.83,-72.25 3424.9,-70.03 3422.46,-67.76 3420.5,-65.43 3419,-63.06 3417.97,-60.66 3417.38,-58.23 3417.23,-55.79 3417.5,-53.33 3418.18,-50.87 3419.25,-48.42 3420.7,-45.98 3422.53,-43.57 3424.7,-41.18 3427.22,-38.83 3430.08,-36.53 3433.25,-34.27 3436.74,-32.07 3440.52,-29.94 3444.6,-27.87 3448.96,-25.88 3453.6,-23.96 3458.51,-22.13 3463.69,-20.38 3469.12,-18.73 3474.81,-17.17 3480.75,-15.71 3486.94,-14.35 3493.37,-13.09 3500.04,-11.93 3506.95,-10.88 3514.09,-9.94 3521.46,-9.1 3529.06,-8.37 3536.87,-7.75 3544.89,-7.24 3553.12,-6.84 3561.55,-6.54 3570.16,-6.35 3578.94,-6.27 3587.89,-6.29 3596.99,-6.42 3606.22,-6.65 3615.57,-6.98 3625.01,-7.4 3634.53,-7.93 3644.09,-8.55 3653.69,-9.27 3663.29,-10.07 3672.85,-10.97 3682.37,-11.95 3691.79,-13.02 3701.1,-14.18 3710.25,-15.41 3719.22,-16.72 3727.96,-18.11 3736.45,-19.58 3744.65,-21.11 3752.51,-22.71 3760.01,-24.38 3767.12,-26.11 3773.78,-27.9 3779.98,-29.75 3785.68,-31.65 3790.85,-33.6 3795.46,-35.6 3799.48,-37.64 3802.89,-39.71 3805.66,-41.82 3807.78,-43.97 3809.22,-46.13 3809.97,-48.32 3810.03,-50.52 3809.38,-52.73 3808.02,-54.95 3805.95,-57.17 3803.17,-59.38 3799.68,-61.58 3795.51,-63.76 3790.65,-65.92 3785.12,-68.04 3778.95,-70.13 3772.17,-72.18 3764.78,-74.17 3756.83,-76.11 3748.35,-77.99 3739.37,-79.79 3729.92,-81.53 3720.06,-83.17 3709.81,-84.74 3699.23,-86.2 3688.35,-87.57 3677.22,-88.83 3665.89,-89.99"/>
<text text-anchor="middle" x="3600.28" y="-45.06" font-family="sans-serif" font-size="16.00">MarketingAfiliadosContexto</text>
</g>
<!-- MarketingInfluencersContexto -->
<g id="node10" class="node">
<title>MarketingInfluencersContexto</title>
<polygon fill="none" stroke="black" stroke-width="2" points="4149.78,-87.48 4138.19,-88.88 4126.41,-90.16 4114.48,-91.32 4102.45,-92.36 4090.36,-93.26 4078.27,-94.03 4066.21,-94.67 4054.23,-95.16 4042.36,-95.5 4030.66,-95.7 4019.16,-95.75 4007.89,-95.65 3996.9,-95.4 3986.2,-95 3975.83,-94.46 3965.82,-93.77 3956.19,-92.93 3946.97,-91.96 3938.17,-90.84 3929.8,-89.6 3921.89,-88.22 3914.44,-86.72 3907.46,-85.11 3900.97,-83.38 3894.95,-81.55 3889.43,-79.63 3884.39,-77.61 3879.84,-75.51 3875.76,-73.34 3872.17,-71.1 3869.06,-68.8 3866.41,-66.46 3864.21,-64.07 3862.47,-61.65 3861.18,-59.21 3860.32,-56.75 3859.88,-54.29 3859.86,-51.83 3860.25,-49.37 3861.03,-46.94 3862.21,-44.53 3863.76,-42.15 3865.7,-39.82 3868,-37.53 3870.66,-35.29 3873.68,-33.11 3877.04,-30.99 3880.76,-28.94 3884.81,-26.97 3889.21,-25.07 3893.94,-23.26 3899.01,-21.53 3904.4,-19.89 3910.12,-18.34 3916.17,-16.88 3922.55,-15.52 3929.24,-14.26 3936.25,-13.09 3943.57,-12.02 3951.2,-11.06 3959.14,-10.19 3967.37,-9.42 3975.88,-8.76 3984.68,-8.19 3993.75,-7.73 4003.07,-7.36 4012.63,-7.09 4022.41,-6.92 4032.41,-6.85 4042.59,-6.87 4052.94,-6.99 4063.43,-7.2 4074.04,-7.51 4084.73,-7.91 4095.49,-8.4 4106.28,-8.97 4117.06,-9.64 4127.8,-10.4 4138.47,-11.24 4149.03,-12.16 4159.45,-13.17 4169.67,-14.27 4179.67,-15.44 4189.4,-16.7 4198.82,-18.03 4207.9,-19.44 4216.59,-20.92 4224.86,-22.48 4232.67,-24.11 4239.97,-25.81 4246.74,-27.57 4252.94,-29.4 4258.55,-31.29 4263.52,-33.24 4267.84,-35.24 4271.48,-37.29 4274.41,-39.39 4276.63,-41.53 4278.11,-43.71 4278.84,-45.93 4278.82,-48.17 4278.04,-50.43 4276.5,-52.71 4274.2,-55 4271.14,-57.3 4267.35,-59.59 4262.83,-61.88 4257.6,-64.15 4251.67,-66.39 4245.08,-68.61 4237.85,-70.79 4230.01,-72.92 4221.59,-75 4212.64,-77.02 4203.18,-78.98 4193.25,-80.85 4182.91,-82.65 4172.18,-84.36 4161.12,-85.97 4149.78,-87.48"/>
<text text-anchor="middle" x="4053.28" y="-45.06" font-family="sans-serif" font-size="16.00">MarketingInfluencersContexto</text>
</g>
<!-- PagosContexto -->
<g id="node11" class="node">
<title>PagosContexto</title>
<polygon fill="none" stroke="black" stroke-width="2" points="4519.01,-71.84 4515.09,-74.3 4510.92,-76.68 4506.51,-78.97 4501.89,-81.17 4497.06,-83.25 4492.05,-85.22 4486.87,-87.07 4481.55,-88.78 4476.08,-90.36 4470.51,-91.79 4464.83,-93.08 4459.07,-94.21 4453.25,-95.18 4447.37,-95.99 4441.47,-96.63 4435.55,-97.11 4429.63,-97.43 4423.72,-97.58 4417.84,-97.57 4412,-97.39 4406.21,-97.06 4400.49,-96.56 4394.86,-95.92 4389.31,-95.13 4383.86,-94.2 4378.53,-93.13 4373.32,-91.93 4368.25,-90.6 4363.32,-89.16 4358.53,-87.61 4353.91,-85.96 4349.46,-84.22 4345.18,-82.39 4341.08,-80.49 4337.17,-78.52 4333.47,-76.49 4329.96,-74.4 4326.66,-72.28 4323.58,-70.12 4320.73,-67.93 4318.1,-65.72 4315.7,-63.49 4313.55,-61.27 4311.64,-59.04 4309.98,-56.81 4308.58,-54.6 4307.43,-52.41 4306.55,-50.24 4305.95,-48.1 4305.61,-45.98 4305.55,-43.9 4305.77,-41.86 4306.27,-39.86 4307.06,-37.91 4308.14,-35.99 4309.51,-34.13 4311.16,-32.32 4313.1,-30.55 4315.34,-28.84 4317.86,-27.18 4320.66,-25.58 4323.75,-24.03 4327.11,-22.53 4330.75,-21.1 4334.65,-19.72 4338.82,-18.39 4343.23,-17.13 4347.89,-15.93 4352.79,-14.79 4357.9,-13.71 4363.23,-12.7 4368.75,-11.75 4374.45,-10.87 4380.33,-10.06 4386.35,-9.33 4392.51,-8.66 4398.78,-8.08 4405.15,-7.57 4411.6,-7.15 4418.11,-6.81 4424.66,-6.56 4431.22,-6.4 4437.78,-6.34 4444.32,-6.38 4450.8,-6.51 4457.21,-6.75 4463.54,-7.1 4469.74,-7.56 4475.82,-8.12 4481.73,-8.8 4487.47,-9.6 4493,-10.51 4498.32,-11.54 4503.41,-12.69 4508.23,-13.95 4512.79,-15.34 4517.06,-16.83 4521.02,-18.45 4524.67,-20.17 4527.99,-22.01 4530.97,-23.95 4533.6,-25.99 4535.88,-28.13 4537.79,-30.35 4539.33,-32.67 4540.49,-35.06 4541.28,-37.52 4541.7,-40.05 4541.74,-42.63 4541.41,-45.26 4540.7,-47.92 4539.64,-50.61 4538.21,-53.31 4536.44,-56.03 4534.32,-58.74 4531.87,-61.43 4529.1,-64.1 4526.03,-66.73 4522.66,-69.32 4519.01,-71.84"/>
<text text-anchor="middle" x="4419.28" y="-45.06" font-family="sans-serif" font-size="16.00">PagosContexto</text>
</g>
<!-- ProgramasLealtadContexto -->
<g id="node12" class="node">
<title>ProgramasLealtadContexto</title>
<polygon fill="none" stroke="black" stroke-width="2" points="4671.69,-86.5 4661.17,-85.08 4650.97,-83.57 4641.14,-81.96 4631.72,-80.27 4622.75,-78.51 4614.27,-76.67 4606.3,-74.77 4598.89,-72.81 4592.06,-70.8 4585.84,-68.74 4580.25,-66.64 4575.31,-64.51 4571.03,-62.35 4567.44,-60.17 4564.54,-57.98 4562.34,-55.78 4560.84,-53.57 4560.04,-51.37 4559.93,-49.17 4560.51,-46.99 4561.77,-44.82 4563.7,-42.68 4566.27,-40.56 4569.47,-38.47 4573.27,-36.42 4577.66,-34.41 4582.6,-32.45 4588.07,-30.53 4594.03,-28.66 4600.46,-26.85 4607.32,-25.09 4614.57,-23.4 4622.2,-21.77 4630.15,-20.21 4638.39,-18.71 4646.89,-17.29 4655.61,-15.95 4664.53,-14.68 4673.6,-13.49 4682.79,-12.39 4692.08,-11.37 4701.43,-10.43 4710.81,-9.59 4720.2,-8.84 4729.57,-8.18 4738.89,-7.62 4748.15,-7.15 4757.32,-6.78 4766.38,-6.52 4775.33,-6.36 4784.13,-6.3 4792.78,-6.35 4801.27,-6.5 4809.58,-6.76 4817.7,-7.13 4825.64,-7.61 4833.37,-8.19 4840.89,-8.89 4848.2,-9.69 4855.3,-10.6 4862.17,-11.62 4868.82,-12.75 4875.25,-13.98 4881.43,-15.31 4887.39,-16.75 4893.1,-18.28 4898.57,-19.91 4903.79,-21.63 4908.76,-23.43 4913.46,-25.32 4917.9,-27.3 4922.07,-29.34 4925.95,-31.46 4929.54,-33.63 4932.83,-35.87 4935.81,-38.16 4938.46,-40.49 4940.78,-42.86 4942.75,-45.27 4944.36,-47.69 4945.6,-50.13 4946.44,-52.58 4946.89,-55.03 4946.92,-57.47 4946.52,-59.89 4945.68,-62.29 4944.39,-64.66 4942.63,-66.99 4940.4,-69.26 4937.68,-71.48 4934.47,-73.64 4930.76,-75.72 4926.54,-77.73 4921.82,-79.65 4916.6,-81.47 4910.87,-83.2 4904.64,-84.82 4897.91,-86.33 4890.71,-87.72 4883.03,-88.99 4874.9,-90.14 4866.32,-91.16 4857.33,-92.04 4847.94,-92.8 4838.19,-93.41 4828.09,-93.89 4817.68,-94.23 4806.99,-94.43 4796.06,-94.49 4784.93,-94.41 4773.63,-94.19 4762.2,-93.84 4750.7,-93.35 4739.16,-92.74 4727.63,-92 4716.15,-91.13 4704.77,-90.14 4693.54,-89.04 4682.49,-87.82 4671.69,-86.5"/>
<text text-anchor="middle" x="4766.28" y="-45.06" font-family="sans-serif" font-size="16.00">ProgramasLealtadContexto</text>
</g>
</g>
</svg>
