<svg width="2000px" height="326px"
 viewBox="0.00 0.00 2357.93 383.73" xmlns="http://www.w3.org/2000/svg" xmlns:xlink="http://www.w3.org/1999/xlink">
<g id="graph0" class="graph" transform="scale(1.0 1.0) rotate(0) translate(4 379.73)">
<title>ContextMapGraph</title>
<polygon fill="white" stroke="transparent" points="-4,4 -4,-379.73 2353.93,-379.73 2353.93,4 -4,4"/>
<!-- AlianzasB2BContexto -->
<g id="node1" class="node">
<title>AlianzasB2BContexto</title>
<polygon fill="none" stroke="black" stroke-width="2" points="104.59,-287.09 113.58,-285.82 122.69,-284.67 131.89,-283.64 141.14,-282.74 150.41,-281.97 159.66,-281.33 168.86,-280.83 177.98,-280.48 186.98,-280.27 195.83,-280.2 204.5,-280.28 212.97,-280.51 221.21,-280.89 229.2,-281.4 236.91,-282.07 244.32,-282.87 251.42,-283.82 258.19,-284.9 264.62,-286.12 270.69,-287.46 276.4,-288.92 281.74,-290.51 286.7,-292.2 291.28,-294.01 295.48,-295.91 299.29,-297.9 302.71,-299.98 305.76,-302.13 308.43,-304.35 310.72,-306.64 312.65,-308.97 314.22,-311.35 315.44,-313.76 316.3,-316.21 316.83,-318.67 317.03,-321.14 316.91,-323.61 316.48,-326.07 315.74,-328.53 314.7,-330.95 313.38,-333.35 311.77,-335.72 309.89,-338.03 307.73,-340.3 305.32,-342.51 302.65,-344.66 299.72,-346.75 296.55,-348.75 293.14,-350.68 289.48,-352.53 285.58,-354.3 281.45,-355.97 277.09,-357.55 272.49,-359.04 267.67,-360.43 262.62,-361.72 257.35,-362.91 251.85,-364 246.14,-364.98 240.22,-365.87 234.08,-366.64 227.74,-367.32 221.2,-367.89 214.47,-368.35 207.56,-368.72 200.47,-368.98 193.22,-369.14 185.82,-369.2 178.27,-369.16 170.61,-369.02 162.83,-368.78 154.97,-368.45 147.03,-368.03 139.05,-367.51 131.03,-366.9 123.01,-366.19 115.01,-365.4 107.06,-364.53 99.17,-363.56 91.39,-362.52 83.73,-361.39 76.23,-360.18 68.91,-358.89 61.81,-357.52 54.95,-356.08 48.37,-354.56 42.09,-352.98 36.15,-351.32 30.57,-349.6 25.38,-347.82 20.6,-345.98 16.26,-344.08 12.38,-342.12 8.99,-340.11 6.11,-338.06 3.74,-335.96 1.91,-333.83 0.64,-331.66 -0.08,-329.46 -0.23,-327.23 0.2,-324.99 1.2,-322.73 2.78,-320.46 4.93,-318.2 7.65,-315.93 10.93,-313.68 14.75,-311.44 19.11,-309.23 23.98,-307.05 29.35,-304.9 35.2,-302.8 41.49,-300.76 48.21,-298.77 55.33,-296.84 62.81,-295 70.63,-293.23 78.75,-291.55 87.15,-289.96 95.77,-288.47 104.59,-287.09"/>
<text text-anchor="middle" x="170.23" y="-323.05" font-family="sans-serif" font-size="16.00">AlianzasB2BContexto</text>
</g>
<!-- AnaliticaContexto -->
<g id="node2" class="node">
<title>AnaliticaContexto</title>
<polygon fill="none" stroke="black" stroke-width="2" points="1250.71,-222.16 1242.98,-220.86 1235.47,-219.47 1228.2,-217.99 1221.21,-216.41 1214.53,-214.75 1208.19,-213.02 1202.2,-211.21 1196.61,-209.34 1191.41,-207.41 1186.65,-205.43 1182.33,-203.4 1178.46,-201.32 1175.07,-199.22 1172.17,-197.08 1169.75,-194.92 1167.83,-192.74 1166.41,-190.55 1165.49,-188.35 1165.06,-186.15 1165.13,-183.96 1165.69,-181.77 1166.72,-179.6 1168.22,-177.45 1170.17,-175.32 1172.56,-173.22 1175.37,-171.16 1178.58,-169.13 1182.18,-167.14 1186.14,-165.19 1190.43,-163.3 1195.05,-161.46 1199.96,-159.67 1205.14,-157.94 1210.56,-156.28 1216.2,-154.68 1222.04,-153.15 1228.06,-151.7 1234.21,-150.32 1240.5,-149.02 1246.88,-147.8 1253.35,-146.66 1259.87,-145.61 1266.43,-144.65 1273,-143.78 1279.58,-143 1286.15,-142.33 1292.68,-141.74 1299.16,-141.27 1305.59,-140.89 1311.94,-140.61 1318.21,-140.45 1324.39,-140.39 1330.47,-140.44 1336.44,-140.59 1342.29,-140.86 1348.03,-141.24 1353.64,-141.73 1359.12,-142.34 1364.46,-143.05 1369.67,-143.88 1374.73,-144.81 1379.66,-145.86 1384.43,-147.01 1389.06,-148.27 1393.53,-149.63 1397.85,-151.1 1402.01,-152.66 1406.01,-154.31 1409.84,-156.06 1413.5,-157.9 1416.98,-159.82 1420.27,-161.81 1423.38,-163.88 1426.28,-166.02 1428.99,-168.22 1431.47,-170.48 1433.74,-172.78 1435.77,-175.12 1437.55,-177.51 1439.09,-179.91 1440.36,-182.34 1441.35,-184.78 1442.06,-187.23 1442.47,-189.67 1442.57,-192.11 1442.35,-194.52 1441.8,-196.91 1440.91,-199.26 1439.68,-201.57 1438.09,-203.82 1436.14,-206.02 1433.83,-208.16 1431.14,-210.21 1428.08,-212.19 1424.64,-214.09 1420.82,-215.89 1416.64,-217.58 1412.08,-219.18 1407.16,-220.66 1401.88,-222.03 1396.26,-223.28 1390.31,-224.41 1384.03,-225.41 1377.45,-226.27 1370.59,-227.01 1363.46,-227.61 1356.09,-228.08 1348.5,-228.41 1340.71,-228.61 1332.75,-228.67 1324.66,-228.59 1316.45,-228.38 1308.17,-228.04 1299.84,-227.56 1291.49,-226.96 1283.16,-226.24 1274.89,-225.39 1266.7,-224.42 1258.63,-223.34 1250.71,-222.16"/>
<text text-anchor="middle" x="1312.23" y="-179.49" font-family="sans-serif" font-size="16.00">AnaliticaContexto</text>
</g>
<!-- AlianzasB2BContexto&#45;&gt;AnaliticaContexto -->
<g id="edge1" class="edge">
<title>AlianzasB2BContexto&#45;&gt;AnaliticaContexto</title>
<path fill="none" stroke="black" stroke-width="2" d="M273.73,-288.1C326.87,-269.02 383.17,-249.37 396.23,-246.97 537.69,-220.96 900.06,-242.79 1043.23,-228.97 1092.23,-224.24 1145.82,-215.98 1192.17,-207.84"/>
<text text-anchor="middle" x="471.73" y="-250.37" font-family="sans-serif" font-size="12.00"> &#160;&#160;&#160;&#160;&#160;&#160;&#160;&#160;&#160;&#160;&#160;&#160;&#160;&#160;&#160;&#160;&#160;&#160;&#160;&#160;&#160;&#160;&#160;&#160;&#160;&#160;&#160;&#160;&#160;&#160;&#160;&#160;&#160;&#160;&#160;&#160;&#160;&#160;&#160;</text>
<polygon fill="white" stroke="transparent" points="1185.17,-198.84 1185.17,-215.84 1199.17,-215.84 1199.17,-198.84 1185.17,-198.84"/>
<text text-anchor="start" x="1187.17" y="-204.24" font-family="sans-serif" font-size="12.00">D</text>
<polygon fill="white" stroke="transparent" points="266.73,-279.1 266.73,-296.1 280.73,-296.1 280.73,-279.1 266.73,-279.1"/>
<text text-anchor="start" x="268.73" y="-284.5" font-family="sans-serif" font-size="12.00">U</text>
</g>
<!-- PagosContexto -->
<g id="node4" class="node">
<title>PagosContexto</title>
<polygon fill="none" stroke="black" stroke-width="2" points="962.04,-144.95 968.73,-146.34 975.23,-147.83 981.49,-149.4 987.5,-151.07 993.23,-152.81 998.66,-154.62 1003.76,-156.51 1008.52,-158.45 1012.92,-160.45 1016.93,-162.5 1020.55,-164.59 1023.76,-166.72 1026.55,-168.88 1028.92,-171.06 1030.84,-173.26 1032.33,-175.47 1033.38,-177.69 1033.99,-179.91 1034.16,-182.12 1033.9,-184.32 1033.2,-186.51 1032.09,-188.68 1030.57,-190.83 1028.65,-192.94 1026.35,-195.02 1023.69,-197.07 1020.67,-199.07 1017.31,-201.03 1013.64,-202.93 1009.68,-204.79 1005.44,-206.58 1000.95,-208.32 996.23,-210 991.29,-211.61 986.17,-213.15 980.89,-214.61 975.45,-216.01 969.9,-217.32 964.24,-218.56 958.5,-219.71 952.7,-220.77 946.86,-221.75 940.99,-222.64 935.11,-223.44 929.24,-224.14 923.4,-224.75 917.59,-225.26 911.83,-225.66 906.14,-225.97 900.51,-226.17 894.97,-226.26 889.52,-226.25 884.17,-226.13 878.92,-225.9 873.79,-225.57 868.77,-225.12 863.88,-224.56 859.11,-223.89 854.46,-223.11 849.95,-222.22 845.58,-221.22 841.34,-220.11 837.23,-218.9 833.28,-217.58 829.46,-216.16 825.79,-214.64 822.27,-213.02 818.9,-211.31 815.69,-209.51 812.64,-207.62 809.75,-205.65 807.03,-203.61 804.49,-201.49 802.13,-199.31 799.95,-197.07 797.97,-194.78 796.19,-192.44 794.62,-190.06 793.27,-187.64 792.14,-185.21 791.25,-182.75 790.6,-180.29 790.2,-177.82 790.07,-175.36 790.21,-172.92 790.62,-170.49 791.33,-168.1 792.33,-165.75 793.63,-163.44 795.24,-161.2 797.16,-159.01 799.4,-156.89 801.96,-154.85 804.84,-152.9 808.05,-151.04 811.58,-149.28 815.42,-147.62 819.59,-146.07 824.06,-144.64 828.83,-143.32 833.9,-142.13 839.25,-141.07 844.88,-140.14 850.75,-139.34 856.87,-138.68 863.21,-138.16 869.75,-137.77 876.47,-137.53 883.35,-137.42 890.36,-137.46 897.49,-137.63 904.7,-137.93 911.96,-138.37 919.26,-138.95 926.56,-139.65 933.83,-140.48 941.04,-141.42 948.17,-142.49 955.18,-143.67 962.04,-144.95"/>
<text text-anchor="middle" x="904.23" y="-179.49" font-family="sans-serif" font-size="16.00">PagosContexto</text>
</g>
<!-- AlianzasB2BContexto&#45;&gt;PagosContexto -->
<g id="edge2" class="edge">
<title>AlianzasB2BContexto&#45;&gt;PagosContexto</title>
<path fill="none" stroke="black" stroke-width="2" d="M178.16,-280.23C182.58,-267.58 189.48,-255.11 200.23,-246.97 246.36,-212.04 606.71,-194.55 793.19,-187.77"/>
<text text-anchor="middle" x="275.73" y="-250.37" font-family="sans-serif" font-size="12.00"> &#160;&#160;&#160;&#160;&#160;&#160;&#160;&#160;&#160;&#160;&#160;&#160;&#160;&#160;&#160;&#160;&#160;&#160;&#160;&#160;&#160;&#160;&#160;&#160;&#160;&#160;&#160;&#160;&#160;&#160;&#160;&#160;&#160;&#160;&#160;&#160;&#160;&#160;&#160;</text>
<polygon fill="white" stroke="transparent" points="770.19,-177.77 770.19,-196.77 786.19,-196.77 786.19,-177.77 770.19,-177.77"/>
<polyline fill="none" stroke="black" points="786.19,-177.77 786.19,-196.77 "/>
<text text-anchor="start" x="773.19" y="-184.17" font-family="sans-serif" font-size="12.00">D</text>
<polygon fill="white" stroke="transparent" points="786.19,-177.77 786.19,-196.77 816.19,-196.77 816.19,-177.77 786.19,-177.77"/>
<polygon fill="none" stroke="black" points="786.19,-177.77 786.19,-196.77 816.19,-196.77 816.19,-177.77 786.19,-177.77"/>
<text text-anchor="start" x="789.19" y="-184.17" font-family="sans-serif" font-size="12.00">ACL</text>
<polygon fill="white" stroke="transparent" points="143.16,-270.23 143.16,-289.23 159.16,-289.23 159.16,-270.23 143.16,-270.23"/>
<polyline fill="none" stroke="black" points="159.16,-270.23 159.16,-289.23 "/>
<text text-anchor="start" x="146.16" y="-276.63" font-family="sans-serif" font-size="12.00">U</text>
<polygon fill="white" stroke="transparent" points="159.16,-270.23 159.16,-289.23 214.16,-289.23 214.16,-270.23 159.16,-270.23"/>
<polygon fill="none" stroke="black" points="159.16,-270.23 159.16,-289.23 214.16,-289.23 214.16,-270.23 159.16,-270.23"/>
<text text-anchor="start" x="162.16" y="-276.63" font-family="sans-serif" font-size="12.00">OHS, PL</text>
</g>
<!-- DashboardContexto -->
<g id="node3" class="node">
<title>DashboardContexto</title>
<polygon fill="none" stroke="black" stroke-width="2" points="1325.73,-87.85 1316.33,-88.16 1306.96,-88.35 1297.65,-88.41 1288.43,-88.35 1279.35,-88.16 1270.43,-87.85 1261.72,-87.42 1253.24,-86.86 1245.02,-86.18 1237.1,-85.38 1229.5,-84.45 1222.25,-83.42 1215.36,-82.26 1208.87,-81 1202.78,-79.62 1197.11,-78.15 1191.88,-76.57 1187.09,-74.9 1182.75,-73.14 1178.88,-71.29 1175.46,-69.37 1172.51,-67.36 1170.02,-65.3 1167.99,-63.17 1166.4,-60.98 1165.26,-58.75 1164.56,-56.48 1164.28,-54.17 1164.41,-51.83 1164.94,-49.47 1165.86,-47.1 1167.14,-44.73 1168.78,-42.35 1170.75,-39.99 1173.05,-37.64 1175.65,-35.31 1178.53,-33.02 1181.69,-30.75 1185.1,-28.54 1188.75,-26.37 1192.62,-24.26 1196.7,-22.21 1200.97,-20.23 1205.43,-18.32 1210.06,-16.49 1214.84,-14.74 1219.77,-13.08 1224.84,-11.52 1230.04,-10.05 1235.36,-8.68 1240.8,-7.41 1246.34,-6.25 1251.99,-5.2 1257.74,-4.26 1263.58,-3.43 1269.5,-2.72 1275.51,-2.12 1281.61,-1.64 1287.78,-1.28 1294.02,-1.03 1300.34,-0.9 1306.72,-0.89 1313.15,-1 1319.65,-1.22 1326.18,-1.55 1332.76,-2 1339.37,-2.56 1346,-3.23 1352.64,-4 1359.28,-4.88 1365.91,-5.86 1372.51,-6.94 1379.07,-8.11 1385.56,-9.37 1391.98,-10.73 1398.3,-12.17 1404.51,-13.68 1410.57,-15.28 1416.48,-16.95 1422.21,-18.69 1427.73,-20.49 1433.02,-22.35 1438.06,-24.27 1442.82,-26.24 1447.28,-28.26 1451.41,-30.31 1455.19,-32.41 1458.6,-34.53 1461.62,-36.68 1464.22,-38.86 1466.38,-41.05 1468.09,-43.24 1469.33,-45.45 1470.08,-47.65 1470.33,-49.85 1470.07,-52.04 1469.29,-54.22 1467.98,-56.37 1466.15,-58.49 1463.78,-60.59 1460.88,-62.64 1457.45,-64.65 1453.51,-66.61 1449.05,-68.52 1444.09,-70.37 1438.66,-72.16 1432.75,-73.87 1426.4,-75.51 1419.63,-77.08 1412.46,-78.56 1404.92,-79.95 1397.03,-81.24 1388.84,-82.45 1380.37,-83.55 1371.66,-84.54 1362.73,-85.43 1353.64,-86.21 1344.42,-86.87 1335.1,-87.42 1325.73,-87.85"/>
<text text-anchor="middle" x="1312.23" y="-40.5" font-family="sans-serif" font-size="16.00">DashboardContexto</text>
</g>
<!-- AnaliticaContexto&#45;&gt;DashboardContexto -->
<g id="edge3" class="edge">
<title>AnaliticaContexto&#45;&gt;DashboardContexto</title>
<path fill="none" stroke="black" stroke-width="2" d="M1312.23,-140.44C1312.23,-123.92 1312.23,-104.95 1312.23,-88.31"/>
<text text-anchor="middle" x="1387.73" y="-110.01" font-family="sans-serif" font-size="12.00"> &#160;&#160;&#160;&#160;&#160;&#160;&#160;&#160;&#160;&#160;&#160;&#160;&#160;&#160;&#160;&#160;&#160;&#160;&#160;&#160;&#160;&#160;&#160;&#160;&#160;&#160;&#160;&#160;&#160;&#160;&#160;&#160;&#160;&#160;&#160;&#160;&#160;&#160;&#160;</text>
<polygon fill="white" stroke="transparent" points="1289.23,-78.31 1289.23,-97.31 1305.23,-97.31 1305.23,-78.31 1289.23,-78.31"/>
<polyline fill="none" stroke="black" points="1305.23,-78.31 1305.23,-97.31 "/>
<text text-anchor="start" x="1292.23" y="-84.71" font-family="sans-serif" font-size="12.00">D</text>
<polygon fill="white" stroke="transparent" points="1305.23,-78.31 1305.23,-97.31 1335.23,-97.31 1335.23,-78.31 1305.23,-78.31"/>
<polygon fill="none" stroke="black" points="1305.23,-78.31 1305.23,-97.31 1335.23,-97.31 1335.23,-78.31 1305.23,-78.31"/>
<text text-anchor="start" x="1308.23" y="-84.71" font-family="sans-serif" font-size="12.00">ACL</text>
<polygon fill="white" stroke="transparent" points="1277.23,-130.44 1277.23,-149.44 1293.23,-149.44 1293.23,-130.44 1277.23,-130.44"/>
<polyline fill="none" stroke="black" points="1293.23,-130.44 1293.23,-149.44 "/>
<text text-anchor="start" x="1280.23" y="-136.84" font-family="sans-serif" font-size="12.00">U</text>
<polygon fill="white" stroke="transparent" points="1293.23,-130.44 1293.23,-149.44 1348.23,-149.44 1348.23,-130.44 1293.23,-130.44"/>
<polygon fill="none" stroke="black" points="1293.23,-130.44 1293.23,-149.44 1348.23,-149.44 1348.23,-130.44 1293.23,-130.44"/>
<text text-anchor="start" x="1296.23" y="-136.84" font-family="sans-serif" font-size="12.00">OHS, PL</text>
</g>
<!-- MarketingAfiliadosContexto -->
<g id="node5" class="node">
<title>MarketingAfiliadosContexto</title>
<polygon fill="none" stroke="black" stroke-width="2" points="581.83,-370.4 569.58,-370.71 557.36,-370.9 545.22,-370.96 533.2,-370.9 521.35,-370.71 509.72,-370.4 498.36,-369.97 487.3,-369.41 476.59,-368.73 466.26,-367.93 456.35,-367 446.89,-365.96 437.91,-364.81 429.44,-363.55 421.5,-362.17 414.11,-360.7 407.28,-359.12 401.04,-357.45 395.39,-355.69 390.33,-353.84 385.88,-351.91 382.03,-349.91 378.78,-347.85 376.13,-345.72 374.07,-343.53 372.58,-341.3 371.66,-339.02 371.3,-336.72 371.47,-334.38 372.16,-332.02 373.35,-329.65 375.03,-327.28 377.16,-324.9 379.74,-322.54 382.73,-320.19 386.12,-317.86 389.88,-315.56 394,-313.3 398.45,-311.09 403.2,-308.92 408.25,-306.81 413.57,-304.76 419.15,-302.78 424.96,-300.87 430.99,-299.04 437.23,-297.29 443.66,-295.63 450.28,-294.07 457.06,-292.6 463.99,-291.23 471.08,-289.96 478.31,-288.8 485.68,-287.75 493.17,-286.81 500.78,-285.98 508.51,-285.27 516.35,-284.67 524.3,-284.19 532.35,-283.83 540.49,-283.58 548.72,-283.45 557.04,-283.44 565.44,-283.55 573.9,-283.77 582.43,-284.1 591.01,-284.55 599.62,-285.11 608.27,-285.78 616.93,-286.55 625.59,-287.43 634.23,-288.41 642.84,-289.49 651.39,-290.66 659.86,-291.92 668.23,-293.28 676.47,-294.71 684.56,-296.23 692.48,-297.83 700.18,-299.5 707.65,-301.24 714.85,-303.04 721.75,-304.9 728.32,-306.82 734.52,-308.79 740.34,-310.81 745.73,-312.86 750.66,-314.96 755.11,-317.08 759.04,-319.23 762.43,-321.41 765.25,-323.59 767.48,-325.79 769.09,-328 770.07,-330.2 770.4,-332.4 770.06,-334.59 769.05,-336.77 767.34,-338.92 764.95,-341.04 761.86,-343.14 758.08,-345.19 753.61,-347.2 748.46,-349.16 742.65,-351.07 736.19,-352.92 729.1,-354.71 721.4,-356.42 713.12,-358.06 704.28,-359.63 694.93,-361.11 685.1,-362.5 674.82,-363.79 664.13,-365 653.09,-366.1 641.72,-367.09 630.09,-367.98 618.24,-368.76 606.21,-369.42 594.06,-369.97 581.83,-370.4"/>
<text text-anchor="middle" x="564.23" y="-323.05" font-family="sans-serif" font-size="16.00">MarketingAfiliadosContexto</text>
</g>
<!-- MarketingAfiliadosContexto&#45;&gt;AnaliticaContexto -->
<g id="edge5" class="edge">
<title>MarketingAfiliadosContexto&#45;&gt;AnaliticaContexto</title>
<path fill="none" stroke="black" stroke-width="2" d="M644.24,-289.45C687.53,-270.03 734.35,-249.58 745.23,-246.97 874.25,-215.99 911.38,-243.86 1043.23,-228.97 1091.68,-223.5 1144.69,-215.2 1190.75,-207.23"/>
<text text-anchor="middle" x="820.73" y="-250.37" font-family="sans-serif" font-size="12.00"> &#160;&#160;&#160;&#160;&#160;&#160;&#160;&#160;&#160;&#160;&#160;&#160;&#160;&#160;&#160;&#160;&#160;&#160;&#160;&#160;&#160;&#160;&#160;&#160;&#160;&#160;&#160;&#160;&#160;&#160;&#160;&#160;&#160;&#160;&#160;&#160;&#160;&#160;&#160;</text>
<polygon fill="white" stroke="transparent" points="1183.75,-198.23 1183.75,-215.23 1197.75,-215.23 1197.75,-198.23 1183.75,-198.23"/>
<text text-anchor="start" x="1185.75" y="-203.63" font-family="sans-serif" font-size="12.00">D</text>
<polygon fill="white" stroke="transparent" points="637.24,-280.45 637.24,-297.45 651.24,-297.45 651.24,-280.45 637.24,-280.45"/>
<text text-anchor="start" x="639.24" y="-285.85" font-family="sans-serif" font-size="12.00">U</text>
</g>
<!-- MarketingAfiliadosContexto&#45;&gt;PagosContexto -->
<g id="edge4" class="edge">
<title>MarketingAfiliadosContexto&#45;&gt;PagosContexto</title>
<path fill="none" stroke="black" stroke-width="2" d="M549.47,-283.39C547.66,-270.44 548.85,-256.99 557.23,-246.97 587.06,-211.27 703.8,-195.86 793.72,-189.24"/>
<text text-anchor="middle" x="632.73" y="-250.37" font-family="sans-serif" font-size="12.00"> &#160;&#160;&#160;&#160;&#160;&#160;&#160;&#160;&#160;&#160;&#160;&#160;&#160;&#160;&#160;&#160;&#160;&#160;&#160;&#160;&#160;&#160;&#160;&#160;&#160;&#160;&#160;&#160;&#160;&#160;&#160;&#160;&#160;&#160;&#160;&#160;&#160;&#160;&#160;</text>
<polygon fill="white" stroke="transparent" points="770.72,-179.24 770.72,-198.24 786.72,-198.24 786.72,-179.24 770.72,-179.24"/>
<polyline fill="none" stroke="black" points="786.72,-179.24 786.72,-198.24 "/>
<text text-anchor="start" x="773.72" y="-185.64" font-family="sans-serif" font-size="12.00">D</text>
<polygon fill="white" stroke="transparent" points="786.72,-179.24 786.72,-198.24 816.72,-198.24 816.72,-179.24 786.72,-179.24"/>
<polygon fill="none" stroke="black" points="786.72,-179.24 786.72,-198.24 816.72,-198.24 816.72,-179.24 786.72,-179.24"/>
<text text-anchor="start" x="789.72" y="-185.64" font-family="sans-serif" font-size="12.00">ACL</text>
<polygon fill="white" stroke="transparent" points="514.47,-273.39 514.47,-292.39 530.47,-292.39 530.47,-273.39 514.47,-273.39"/>
<polyline fill="none" stroke="black" points="530.47,-273.39 530.47,-292.39 "/>
<text text-anchor="start" x="517.47" y="-279.79" font-family="sans-serif" font-size="12.00">U</text>
<polygon fill="white" stroke="transparent" points="530.47,-273.39 530.47,-292.39 585.47,-292.39 585.47,-273.39 530.47,-273.39"/>
<polygon fill="none" stroke="black" points="530.47,-273.39 530.47,-292.39 585.47,-292.39 585.47,-273.39 530.47,-273.39"/>
<text text-anchor="start" x="533.47" y="-279.79" font-family="sans-serif" font-size="12.00">OHS, PL</text>
</g>
<!-- MarketingInfluencersContexto -->
<g id="node6" class="node">
<title>MarketingInfluencersContexto</title>
<polygon fill="none" stroke="black" stroke-width="2" points="1013.04,-370.81 999.77,-370.92 986.57,-370.9 973.49,-370.77 960.58,-370.51 947.91,-370.14 935.5,-369.63 923.43,-369.01 911.72,-368.27 900.42,-367.42 889.57,-366.44 879.21,-365.36 869.38,-364.16 860.1,-362.86 851.4,-361.45 843.31,-359.95 835.84,-358.35 829.01,-356.66 822.84,-354.88 817.34,-353.02 812.5,-351.09 808.34,-349.08 804.84,-347.01 802.02,-344.89 799.86,-342.71 798.35,-340.48 797.47,-338.22 797.22,-335.93 797.58,-333.6 798.52,-331.26 800.03,-328.91 802.08,-326.56 804.65,-324.2 807.72,-321.86 811.25,-319.53 815.23,-317.22 819.63,-314.94 824.42,-312.7 829.58,-310.5 835.08,-308.35 840.9,-306.25 847.01,-304.22 853.4,-302.25 860.04,-300.35 866.9,-298.53 873.98,-296.8 881.26,-295.15 888.71,-293.59 896.33,-292.12 904.09,-290.76 912,-289.5 920.03,-288.34 928.18,-287.3 936.44,-286.36 944.8,-285.54 953.26,-284.84 961.8,-284.25 970.42,-283.78 979.12,-283.42 987.89,-283.19 996.73,-283.08 1005.63,-283.08 1014.57,-283.21 1023.57,-283.45 1032.6,-283.81 1041.65,-284.28 1050.73,-284.87 1059.82,-285.57 1068.9,-286.38 1077.96,-287.3 1086.99,-288.32 1095.96,-289.44 1104.87,-290.66 1113.68,-291.98 1122.38,-293.38 1130.94,-294.88 1139.34,-296.45 1147.55,-298.11 1155.54,-299.84 1163.28,-301.64 1170.74,-303.5 1177.9,-305.43 1184.72,-307.41 1191.16,-309.44 1197.19,-311.51 1202.79,-313.63 1207.92,-315.78 1212.55,-317.96 1216.64,-320.16 1220.17,-322.38 1223.11,-324.61 1225.44,-326.86 1227.12,-329.1 1228.14,-331.33 1228.48,-333.56 1228.12,-335.77 1227.04,-337.96 1225.25,-340.12 1222.72,-342.25 1219.45,-344.35 1215.45,-346.39 1210.72,-348.39 1205.27,-350.34 1199.1,-352.22 1192.23,-354.04 1184.68,-355.79 1176.48,-357.46 1167.64,-359.06 1158.2,-360.57 1148.2,-361.99 1137.67,-363.32 1126.64,-364.56 1115.17,-365.69 1103.29,-366.72 1091.05,-367.65 1078.51,-368.46 1065.72,-369.16 1052.72,-369.75 1039.57,-370.22 1026.32,-370.57 1013.04,-370.81"/>
<text text-anchor="middle" x="1008.23" y="-323.05" font-family="sans-serif" font-size="16.00">MarketingInfluencersContexto</text>
</g>
<!-- MarketingInfluencersContexto&#45;&gt;AnaliticaContexto -->
<g id="edge7" class="edge">
<title>MarketingInfluencersContexto&#45;&gt;AnaliticaContexto</title>
<path fill="none" stroke="black" stroke-width="2" d="M1038.04,-284C1049.54,-270.47 1063.68,-256.51 1079.23,-246.97 1111,-227.47 1148.85,-213.96 1184.7,-204.62"/>
<text text-anchor="middle" x="1154.73" y="-250.37" font-family="sans-serif" font-size="12.00"> &#160;&#160;&#160;&#160;&#160;&#160;&#160;&#160;&#160;&#160;&#160;&#160;&#160;&#160;&#160;&#160;&#160;&#160;&#160;&#160;&#160;&#160;&#160;&#160;&#160;&#160;&#160;&#160;&#160;&#160;&#160;&#160;&#160;&#160;&#160;&#160;&#160;&#160;&#160;</text>
<polygon fill="white" stroke="transparent" points="1177.7,-195.62 1177.7,-212.62 1191.7,-212.62 1191.7,-195.62 1177.7,-195.62"/>
<text text-anchor="start" x="1179.7" y="-201.02" font-family="sans-serif" font-size="12.00">D</text>
<polygon fill="white" stroke="transparent" points="1031.04,-275 1031.04,-292 1045.04,-292 1045.04,-275 1031.04,-275"/>
<text text-anchor="start" x="1033.04" y="-280.4" font-family="sans-serif" font-size="12.00">U</text>
</g>
<!-- MarketingInfluencersContexto&#45;&gt;PagosContexto -->
<g id="edge6" class="edge">
<title>MarketingInfluencersContexto&#45;&gt;PagosContexto</title>
<path fill="none" stroke="black" stroke-width="2" d="M928.43,-287.07C919.18,-279.36 911,-270.36 905.23,-259.97 899.61,-249.86 897.73,-237.76 897.69,-226.23"/>
<text text-anchor="middle" x="980.73" y="-250.37" font-family="sans-serif" font-size="12.00"> &#160;&#160;&#160;&#160;&#160;&#160;&#160;&#160;&#160;&#160;&#160;&#160;&#160;&#160;&#160;&#160;&#160;&#160;&#160;&#160;&#160;&#160;&#160;&#160;&#160;&#160;&#160;&#160;&#160;&#160;&#160;&#160;&#160;&#160;&#160;&#160;&#160;&#160;&#160;</text>
<polygon fill="white" stroke="transparent" points="874.69,-216.23 874.69,-235.23 890.69,-235.23 890.69,-216.23 874.69,-216.23"/>
<polyline fill="none" stroke="black" points="890.69,-216.23 890.69,-235.23 "/>
<text text-anchor="start" x="877.69" y="-222.63" font-family="sans-serif" font-size="12.00">D</text>
<polygon fill="white" stroke="transparent" points="890.69,-216.23 890.69,-235.23 920.69,-235.23 920.69,-216.23 890.69,-216.23"/>
<polygon fill="none" stroke="black" points="890.69,-216.23 890.69,-235.23 920.69,-235.23 920.69,-216.23 890.69,-216.23"/>
<text text-anchor="start" x="893.69" y="-222.63" font-family="sans-serif" font-size="12.00">ACL</text>
<polygon fill="white" stroke="transparent" points="893.43,-277.07 893.43,-296.07 909.43,-296.07 909.43,-277.07 893.43,-277.07"/>
<polyline fill="none" stroke="black" points="909.43,-277.07 909.43,-296.07 "/>
<text text-anchor="start" x="896.43" y="-283.47" font-family="sans-serif" font-size="12.00">U</text>
<polygon fill="white" stroke="transparent" points="909.43,-277.07 909.43,-296.07 964.43,-296.07 964.43,-277.07 909.43,-277.07"/>
<polygon fill="none" stroke="black" points="909.43,-277.07 909.43,-296.07 964.43,-296.07 964.43,-277.07 909.43,-277.07"/>
<text text-anchor="start" x="912.43" y="-283.47" font-family="sans-serif" font-size="12.00">OHS, PL</text>
</g>
<!-- PlataformaContexto -->
<g id="node7" class="node">
<title>PlataformaContexto</title>
<polygon fill="none" stroke="black" stroke-width="2" points="1276.46,-303.21 1281.44,-300.78 1286.72,-298.42 1292.29,-296.16 1298.13,-294 1304.2,-291.94 1310.5,-290 1317,-288.19 1323.67,-286.51 1330.51,-284.97 1337.47,-283.57 1344.56,-282.32 1351.73,-281.23 1358.97,-280.3 1366.27,-279.53 1373.59,-278.92 1380.93,-278.48 1388.26,-278.2 1395.56,-278.09 1402.82,-278.14 1410.01,-278.35 1417.14,-278.73 1424.16,-279.26 1431.09,-279.94 1437.89,-280.77 1444.55,-281.73 1451.07,-282.84 1457.43,-284.08 1463.62,-285.43 1469.63,-286.91 1475.44,-288.49 1481.05,-290.17 1486.45,-291.94 1491.63,-293.79 1496.57,-295.72 1501.28,-297.72 1505.74,-299.78 1509.95,-301.88 1513.9,-304.03 1517.57,-306.22 1520.97,-308.42 1524.09,-310.65 1526.92,-312.89 1529.45,-315.13 1531.68,-317.38 1533.6,-319.61 1535.2,-321.83 1536.49,-324.03 1537.45,-326.21 1538.07,-328.36 1538.37,-330.47 1538.32,-332.55 1537.93,-334.59 1537.19,-336.59 1536.11,-338.54 1534.67,-340.45 1532.88,-342.3 1530.73,-344.11 1528.23,-345.86 1525.37,-347.56 1522.17,-349.2 1518.61,-350.79 1514.72,-352.32 1510.48,-353.79 1505.9,-355.2 1501.01,-356.56 1495.79,-357.85 1490.26,-359.09 1484.44,-360.26 1478.34,-361.37 1471.96,-362.41 1465.33,-363.39 1458.46,-364.3 1451.37,-365.14 1444.08,-365.92 1436.6,-366.61 1428.96,-367.24 1421.18,-367.78 1413.29,-368.25 1405.3,-368.63 1397.25,-368.92 1389.15,-369.13 1381.04,-369.24 1372.94,-369.26 1364.88,-369.18 1356.88,-369.01 1348.98,-368.72 1341.2,-368.34 1333.56,-367.84 1326.1,-367.23 1318.84,-366.51 1311.81,-365.68 1305.02,-364.73 1298.52,-363.67 1292.31,-362.49 1286.42,-361.19 1280.88,-359.78 1275.7,-358.25 1270.9,-356.61 1266.49,-354.86 1262.5,-353 1258.93,-351.04 1255.8,-348.99 1253.12,-346.83 1250.89,-344.59 1249.12,-342.27 1247.82,-339.87 1246.99,-337.4 1246.62,-334.87 1246.72,-332.29 1247.28,-329.66 1248.3,-327 1249.77,-324.32 1251.69,-321.62 1254.03,-318.92 1256.8,-316.22 1259.98,-313.54 1263.55,-310.89 1267.5,-308.28 1271.81,-305.72 1276.46,-303.21"/>
<text text-anchor="middle" x="1398.23" y="-323.05" font-family="sans-serif" font-size="16.00">PlataformaContexto</text>
</g>
<!-- PlataformaContexto&#45;&gt;AnaliticaContexto -->
<g id="edge8" class="edge">
<title>PlataformaContexto&#45;&gt;AnaliticaContexto</title>
<path fill="none" stroke="black" stroke-width="2" d="M1410.16,-278.21C1410.63,-267.46 1409.23,-256.44 1404.23,-246.97 1399.89,-238.77 1393.95,-231.44 1387.15,-224.94"/>
<text text-anchor="middle" x="1483.73" y="-250.37" font-family="sans-serif" font-size="12.00"> &#160;&#160;&#160;&#160;&#160;&#160;&#160;&#160;&#160;&#160;&#160;&#160;&#160;&#160;&#160;&#160;&#160;&#160;&#160;&#160;&#160;&#160;&#160;&#160;&#160;&#160;&#160;&#160;&#160;&#160;&#160;&#160;&#160;&#160;&#160;&#160;&#160;&#160;&#160;</text>
<polygon fill="white" stroke="transparent" points="1380.15,-215.94 1380.15,-232.94 1394.15,-232.94 1394.15,-215.94 1380.15,-215.94"/>
<text text-anchor="start" x="1382.15" y="-221.34" font-family="sans-serif" font-size="12.00">D</text>
<polygon fill="white" stroke="transparent" points="1403.16,-269.21 1403.16,-286.21 1417.16,-286.21 1417.16,-269.21 1403.16,-269.21"/>
<text text-anchor="start" x="1405.16" y="-274.61" font-family="sans-serif" font-size="12.00">U</text>
</g>
<!-- PlataformaContexto&#45;&gt;PagosContexto -->
<g id="edge9" class="edge">
<title>PlataformaContexto&#45;&gt;PagosContexto</title>
<path fill="none" stroke="black" stroke-width="2" d="M1309.86,-289.99C1289.59,-280.88 1268.38,-270.64 1249.23,-259.97 1240.29,-254.99 1239.67,-250.91 1230.23,-246.97 1210.15,-238.6 1100.33,-218.29 1013.63,-203.05"/>
<text text-anchor="middle" x="1324.73" y="-250.37" font-family="sans-serif" font-size="12.00"> &#160;&#160;&#160;&#160;&#160;&#160;&#160;&#160;&#160;&#160;&#160;&#160;&#160;&#160;&#160;&#160;&#160;&#160;&#160;&#160;&#160;&#160;&#160;&#160;&#160;&#160;&#160;&#160;&#160;&#160;&#160;&#160;&#160;&#160;&#160;&#160;&#160;&#160;&#160;</text>
<polygon fill="white" stroke="transparent" points="1006.63,-194.05 1006.63,-211.05 1020.63,-211.05 1020.63,-194.05 1006.63,-194.05"/>
<text text-anchor="start" x="1008.63" y="-199.45" font-family="sans-serif" font-size="12.00">D</text>
<polygon fill="white" stroke="transparent" points="1302.86,-280.99 1302.86,-297.99 1316.86,-297.99 1316.86,-280.99 1302.86,-280.99"/>
<text text-anchor="start" x="1304.86" y="-286.39" font-family="sans-serif" font-size="12.00">U</text>
</g>
<!-- ProgramasLealtadContexto -->
<g id="node8" class="node">
<title>ProgramasLealtadContexto</title>
<polygon fill="none" stroke="black" stroke-width="2" points="1892.74,-293.06 1902.2,-294.86 1911.27,-296.74 1919.92,-298.69 1928.11,-300.71 1935.81,-302.79 1942.98,-304.93 1949.59,-307.1 1955.61,-309.32 1961.03,-311.57 1965.81,-313.84 1969.95,-316.12 1973.42,-318.41 1976.21,-320.71 1978.31,-323 1979.72,-325.28 1980.43,-327.54 1980.45,-329.79 1979.78,-332 1978.43,-334.18 1976.4,-336.32 1973.72,-338.42 1970.39,-340.47 1966.45,-342.47 1961.9,-344.42 1956.78,-346.31 1951.1,-348.14 1944.91,-349.9 1938.23,-351.6 1931.1,-353.23 1923.54,-354.79 1915.59,-356.27 1907.29,-357.68 1898.68,-359.02 1889.78,-360.27 1880.64,-361.45 1871.29,-362.54 1861.77,-363.55 1852.12,-364.48 1842.36,-365.32 1832.54,-366.07 1822.68,-366.74 1812.82,-367.32 1802.98,-367.81 1793.2,-368.2 1783.5,-368.51 1773.91,-368.72 1764.45,-368.84 1755.14,-368.86 1746.01,-368.79 1737.06,-368.62 1728.32,-368.35 1719.8,-367.99 1711.51,-367.52 1703.46,-366.95 1695.68,-366.29 1688.15,-365.52 1680.9,-364.66 1673.92,-363.69 1667.23,-362.62 1660.82,-361.46 1654.7,-360.19 1648.87,-358.83 1643.34,-357.37 1638.11,-355.82 1633.18,-354.18 1628.55,-352.45 1624.22,-350.64 1620.2,-348.74 1616.49,-346.77 1613.1,-344.72 1610.02,-342.61 1607.26,-340.43 1604.83,-338.19 1602.72,-335.9 1600.96,-333.56 1599.53,-331.18 1598.46,-328.77 1597.74,-326.34 1597.39,-323.89 1597.4,-321.42 1597.8,-318.96 1598.59,-316.5 1599.78,-314.06 1601.37,-311.64 1603.37,-309.26 1605.79,-306.91 1608.64,-304.61 1611.93,-302.37 1615.65,-300.2 1619.81,-298.1 1624.42,-296.09 1629.47,-294.16 1634.97,-292.33 1640.91,-290.6 1647.29,-288.99 1654.1,-287.49 1661.33,-286.12 1668.98,-284.87 1677.03,-283.76 1685.46,-282.78 1694.27,-281.95 1703.42,-281.25 1712.9,-280.71 1722.68,-280.31 1732.73,-280.06 1743.03,-279.96 1753.55,-280.01 1764.25,-280.21 1775.09,-280.56 1786.05,-281.05 1797.07,-281.68 1808.13,-282.45 1819.18,-283.35 1830.18,-284.39 1841.09,-285.55 1851.86,-286.84 1862.45,-288.24 1872.83,-289.74 1882.94,-291.36 1892.74,-293.06"/>
<text text-anchor="middle" x="1774.23" y="-323.05" font-family="sans-serif" font-size="16.00">ProgramasLealtadContexto</text>
</g>
<!-- ProgramasLealtadContexto&#45;&gt;AnaliticaContexto -->
<g id="edge11" class="edge">
<title>ProgramasLealtadContexto&#45;&gt;AnaliticaContexto</title>
<path fill="none" stroke="black" stroke-width="2" d="M1770.61,-280.01C1767.42,-267.66 1761.85,-255.41 1752.23,-246.97 1707.2,-207.47 1554.97,-192.83 1442.11,-187.42"/>
<text text-anchor="middle" x="1836.73" y="-250.37" font-family="sans-serif" font-size="12.00"> &#160;&#160;&#160;&#160;&#160;&#160;&#160;&#160;&#160;&#160;&#160;&#160;&#160;&#160;&#160;&#160;&#160;&#160;&#160;&#160;&#160;&#160;&#160;&#160;&#160;&#160;&#160;&#160;&#160;&#160;&#160;&#160;&#160;&#160;&#160;&#160;&#160;&#160;&#160;</text>
<polygon fill="white" stroke="transparent" points="1435.11,-178.42 1435.11,-195.42 1449.11,-195.42 1449.11,-178.42 1435.11,-178.42"/>
<text text-anchor="start" x="1437.11" y="-183.82" font-family="sans-serif" font-size="12.00">D</text>
<polygon fill="white" stroke="transparent" points="1763.61,-271.01 1763.61,-288.01 1777.61,-288.01 1777.61,-271.01 1763.61,-271.01"/>
<text text-anchor="start" x="1765.61" y="-276.41" font-family="sans-serif" font-size="12.00">U</text>
</g>
<!-- ProgramasLealtadContexto&#45;&gt;PagosContexto -->
<g id="edge10" class="edge">
<title>ProgramasLealtadContexto&#45;&gt;PagosContexto</title>
<path fill="none" stroke="black" stroke-width="2" d="M1665.12,-285.41C1642.65,-277.04 1619.16,-268.25 1597.23,-259.97 1582.09,-254.26 1579.07,-250.26 1563.23,-246.97 1385.94,-210.17 1336.2,-248.82 1156.23,-228.97 1107.09,-223.55 1053.07,-214.4 1007.69,-205.79"/>
<text text-anchor="middle" x="1672.73" y="-250.37" font-family="sans-serif" font-size="12.00"> &#160;&#160;&#160;&#160;&#160;&#160;&#160;&#160;&#160;&#160;&#160;&#160;&#160;&#160;&#160;&#160;&#160;&#160;&#160;&#160;&#160;&#160;&#160;&#160;&#160;&#160;&#160;&#160;&#160;&#160;&#160;&#160;&#160;&#160;&#160;&#160;&#160;&#160;&#160;</text>
<polygon fill="white" stroke="transparent" points="984.69,-195.79 984.69,-214.79 1000.69,-214.79 1000.69,-195.79 984.69,-195.79"/>
<polyline fill="none" stroke="black" points="1000.69,-195.79 1000.69,-214.79 "/>
<text text-anchor="start" x="987.69" y="-202.19" font-family="sans-serif" font-size="12.00">D</text>
<polygon fill="white" stroke="transparent" points="1000.69,-195.79 1000.69,-214.79 1030.69,-214.79 1030.69,-195.79 1000.69,-195.79"/>
<polygon fill="none" stroke="black" points="1000.69,-195.79 1000.69,-214.79 1030.69,-214.79 1030.69,-195.79 1000.69,-195.79"/>
<text text-anchor="start" x="1003.69" y="-202.19" font-family="sans-serif" font-size="12.00">ACL</text>
<polygon fill="white" stroke="transparent" points="1630.12,-275.41 1630.12,-294.41 1646.12,-294.41 1646.12,-275.41 1630.12,-275.41"/>
<polyline fill="none" stroke="black" points="1646.12,-275.41 1646.12,-294.41 "/>
<text text-anchor="start" x="1633.12" y="-281.81" font-family="sans-serif" font-size="12.00">U</text>
<polygon fill="white" stroke="transparent" points="1646.12,-275.41 1646.12,-294.41 1701.12,-294.41 1701.12,-275.41 1646.12,-275.41"/>
<polygon fill="none" stroke="black" points="1646.12,-275.41 1646.12,-294.41 1701.12,-294.41 1701.12,-275.41 1646.12,-275.41"/>
<text text-anchor="start" x="1649.12" y="-281.81" font-family="sans-serif" font-size="12.00">OHS, PL</text>
</g>
<!-- TrackerMonolitoContexto -->
<g id="node9" class="node">
<title>TrackerMonolitoContexto</title>
<polygon fill="none" stroke="black" stroke-width="2" points="2336.21,-342.3 2332.38,-345 2328.13,-347.63 2323.46,-350.2 2318.41,-352.68 2312.98,-355.07 2307.2,-357.37 2301.08,-359.55 2294.65,-361.62 2287.91,-363.55 2280.9,-365.36 2273.63,-367.02 2266.13,-368.54 2258.42,-369.91 2250.51,-371.13 2242.43,-372.18 2234.21,-373.08 2225.85,-373.81 2217.4,-374.38 2208.85,-374.79 2200.25,-375.03 2191.61,-375.12 2182.94,-375.04 2174.28,-374.81 2165.64,-374.43 2157.03,-373.9 2148.49,-373.23 2140.03,-372.43 2131.67,-371.49 2123.43,-370.43 2115.33,-369.25 2107.38,-367.96 2099.6,-366.56 2092.02,-365.07 2084.64,-363.5 2077.49,-361.84 2070.58,-360.11 2063.92,-358.31 2057.54,-356.46 2051.44,-354.56 2045.64,-352.61 2040.16,-350.63 2035.02,-348.62 2030.21,-346.58 2025.76,-344.53 2021.68,-342.47 2017.97,-340.4 2014.66,-338.32 2011.75,-336.26 2009.25,-334.19 2007.17,-332.14 2005.52,-330.1 2004.3,-328.08 2003.52,-326.08 2003.19,-324.11 2003.31,-322.15 2003.89,-320.22 2004.92,-318.32 2006.41,-316.45 2008.36,-314.61 2010.76,-312.8 2013.62,-311.03 2016.93,-309.29 2020.68,-307.58 2024.87,-305.91 2029.5,-304.27 2034.54,-302.68 2040,-301.12 2045.85,-299.61 2052.09,-298.14 2058.69,-296.72 2065.65,-295.34 2072.95,-294.02 2080.56,-292.75 2088.47,-291.53 2096.65,-290.38 2105.08,-289.29 2113.74,-288.27 2122.6,-287.31 2131.64,-286.44 2140.83,-285.64 2150.14,-284.93 2159.54,-284.31 2169.01,-283.78 2178.51,-283.35 2188.02,-283.02 2197.51,-282.79 2206.94,-282.68 2216.28,-282.69 2225.52,-282.81 2234.61,-283.06 2243.53,-283.43 2252.25,-283.93 2260.74,-284.56 2268.98,-285.32 2276.94,-286.22 2284.59,-287.25 2291.91,-288.42 2298.88,-289.72 2305.47,-291.16 2311.67,-292.72 2317.46,-294.41 2322.81,-296.23 2327.72,-298.17 2332.17,-300.22 2336.15,-302.38 2339.65,-304.65 2342.65,-307.01 2345.16,-309.46 2347.16,-311.99 2348.66,-314.59 2349.65,-317.26 2350.13,-319.98 2350.1,-322.74 2349.57,-325.53 2348.54,-328.34 2347.02,-331.16 2345.02,-333.98 2342.54,-336.78 2339.6,-339.56 2336.21,-342.3"/>
<text text-anchor="middle" x="2174.23" y="-323.05" font-family="sans-serif" font-size="16.00">TrackerMonolitoContexto</text>
</g>
<!-- TrackerMonolitoContexto&#45;&gt;AnaliticaContexto -->
<g id="edge12" class="edge">
<title>TrackerMonolitoContexto&#45;&gt;AnaliticaContexto</title>
<path fill="none" stroke="black" stroke-width="2" d="M2080.99,-292.58C2032.45,-276.47 1971.77,-258.23 1916.23,-246.97 1754.92,-214.26 1565.71,-198.13 1442.64,-190.53"/>
<text text-anchor="middle" x="2041.73" y="-250.37" font-family="sans-serif" font-size="12.00"> &#160;&#160;&#160;&#160;&#160;&#160;&#160;&#160;&#160;&#160;&#160;&#160;&#160;&#160;&#160;&#160;&#160;&#160;&#160;&#160;&#160;&#160;&#160;&#160;&#160;&#160;&#160;&#160;&#160;&#160;&#160;&#160;&#160;&#160;&#160;&#160;&#160;&#160;&#160;</text>
<polygon fill="white" stroke="transparent" points="1423.64,-180.53 1423.64,-199.53 1439.64,-199.53 1439.64,-180.53 1423.64,-180.53"/>
<polyline fill="none" stroke="black" points="1439.64,-180.53 1439.64,-199.53 "/>
<text text-anchor="start" x="1426.64" y="-186.93" font-family="sans-serif" font-size="12.00">D</text>
<polygon fill="white" stroke="transparent" points="1439.64,-180.53 1439.64,-199.53 1461.64,-199.53 1461.64,-180.53 1439.64,-180.53"/>
<polygon fill="none" stroke="black" points="1439.64,-180.53 1439.64,-199.53 1461.64,-199.53 1461.64,-180.53 1439.64,-180.53"/>
<text text-anchor="start" x="1442.64" y="-186.93" font-family="sans-serif" font-size="12.00">CF</text>
<polygon fill="white" stroke="transparent" points="2045.99,-282.58 2045.99,-301.58 2061.99,-301.58 2061.99,-282.58 2045.99,-282.58"/>
<polyline fill="none" stroke="black" points="2061.99,-282.58 2061.99,-301.58 "/>
<text text-anchor="start" x="2048.99" y="-288.98" font-family="sans-serif" font-size="12.00">U</text>
<polygon fill="white" stroke="transparent" points="2061.99,-282.58 2061.99,-301.58 2116.99,-301.58 2116.99,-282.58 2061.99,-282.58"/>
<polygon fill="none" stroke="black" points="2061.99,-282.58 2061.99,-301.58 2116.99,-301.58 2116.99,-282.58 2061.99,-282.58"/>
<text text-anchor="start" x="2064.99" y="-288.98" font-family="sans-serif" font-size="12.00">OHS, PL</text>
</g>
</g>
</svg>
