<svg width="2000px" height="615px"
 viewBox="0.00 0.00 3159.07 970.53" xmlns="http://www.w3.org/2000/svg" xmlns:xlink="http://www.w3.org/1999/xlink">
<g id="graph0" class="graph" transform="scale(1.0 1.0) rotate(0) translate(4 966.53)">
<title>ContextMapGraph</title>
<polygon fill="white" stroke="transparent" points="-4,4 -4,-966.53 3155.07,-966.53 3155.07,4 -4,4"/>
<!-- AlianzasB2BContexto -->
<g id="node1" class="node">
<title>AlianzasB2BContexto</title>
<polygon fill="none" stroke="black" stroke-width="2" points="2572.53,-365.08 2566.64,-362.77 2561.12,-360.4 2556,-357.99 2551.31,-355.53 2547.07,-353.05 2543.3,-350.55 2540.01,-348.05 2537.22,-345.54 2534.93,-343.04 2533.18,-340.56 2531.95,-338.1 2531.26,-335.67 2531.11,-333.28 2531.51,-330.94 2532.44,-328.65 2533.92,-326.42 2535.92,-324.26 2538.45,-322.16 2541.49,-320.14 2545.03,-318.19 2549.06,-316.33 2553.55,-314.55 2558.5,-312.86 2563.87,-311.26 2569.64,-309.75 2575.8,-308.33 2582.31,-307 2589.15,-305.77 2596.3,-304.63 2603.71,-303.59 2611.37,-302.64 2619.23,-301.79 2627.29,-301.03 2635.49,-300.36 2643.81,-299.79 2652.23,-299.3 2660.71,-298.91 2669.22,-298.6 2677.73,-298.39 2686.22,-298.26 2694.66,-298.22 2703.02,-298.26 2711.28,-298.39 2719.42,-298.6 2727.4,-298.9 2735.22,-299.28 2742.84,-299.75 2750.27,-300.29 2757.46,-300.92 2764.42,-301.63 2771.13,-302.43 2777.57,-303.3 2783.74,-304.26 2789.63,-305.3 2795.22,-306.41 2800.51,-307.61 2805.49,-308.89 2810.17,-310.26 2814.53,-311.69 2818.57,-313.21 2822.3,-314.81 2825.7,-316.48 2828.78,-318.22 2831.55,-320.04 2833.99,-321.92 2836.11,-323.88 2837.91,-325.89 2839.4,-327.97 2840.57,-330.1 2841.42,-332.29 2841.96,-334.52 2842.18,-336.8 2842.1,-339.11 2841.71,-341.45 2841,-343.81 2839.99,-346.19 2838.67,-348.59 2837.05,-350.98 2835.12,-353.37 2832.89,-355.75 2830.35,-358.1 2827.51,-360.43 2824.36,-362.71 2820.92,-364.95 2817.17,-367.13 2813.13,-369.25 2808.79,-371.29 2804.16,-373.25 2799.25,-375.13 2794.04,-376.9 2788.56,-378.56 2782.81,-380.12 2776.79,-381.55 2770.51,-382.85 2763.99,-384.02 2757.22,-385.05 2750.23,-385.93 2743.03,-386.67 2735.63,-387.25 2728.04,-387.68 2720.29,-387.95 2712.39,-388.06 2704.36,-388 2696.23,-387.79 2688.01,-387.42 2679.73,-386.88 2671.42,-386.19 2663.09,-385.35 2654.78,-384.35 2646.52,-383.21 2638.32,-381.92 2630.23,-380.5 2622.26,-378.95 2614.45,-377.28 2606.83,-375.49 2599.42,-373.59 2592.26,-371.59 2585.37,-369.5 2578.79,-367.33 2572.53,-365.08"/>
<text text-anchor="middle" x="2697.21" y="-335.9" font-family="sans-serif" font-size="16.00">AlianzasB2BContexto</text>
</g>
<!-- OrquestadorPagosContexto -->
<g id="node2" class="node">
<title>OrquestadorPagosContexto</title>
<polygon fill="none" stroke="black" stroke-width="2" points="1171.01,-152.42 1182.61,-151.47 1194.3,-150.65 1206.04,-149.94 1217.77,-149.37 1229.46,-148.93 1241.05,-148.62 1252.51,-148.45 1263.8,-148.42 1274.86,-148.53 1285.67,-148.77 1296.19,-149.15 1306.38,-149.68 1316.22,-150.34 1325.67,-151.14 1334.71,-152.07 1343.32,-153.13 1351.47,-154.32 1359.15,-155.63 1366.34,-157.07 1373.04,-158.61 1379.23,-160.27 1384.9,-162.04 1390.06,-163.9 1394.69,-165.85 1398.81,-167.89 1402.41,-170.01 1405.5,-172.19 1408.09,-174.44 1410.18,-176.75 1411.79,-179.1 1412.92,-181.49 1413.59,-183.91 1413.81,-186.36 1413.6,-188.82 1412.96,-191.28 1411.92,-193.75 1410.49,-196.2 1408.67,-198.64 1406.5,-201.05 1403.97,-203.43 1401.11,-205.77 1397.92,-208.07 1394.42,-210.31 1390.62,-212.49 1386.53,-214.61 1382.16,-216.65 1377.51,-218.62 1372.61,-220.51 1367.44,-222.31 1362.02,-224.02 1356.36,-225.64 1350.46,-227.16 1344.33,-228.58 1337.96,-229.9 1331.36,-231.11 1324.54,-232.22 1317.5,-233.22 1310.25,-234.11 1302.78,-234.89 1295.11,-235.56 1287.24,-236.11 1279.17,-236.56 1270.91,-236.9 1262.47,-237.13 1253.87,-237.25 1245.1,-237.26 1236.19,-237.16 1227.14,-236.96 1217.98,-236.66 1208.72,-236.25 1199.38,-235.74 1189.98,-235.14 1180.54,-234.44 1171.09,-233.64 1161.65,-232.75 1152.25,-231.77 1142.92,-230.7 1133.7,-229.55 1124.6,-228.32 1115.66,-227 1106.93,-225.61 1098.42,-224.14 1090.19,-222.6 1082.25,-220.99 1074.66,-219.32 1067.43,-217.58 1060.62,-215.78 1054.24,-213.93 1048.34,-212.02 1042.95,-210.07 1038.09,-208.06 1033.8,-206.02 1030.1,-203.94 1027.02,-201.82 1024.57,-199.68 1022.79,-197.51 1021.67,-195.32 1021.25,-193.12 1021.52,-190.9 1022.5,-188.69 1024.18,-186.47 1026.58,-184.26 1029.68,-182.06 1033.48,-179.88 1037.97,-177.72 1043.13,-175.59 1048.95,-173.5 1055.41,-171.45 1062.48,-169.45 1070.13,-167.51 1078.34,-165.62 1087.07,-163.8 1096.29,-162.06 1105.96,-160.4 1116.03,-158.82 1126.47,-157.34 1137.23,-155.95 1148.28,-154.66 1159.55,-153.49 1171.01,-152.42"/>
<text text-anchor="middle" x="1230.21" y="-190.49" font-family="sans-serif" font-size="16.00">OrquestadorPagosContexto</text>
</g>
<!-- AlianzasB2BContexto&#45;&gt;OrquestadorPagosContexto -->
<g id="edge1" class="edge">
<title>AlianzasB2BContexto&#45;&gt;OrquestadorPagosContexto</title>
<path fill="none" stroke="black" stroke-width="2" d="M2599.34,-304.12C2547.9,-287.56 2483.4,-269.31 2424.21,-259.81 2210.8,-225.55 2154.08,-252.89 1938.21,-241.81 1753.53,-232.32 1541.98,-217.96 1398.58,-207.71"/>
<text text-anchor="middle" x="2559.71" y="-263.21" font-family="sans-serif" font-size="12.00"> &#160;&#160;&#160;&#160;&#160;&#160;&#160;&#160;&#160;&#160;&#160;&#160;&#160;&#160;&#160;&#160;&#160;&#160;&#160;&#160;&#160;&#160;&#160;&#160;&#160;&#160;&#160;&#160;&#160;&#160;&#160;&#160;&#160;&#160;&#160;&#160;&#160;&#160;&#160;</text>
<polygon fill="white" stroke="transparent" points="1375.58,-197.71 1375.58,-216.71 1391.58,-216.71 1391.58,-197.71 1375.58,-197.71"/>
<polyline fill="none" stroke="black" points="1391.58,-197.71 1391.58,-216.71 "/>
<text text-anchor="start" x="1378.58" y="-204.11" font-family="sans-serif" font-size="12.00">D</text>
<polygon fill="white" stroke="transparent" points="1391.58,-197.71 1391.58,-216.71 1421.58,-216.71 1421.58,-197.71 1391.58,-197.71"/>
<polygon fill="none" stroke="black" points="1391.58,-197.71 1391.58,-216.71 1421.58,-216.71 1421.58,-197.71 1391.58,-197.71"/>
<text text-anchor="start" x="1394.58" y="-204.11" font-family="sans-serif" font-size="12.00">ACL</text>
<polygon fill="white" stroke="transparent" points="2564.34,-294.12 2564.34,-313.12 2580.34,-313.12 2580.34,-294.12 2564.34,-294.12"/>
<polyline fill="none" stroke="black" points="2580.34,-294.12 2580.34,-313.12 "/>
<text text-anchor="start" x="2567.34" y="-300.52" font-family="sans-serif" font-size="12.00">U</text>
<polygon fill="white" stroke="transparent" points="2580.34,-294.12 2580.34,-313.12 2635.34,-313.12 2635.34,-294.12 2580.34,-294.12"/>
<polygon fill="none" stroke="black" points="2580.34,-294.12 2580.34,-313.12 2635.34,-313.12 2635.34,-294.12 2580.34,-294.12"/>
<text text-anchor="start" x="2583.34" y="-300.52" font-family="sans-serif" font-size="12.00">OHS, PL</text>
</g>
<!-- AnaliticaContexto -->
<g id="node3" class="node">
<title>AnaliticaContexto</title>
<polygon fill="none" stroke="black" stroke-width="2" points="2186.29,-163.01 2192.54,-165 2198.49,-167.06 2204.12,-169.19 2209.41,-171.37 2214.33,-173.61 2218.86,-175.89 2222.98,-178.2 2226.68,-180.53 2229.93,-182.88 2232.73,-185.25 2235.07,-187.61 2236.93,-189.97 2238.31,-192.32 2239.2,-194.65 2239.6,-196.95 2239.51,-199.23 2238.94,-201.46 2237.88,-203.66 2236.34,-205.81 2234.34,-207.9 2231.88,-209.94 2228.98,-211.92 2225.65,-213.84 2221.91,-215.69 2217.77,-217.47 2213.26,-219.17 2208.4,-220.81 2203.21,-222.36 2197.71,-223.84 2191.93,-225.24 2185.9,-226.56 2179.63,-227.79 2173.16,-228.95 2166.51,-230.01 2159.71,-231 2152.78,-231.9 2145.75,-232.71 2138.65,-233.43 2131.5,-234.07 2124.32,-234.62 2117.14,-235.08 2109.98,-235.46 2102.87,-235.74 2095.82,-235.94 2088.85,-236.04 2081.98,-236.06 2075.22,-235.98 2068.61,-235.81 2062.13,-235.55 2055.82,-235.2 2049.68,-234.75 2043.73,-234.21 2037.96,-233.57 2032.4,-232.84 2027.04,-232.02 2021.9,-231.1 2016.97,-230.08 2012.27,-228.97 2007.8,-227.77 2003.55,-226.47 1999.53,-225.09 1995.75,-223.61 1992.21,-222.04 1988.9,-220.39 1985.83,-218.65 1982.99,-216.83 1980.4,-214.93 1978.04,-212.95 1975.93,-210.91 1974.05,-208.79 1972.42,-206.62 1971.04,-204.39 1969.9,-202.1 1969.01,-199.77 1968.37,-197.4 1967.98,-195 1967.85,-192.58 1967.98,-190.13 1968.37,-187.68 1969.03,-185.22 1969.97,-182.77 1971.17,-180.34 1972.66,-177.92 1974.42,-175.54 1976.47,-173.2 1978.81,-170.91 1981.44,-168.68 1984.36,-166.51 1987.58,-164.42 1991.09,-162.41 1994.89,-160.5 1998.99,-158.68 2003.37,-156.96 2008.05,-155.36 2013,-153.89 2018.23,-152.53 2023.73,-151.31 2029.5,-150.22 2035.51,-149.28 2041.75,-148.48 2048.23,-147.83 2054.91,-147.33 2061.79,-146.98 2068.84,-146.78 2076.05,-146.74 2083.39,-146.85 2090.85,-147.12 2098.4,-147.54 2106.01,-148.11 2113.66,-148.82 2121.33,-149.68 2128.98,-150.68 2136.59,-151.81 2144.13,-153.07 2151.57,-154.45 2158.89,-155.96 2166.05,-157.57 2173.02,-159.29 2179.78,-161.11 2186.29,-163.01"/>
<text text-anchor="middle" x="2093.21" y="-190.49" font-family="sans-serif" font-size="16.00">AnaliticaContexto</text>
</g>
<!-- AlianzasB2BContexto&#45;&gt;AnaliticaContexto -->
<g id="edge2" class="edge">
<title>AlianzasB2BContexto&#45;&gt;AnaliticaContexto</title>
<path fill="none" stroke="black" stroke-width="2" d="M2684.16,-298.29C2677.47,-283.88 2667.8,-268.96 2654.21,-259.81 2588.62,-215.59 2382.8,-201.48 2239.61,-197.09"/>
<text text-anchor="middle" x="2743.71" y="-263.21" font-family="sans-serif" font-size="12.00"> &#160;&#160;&#160;&#160;&#160;&#160;&#160;&#160;&#160;&#160;&#160;&#160;&#160;&#160;&#160;&#160;&#160;&#160;&#160;&#160;&#160;&#160;&#160;&#160;&#160;&#160;&#160;&#160;&#160;&#160;&#160;&#160;&#160;&#160;&#160;&#160;&#160;&#160;&#160;</text>
<polygon fill="white" stroke="transparent" points="2232.61,-188.09 2232.61,-205.09 2246.61,-205.09 2246.61,-188.09 2232.61,-188.09"/>
<text text-anchor="start" x="2234.61" y="-193.49" font-family="sans-serif" font-size="12.00">D</text>
<polygon fill="white" stroke="transparent" points="2677.16,-289.29 2677.16,-306.29 2691.16,-306.29 2691.16,-289.29 2677.16,-289.29"/>
<text text-anchor="start" x="2679.16" y="-294.69" font-family="sans-serif" font-size="12.00">U</text>
</g>
<!-- DashboardContexto -->
<g id="node4" class="node">
<title>DashboardContexto</title>
<polygon fill="none" stroke="black" stroke-width="2" points="2214.98,-72.52 2210,-74.96 2204.72,-77.31 2199.15,-79.57 2193.32,-81.74 2187.24,-83.79 2180.94,-85.73 2174.44,-87.54 2167.77,-89.22 2160.94,-90.77 2153.97,-92.16 2146.89,-93.41 2139.71,-94.5 2132.47,-95.43 2125.18,-96.2 2117.85,-96.81 2110.52,-97.26 2103.19,-97.53 2095.88,-97.65 2088.63,-97.59 2081.43,-97.38 2074.31,-97.01 2067.28,-96.48 2060.36,-95.8 2053.55,-94.97 2046.89,-94 2040.37,-92.89 2034.01,-91.66 2027.82,-90.3 2021.82,-88.83 2016,-87.25 2010.39,-85.57 2004.99,-83.8 1999.82,-81.94 1994.87,-80.01 1990.16,-78.01 1985.7,-75.96 1981.49,-73.85 1977.55,-71.7 1973.87,-69.52 1970.47,-67.31 1967.35,-65.08 1964.53,-62.84 1961.99,-60.6 1959.77,-58.36 1957.85,-56.12 1956.24,-53.9 1954.96,-51.7 1954,-49.53 1953.37,-47.38 1953.07,-45.26 1953.12,-43.18 1953.51,-41.14 1954.25,-39.14 1955.34,-37.19 1956.77,-35.29 1958.57,-33.43 1960.71,-31.63 1963.21,-29.88 1966.07,-28.18 1969.27,-26.53 1972.83,-24.95 1976.73,-23.42 1980.97,-21.95 1985.54,-20.53 1990.44,-19.18 1995.65,-17.88 2001.18,-16.65 2007,-15.48 2013.1,-14.37 2019.48,-13.32 2026.11,-12.34 2032.98,-11.43 2040.07,-10.59 2047.37,-9.82 2054.84,-9.12 2062.48,-8.5 2070.26,-7.95 2078.15,-7.49 2086.14,-7.11 2094.19,-6.81 2102.29,-6.61 2110.4,-6.49 2118.5,-6.47 2126.56,-6.55 2134.56,-6.73 2142.46,-7.01 2150.24,-7.4 2157.88,-7.89 2165.34,-8.5 2172.6,-9.22 2179.64,-10.05 2186.42,-11 2192.93,-12.07 2199.13,-13.25 2205.02,-14.55 2210.56,-15.96 2215.74,-17.49 2220.55,-19.12 2224.95,-20.87 2228.94,-22.73 2232.51,-24.69 2235.64,-26.75 2238.32,-28.9 2240.55,-31.14 2242.32,-33.47 2243.62,-35.87 2244.46,-38.34 2244.82,-40.87 2244.73,-43.45 2244.16,-46.07 2243.14,-48.73 2241.67,-51.42 2239.76,-54.11 2237.41,-56.82 2234.64,-59.51 2231.46,-62.19 2227.89,-64.84 2223.94,-67.45 2219.63,-70.02 2214.98,-72.52"/>
<text text-anchor="middle" x="2093.21" y="-45.08" font-family="sans-serif" font-size="16.00">DashboardContexto</text>
</g>
<!-- AnaliticaContexto&#45;&gt;DashboardContexto -->
<g id="edge3" class="edge">
<title>AnaliticaContexto&#45;&gt;DashboardContexto</title>
<path fill="none" stroke="black" stroke-width="2" d="M2093.21,-147.12C2093.21,-131.4 2093.21,-113.8 2093.21,-97.93"/>
<text text-anchor="middle" x="2168.71" y="-119.16" font-family="sans-serif" font-size="12.00"> &#160;&#160;&#160;&#160;&#160;&#160;&#160;&#160;&#160;&#160;&#160;&#160;&#160;&#160;&#160;&#160;&#160;&#160;&#160;&#160;&#160;&#160;&#160;&#160;&#160;&#160;&#160;&#160;&#160;&#160;&#160;&#160;&#160;&#160;&#160;&#160;&#160;&#160;&#160;</text>
<polygon fill="white" stroke="transparent" points="2070.21,-87.93 2070.21,-106.93 2086.21,-106.93 2086.21,-87.93 2070.21,-87.93"/>
<polyline fill="none" stroke="black" points="2086.21,-87.93 2086.21,-106.93 "/>
<text text-anchor="start" x="2073.21" y="-94.33" font-family="sans-serif" font-size="12.00">D</text>
<polygon fill="white" stroke="transparent" points="2086.21,-87.93 2086.21,-106.93 2116.21,-106.93 2116.21,-87.93 2086.21,-87.93"/>
<polygon fill="none" stroke="black" points="2086.21,-87.93 2086.21,-106.93 2116.21,-106.93 2116.21,-87.93 2086.21,-87.93"/>
<text text-anchor="start" x="2089.21" y="-94.33" font-family="sans-serif" font-size="12.00">ACL</text>
<polygon fill="white" stroke="transparent" points="2058.21,-137.12 2058.21,-156.12 2074.21,-156.12 2074.21,-137.12 2058.21,-137.12"/>
<polyline fill="none" stroke="black" points="2074.21,-137.12 2074.21,-156.12 "/>
<text text-anchor="start" x="2061.21" y="-143.52" font-family="sans-serif" font-size="12.00">U</text>
<polygon fill="white" stroke="transparent" points="2074.21,-137.12 2074.21,-156.12 2129.21,-156.12 2129.21,-137.12 2074.21,-137.12"/>
<polygon fill="none" stroke="black" points="2074.21,-137.12 2074.21,-156.12 2129.21,-156.12 2129.21,-137.12 2074.21,-137.12"/>
<text text-anchor="start" x="2077.21" y="-143.52" font-family="sans-serif" font-size="12.00">OHS, PL</text>
</g>
<!-- BigDataContexto -->
<g id="node5" class="node">
<title>BigDataContexto</title>
<polygon fill="none" stroke="black" stroke-width="2" points="3122.88,-363.98 3118.34,-366.39 3113.54,-368.71 3108.49,-370.95 3103.21,-373.08 3097.73,-375.1 3092.05,-377.01 3086.2,-378.79 3080.2,-380.43 3074.07,-381.94 3067.82,-383.3 3061.49,-384.51 3055.08,-385.56 3048.61,-386.45 3042.11,-387.19 3035.59,-387.76 3029.07,-388.16 3022.57,-388.4 3016.09,-388.47 3009.66,-388.38 3003.3,-388.13 2997.01,-387.72 2990.81,-387.15 2984.71,-386.44 2978.73,-385.57 2972.87,-384.57 2967.16,-383.43 2961.59,-382.16 2956.17,-380.77 2950.93,-379.26 2945.86,-377.65 2940.97,-375.94 2936.28,-374.14 2931.79,-372.26 2927.51,-370.3 2923.44,-368.28 2919.59,-366.2 2915.97,-364.07 2912.59,-361.9 2909.44,-359.7 2906.54,-357.47 2903.89,-355.23 2901.5,-352.98 2899.37,-350.72 2897.51,-348.47 2895.93,-346.22 2894.62,-343.99 2893.59,-341.79 2892.85,-339.6 2892.41,-337.45 2892.26,-335.33 2892.4,-333.25 2892.85,-331.22 2893.61,-329.22 2894.67,-327.28 2896.04,-325.38 2897.72,-323.53 2899.72,-321.74 2902.02,-320 2904.64,-318.32 2907.56,-316.69 2910.79,-315.13 2914.32,-313.62 2918.15,-312.17 2922.28,-310.78 2926.68,-309.45 2931.37,-308.18 2936.33,-306.98 2941.54,-305.83 2947.01,-304.76 2952.71,-303.75 2958.63,-302.8 2964.77,-301.93 2971.09,-301.12 2977.59,-300.39 2984.25,-299.73 2991.05,-299.15 2997.97,-298.65 3004.99,-298.22 3012.08,-297.88 3019.23,-297.63 3026.41,-297.47 3033.6,-297.4 3040.78,-297.42 3047.92,-297.54 3054.99,-297.76 3061.98,-298.09 3068.85,-298.51 3075.59,-299.05 3082.17,-299.7 3088.56,-300.46 3094.75,-301.33 3100.71,-302.31 3106.42,-303.41 3111.86,-304.62 3117.01,-305.95 3121.85,-307.39 3126.36,-308.95 3130.53,-310.61 3134.34,-312.39 3137.78,-314.26 3140.84,-316.24 3143.51,-318.32 3145.78,-320.48 3147.64,-322.74 3149.09,-325.07 3150.12,-327.48 3150.73,-329.95 3150.93,-332.48 3150.71,-335.06 3150.08,-337.69 3149.04,-340.34 3147.6,-343.02 3145.76,-345.7 3143.54,-348.39 3140.95,-351.07 3138,-353.74 3134.71,-356.37 3131.07,-358.96 3127.13,-361.5 3122.88,-363.98"/>
<text text-anchor="middle" x="3016.21" y="-335.9" font-family="sans-serif" font-size="16.00">BigDataContexto</text>
</g>
<!-- BigDataContexto&#45;&gt;AnaliticaContexto -->
<g id="edge4" class="edge">
<title>BigDataContexto&#45;&gt;AnaliticaContexto</title>
<path fill="none" stroke="black" stroke-width="2" d="M2947.32,-304.64C2911.22,-288.33 2865.78,-270.14 2823.21,-259.81 2624.77,-211.65 2388.22,-198.51 2239.34,-195.42"/>
<text text-anchor="middle" x="2941.71" y="-263.21" font-family="sans-serif" font-size="12.00"> &#160;&#160;&#160;&#160;&#160;&#160;&#160;&#160;&#160;&#160;&#160;&#160;&#160;&#160;&#160;&#160;&#160;&#160;&#160;&#160;&#160;&#160;&#160;&#160;&#160;&#160;&#160;&#160;&#160;&#160;&#160;&#160;&#160;&#160;&#160;&#160;&#160;&#160;&#160;</text>
<polygon fill="white" stroke="transparent" points="2220.34,-185.42 2220.34,-204.42 2236.34,-204.42 2236.34,-185.42 2220.34,-185.42"/>
<polyline fill="none" stroke="black" points="2236.34,-185.42 2236.34,-204.42 "/>
<text text-anchor="start" x="2223.34" y="-191.82" font-family="sans-serif" font-size="12.00">D</text>
<polygon fill="white" stroke="transparent" points="2236.34,-185.42 2236.34,-204.42 2258.34,-204.42 2258.34,-185.42 2236.34,-185.42"/>
<polygon fill="none" stroke="black" points="2236.34,-185.42 2236.34,-204.42 2258.34,-204.42 2258.34,-185.42 2236.34,-185.42"/>
<text text-anchor="start" x="2239.34" y="-191.82" font-family="sans-serif" font-size="12.00">CF</text>
<polygon fill="white" stroke="transparent" points="2912.32,-294.64 2912.32,-313.64 2928.32,-313.64 2928.32,-294.64 2912.32,-294.64"/>
<polyline fill="none" stroke="black" points="2928.32,-294.64 2928.32,-313.64 "/>
<text text-anchor="start" x="2915.32" y="-301.04" font-family="sans-serif" font-size="12.00">U</text>
<polygon fill="white" stroke="transparent" points="2928.32,-294.64 2928.32,-313.64 2983.32,-313.64 2983.32,-294.64 2928.32,-294.64"/>
<polygon fill="none" stroke="black" points="2928.32,-294.64 2928.32,-313.64 2983.32,-313.64 2983.32,-294.64 2928.32,-294.64"/>
<text text-anchor="start" x="2931.32" y="-301.04" font-family="sans-serif" font-size="12.00">OHS, PL</text>
</g>
<!-- CumplimientoFraudeContexto -->
<g id="node6" class="node">
<title>CumplimientoFraudeContexto</title>
<polygon fill="none" stroke="black" stroke-width="2" points="74.88,-738.45 84.05,-736.38 93.57,-734.4 103.39,-732.53 113.48,-730.77 123.79,-729.14 134.3,-727.64 144.96,-726.27 155.74,-725.04 166.6,-723.96 177.5,-723.03 188.42,-722.25 199.31,-721.63 210.15,-721.18 220.9,-720.88 231.54,-720.75 242.03,-720.78 252.35,-720.97 262.48,-721.32 272.39,-721.83 282.06,-722.49 291.47,-723.31 300.61,-724.27 309.45,-725.38 317.99,-726.62 326.2,-728 334.08,-729.49 341.62,-731.11 348.81,-732.83 355.63,-734.66 362.09,-736.58 368.17,-738.58 373.87,-740.66 379.19,-742.81 384.12,-745.02 388.66,-747.28 392.8,-749.58 396.55,-751.91 399.89,-754.27 402.84,-756.64 405.38,-759.03 407.51,-761.41 409.24,-763.79 410.55,-766.15 411.45,-768.49 411.94,-770.81 412,-773.09 411.65,-775.33 410.87,-777.53 409.66,-779.68 408.03,-781.77 405.96,-783.81 403.46,-785.79 400.53,-787.7 397.16,-789.55 393.35,-791.33 389.11,-793.04 384.43,-794.67 379.31,-796.23 373.76,-797.72 367.78,-799.13 361.37,-800.46 354.55,-801.72 347.32,-802.89 339.68,-803.99 331.66,-805.01 323.25,-805.95 314.49,-806.82 305.37,-807.6 295.93,-808.3 286.17,-808.92 276.13,-809.46 265.83,-809.92 255.29,-810.3 244.54,-810.6 233.6,-810.81 222.52,-810.94 211.33,-810.98 200.05,-810.94 188.72,-810.81 177.39,-810.59 166.08,-810.28 154.84,-809.88 143.71,-809.39 132.72,-808.8 121.92,-808.12 111.35,-807.34 101.04,-806.47 91.04,-805.5 81.38,-804.43 72.11,-803.27 63.26,-802 54.87,-800.64 46.97,-799.19 39.58,-797.63 32.76,-795.99 26.51,-794.25 20.87,-792.43 15.86,-790.51 11.5,-788.52 7.81,-786.44 4.8,-784.29 2.48,-782.07 0.87,-779.79 -0.03,-777.45 -0.22,-775.06 0.31,-772.62 1.54,-770.14 3.47,-767.63 6.09,-765.11 9.39,-762.57 13.35,-760.02 17.95,-757.48 23.17,-754.95 28.99,-752.45 35.39,-749.98 42.32,-747.55 49.77,-745.17 57.71,-742.86 66.09,-740.61 74.88,-738.45"/>
<text text-anchor="middle" x="219.21" y="-765.55" font-family="sans-serif" font-size="16.00">CumplimientoFraudeContexto</text>
</g>
<!-- CumplimientoFraudeContexto&#45;&gt;OrquestadorPagosContexto -->
<g id="edge6" class="edge">
<title>CumplimientoFraudeContexto&#45;&gt;OrquestadorPagosContexto</title>
<path fill="none" stroke="black" stroke-width="2" d="M164.93,-724.06C140.57,-699.08 117.21,-665.54 117.21,-628.77 117.21,-628.77 117.21,-628.77 117.21,-338.7 117.21,-254.59 207.71,-280.55 289.21,-259.81 423.51,-225.63 791.54,-208.44 1025.54,-200.72"/>
<text text-anchor="middle" x="192.71" y="-483.06" font-family="sans-serif" font-size="12.00"> &#160;&#160;&#160;&#160;&#160;&#160;&#160;&#160;&#160;&#160;&#160;&#160;&#160;&#160;&#160;&#160;&#160;&#160;&#160;&#160;&#160;&#160;&#160;&#160;&#160;&#160;&#160;&#160;&#160;&#160;&#160;&#160;&#160;&#160;&#160;&#160;&#160;&#160;&#160;</text>
<polygon fill="white" stroke="transparent" points="1002.54,-190.72 1002.54,-209.72 1018.54,-209.72 1018.54,-190.72 1002.54,-190.72"/>
<polyline fill="none" stroke="black" points="1018.54,-190.72 1018.54,-209.72 "/>
<text text-anchor="start" x="1005.54" y="-197.12" font-family="sans-serif" font-size="12.00">D</text>
<polygon fill="white" stroke="transparent" points="1018.54,-190.72 1018.54,-209.72 1048.54,-209.72 1048.54,-190.72 1018.54,-190.72"/>
<polygon fill="none" stroke="black" points="1018.54,-190.72 1018.54,-209.72 1048.54,-209.72 1048.54,-190.72 1018.54,-190.72"/>
<text text-anchor="start" x="1021.54" y="-197.12" font-family="sans-serif" font-size="12.00">ACL</text>
<polygon fill="white" stroke="transparent" points="129.93,-714.06 129.93,-733.06 145.93,-733.06 145.93,-714.06 129.93,-714.06"/>
<polyline fill="none" stroke="black" points="145.93,-714.06 145.93,-733.06 "/>
<text text-anchor="start" x="132.93" y="-720.46" font-family="sans-serif" font-size="12.00">U</text>
<polygon fill="white" stroke="transparent" points="145.93,-714.06 145.93,-733.06 200.93,-733.06 200.93,-714.06 145.93,-714.06"/>
<polygon fill="none" stroke="black" points="145.93,-714.06 145.93,-733.06 200.93,-733.06 200.93,-714.06 145.93,-714.06"/>
<text text-anchor="start" x="148.93" y="-720.46" font-family="sans-serif" font-size="12.00">OHS, PL</text>
</g>
<!-- ServicioAtribucionContexto -->
<g id="node7" class="node">
<title>ServicioAtribucionContexto</title>
<polygon fill="none" stroke="black" stroke-width="2" points="668.21,-584.87 680.18,-585.46 691.97,-586.16 703.53,-586.97 714.8,-587.9 725.74,-588.93 736.31,-590.06 746.47,-591.3 756.18,-592.63 765.4,-594.05 774.09,-595.56 782.23,-597.16 789.79,-598.83 796.74,-600.58 803.07,-602.4 808.76,-604.29 813.78,-606.23 818.14,-608.23 821.83,-610.28 824.84,-612.37 827.17,-614.5 828.82,-616.66 829.81,-618.85 830.15,-621.06 829.83,-623.29 828.89,-625.53 827.34,-627.77 825.2,-630.01 822.49,-632.24 819.24,-634.46 815.47,-636.67 811.2,-638.85 806.48,-641 801.32,-643.11 795.76,-645.19 789.82,-647.22 783.54,-649.2 776.95,-651.12 770.07,-652.99 762.94,-654.79 755.58,-656.51 748.01,-658.17 740.28,-659.75 732.39,-661.24 724.37,-662.64 716.25,-663.96 708.05,-665.18 699.78,-666.3 691.46,-667.32 683.12,-668.24 674.75,-669.05 666.38,-669.75 658.01,-670.34 649.67,-670.81 641.35,-671.17 633.06,-671.41 624.82,-671.54 616.62,-671.54 608.48,-671.43 600.4,-671.2 592.38,-670.85 584.44,-670.38 576.57,-669.79 568.78,-669.08 561.08,-668.26 553.47,-667.32 545.96,-666.28 538.56,-665.12 531.27,-663.86 524.12,-662.5 517.1,-661.04 510.23,-659.48 503.53,-657.83 497,-656.09 490.68,-654.27 484.56,-652.37 478.68,-650.41 473.04,-648.37 467.68,-646.27 462.62,-644.12 457.86,-641.92 453.45,-639.68 449.4,-637.4 445.73,-635.1 442.47,-632.77 439.65,-630.42 437.28,-628.07 435.39,-625.71 434,-623.36 433.13,-621.02 432.81,-618.7 433.04,-616.4 433.84,-614.14 435.23,-611.91 437.23,-609.74 439.83,-607.61 443.04,-605.54 446.88,-603.54 451.34,-601.6 456.41,-599.74 462.09,-597.97 468.38,-596.27 475.26,-594.67 482.72,-593.17 490.74,-591.76 499.29,-590.46 508.35,-589.26 517.89,-588.18 527.88,-587.21 538.29,-586.35 549.08,-585.61 560.21,-584.99 571.64,-584.49 583.32,-584.11 595.21,-583.85 607.26,-583.72 619.42,-583.71 631.65,-583.82 643.89,-584.05 656.09,-584.4 668.21,-584.87"/>
<text text-anchor="middle" x="627.21" y="-623.97" font-family="sans-serif" font-size="16.00">ServicioAtribucionContexto</text>
</g>
<!-- CumplimientoFraudeContexto&#45;&gt;ServicioAtribucionContexto -->
<g id="edge5" class="edge">
<title>CumplimientoFraudeContexto&#45;&gt;ServicioAtribucionContexto</title>
<path fill="none" stroke="black" stroke-width="2" d="M333.41,-729.29C394.23,-708.48 468.36,-683.12 526.94,-663.08"/>
<text text-anchor="middle" x="523.71" y="-693.2" font-family="sans-serif" font-size="12.00"> &#160;&#160;&#160;&#160;&#160;&#160;&#160;&#160;&#160;&#160;&#160;&#160;&#160;&#160;&#160;&#160;&#160;&#160;&#160;&#160;&#160;&#160;&#160;&#160;&#160;&#160;&#160;&#160;&#160;&#160;&#160;&#160;&#160;&#160;&#160;&#160;&#160;&#160;&#160;</text>
<polygon fill="white" stroke="transparent" points="503.94,-653.08 503.94,-672.08 519.94,-672.08 519.94,-653.08 503.94,-653.08"/>
<polyline fill="none" stroke="black" points="519.94,-653.08 519.94,-672.08 "/>
<text text-anchor="start" x="506.94" y="-659.48" font-family="sans-serif" font-size="12.00">D</text>
<polygon fill="white" stroke="transparent" points="519.94,-653.08 519.94,-672.08 549.94,-672.08 549.94,-653.08 519.94,-653.08"/>
<polygon fill="none" stroke="black" points="519.94,-653.08 519.94,-672.08 549.94,-672.08 549.94,-653.08 519.94,-653.08"/>
<text text-anchor="start" x="522.94" y="-659.48" font-family="sans-serif" font-size="12.00">ACL</text>
<polygon fill="white" stroke="transparent" points="298.41,-719.29 298.41,-738.29 314.41,-738.29 314.41,-719.29 298.41,-719.29"/>
<polyline fill="none" stroke="black" points="314.41,-719.29 314.41,-738.29 "/>
<text text-anchor="start" x="301.41" y="-725.69" font-family="sans-serif" font-size="12.00">U</text>
<polygon fill="white" stroke="transparent" points="314.41,-719.29 314.41,-738.29 369.41,-738.29 369.41,-719.29 314.41,-719.29"/>
<polygon fill="none" stroke="black" points="314.41,-719.29 314.41,-738.29 369.41,-738.29 369.41,-719.29 314.41,-719.29"/>
<text text-anchor="start" x="317.41" y="-725.69" font-family="sans-serif" font-size="12.00">OHS, PL</text>
</g>
<!-- ServicioAtribucionContexto&#45;&gt;BigDataContexto -->
<g id="edge7" class="edge">
<title>ServicioAtribucionContexto&#45;&gt;BigDataContexto</title>
<path fill="none" stroke="black" stroke-width="2" d="M463.77,-597.46C397.87,-582.02 332.75,-560.83 313.21,-534.74 287.33,-500.18 283.89,-469.27 313.21,-437.58 373.77,-372.15 624.14,-410.4 713.21,-406.58 833.05,-401.45 2753.89,-408.25 2872.21,-388.58 2892.49,-385.21 2913.77,-379.45 2933.58,-373.07"/>
<text text-anchor="middle" x="388.71" y="-483.06" font-family="sans-serif" font-size="12.00"> &#160;&#160;&#160;&#160;&#160;&#160;&#160;&#160;&#160;&#160;&#160;&#160;&#160;&#160;&#160;&#160;&#160;&#160;&#160;&#160;&#160;&#160;&#160;&#160;&#160;&#160;&#160;&#160;&#160;&#160;&#160;&#160;&#160;&#160;&#160;&#160;&#160;&#160;&#160;</text>
<polygon fill="white" stroke="transparent" points="2910.58,-363.07 2910.58,-382.07 2926.58,-382.07 2926.58,-363.07 2910.58,-363.07"/>
<polyline fill="none" stroke="black" points="2926.58,-363.07 2926.58,-382.07 "/>
<text text-anchor="start" x="2913.58" y="-369.47" font-family="sans-serif" font-size="12.00">D</text>
<polygon fill="white" stroke="transparent" points="2926.58,-363.07 2926.58,-382.07 2956.58,-382.07 2956.58,-363.07 2926.58,-363.07"/>
<polygon fill="none" stroke="black" points="2926.58,-363.07 2926.58,-382.07 2956.58,-382.07 2956.58,-363.07 2926.58,-363.07"/>
<text text-anchor="start" x="2929.58" y="-369.47" font-family="sans-serif" font-size="12.00">ACL</text>
<polygon fill="white" stroke="transparent" points="428.77,-587.46 428.77,-606.46 444.77,-606.46 444.77,-587.46 428.77,-587.46"/>
<polyline fill="none" stroke="black" points="444.77,-587.46 444.77,-606.46 "/>
<text text-anchor="start" x="431.77" y="-593.86" font-family="sans-serif" font-size="12.00">U</text>
<polygon fill="white" stroke="transparent" points="444.77,-587.46 444.77,-606.46 499.77,-606.46 499.77,-587.46 444.77,-587.46"/>
<polygon fill="none" stroke="black" points="444.77,-587.46 444.77,-606.46 499.77,-606.46 499.77,-587.46 444.77,-587.46"/>
<text text-anchor="start" x="447.77" y="-593.86" font-family="sans-serif" font-size="12.00">OHS, PL</text>
</g>
<!-- MotorComisionesContexto -->
<g id="node8" class="node">
<title>MotorComisionesContexto</title>
<polygon fill="none" stroke="black" stroke-width="2" points="834.66,-476.74 837.36,-479.54 839.55,-482.35 841.23,-485.16 842.38,-487.95 843.01,-490.71 843.09,-493.45 842.64,-496.13 841.64,-498.76 840.1,-501.33 838.01,-503.82 835.39,-506.23 832.24,-508.54 828.56,-510.76 824.36,-512.88 819.66,-514.89 814.47,-516.78 808.81,-518.56 802.69,-520.21 796.12,-521.73 789.14,-523.13 781.77,-524.4 774.02,-525.53 765.92,-526.54 757.5,-527.41 748.78,-528.16 739.8,-528.78 730.59,-529.27 721.17,-529.64 711.57,-529.88 701.83,-530.01 691.98,-530.03 682.04,-529.93 672.06,-529.73 662.07,-529.42 652.09,-529.02 642.15,-528.52 632.3,-527.93 622.55,-527.25 612.95,-526.49 603.51,-525.66 594.26,-524.75 585.24,-523.76 576.46,-522.72 567.96,-521.6 559.75,-520.43 551.87,-519.2 544.32,-517.91 537.12,-516.57 530.31,-515.18 523.88,-513.74 517.86,-512.26 512.26,-510.73 507.09,-509.15 502.36,-507.53 498.08,-505.87 494.26,-504.16 490.89,-502.42 488,-500.64 485.57,-498.82 483.61,-496.96 482.13,-495.07 481.11,-493.15 480.57,-491.19 480.49,-489.2 480.86,-487.19 481.7,-485.15 482.98,-483.08 484.71,-481 486.87,-478.9 489.46,-476.78 492.46,-474.66 495.87,-472.54 499.68,-470.41 503.88,-468.29 508.45,-466.19 513.38,-464.1 518.66,-462.04 524.28,-460.01 530.22,-458.03 536.47,-456.08 543.02,-454.19 549.85,-452.37 556.95,-450.61 564.3,-448.93 571.88,-447.34 579.69,-445.84 587.69,-444.44 595.88,-443.15 604.24,-441.97 612.75,-440.92 621.39,-440 630.15,-439.21 639,-438.57 647.92,-438.07 656.9,-437.73 665.92,-437.54 674.94,-437.51 683.96,-437.64 692.95,-437.93 701.89,-438.39 710.75,-439.01 719.51,-439.8 728.16,-440.75 736.66,-441.87 745,-443.14 753.14,-444.56 761.07,-446.13 768.77,-447.85 776.21,-449.7 783.36,-451.69 790.21,-453.8 796.73,-456.02 802.9,-458.35 808.7,-460.77 814.11,-463.28 819.11,-465.86 823.69,-468.51 827.81,-471.22 831.48,-473.97 834.66,-476.74"/>
<text text-anchor="middle" x="658.21" y="-482.36" font-family="sans-serif" font-size="16.00">MotorComisionesContexto</text>
</g>
<!-- ServicioAtribucionContexto&#45;&gt;MotorComisionesContexto -->
<g id="edge8" class="edge">
<title>ServicioAtribucionContexto&#45;&gt;MotorComisionesContexto</title>
<path fill="none" stroke="black" stroke-width="2" d="M636.77,-583.74C640.61,-566.44 645.03,-546.54 648.85,-529.33"/>
<text text-anchor="middle" x="719.71" y="-556.14" font-family="sans-serif" font-size="12.00"> &#160;&#160;&#160;&#160;&#160;&#160;&#160;&#160;&#160;&#160;&#160;&#160;&#160;&#160;&#160;&#160;&#160;&#160;&#160;&#160;&#160;&#160;&#160;&#160;&#160;&#160;&#160;&#160;&#160;&#160;&#160;&#160;&#160;&#160;&#160;&#160;&#160;&#160;&#160;</text>
<polygon fill="white" stroke="transparent" points="625.85,-519.33 625.85,-538.33 641.85,-538.33 641.85,-519.33 625.85,-519.33"/>
<polyline fill="none" stroke="black" points="641.85,-519.33 641.85,-538.33 "/>
<text text-anchor="start" x="628.85" y="-525.73" font-family="sans-serif" font-size="12.00">D</text>
<polygon fill="white" stroke="transparent" points="641.85,-519.33 641.85,-538.33 671.85,-538.33 671.85,-519.33 641.85,-519.33"/>
<polygon fill="none" stroke="black" points="641.85,-519.33 641.85,-538.33 671.85,-538.33 671.85,-519.33 641.85,-519.33"/>
<text text-anchor="start" x="644.85" y="-525.73" font-family="sans-serif" font-size="12.00">ACL</text>
<polygon fill="white" stroke="transparent" points="601.77,-573.74 601.77,-592.74 617.77,-592.74 617.77,-573.74 601.77,-573.74"/>
<polyline fill="none" stroke="black" points="617.77,-573.74 617.77,-592.74 "/>
<text text-anchor="start" x="604.77" y="-580.14" font-family="sans-serif" font-size="12.00">U</text>
<polygon fill="white" stroke="transparent" points="617.77,-573.74 617.77,-592.74 672.77,-592.74 672.77,-573.74 617.77,-573.74"/>
<polygon fill="none" stroke="black" points="617.77,-573.74 617.77,-592.74 672.77,-592.74 672.77,-573.74 617.77,-573.74"/>
<text text-anchor="start" x="620.77" y="-580.14" font-family="sans-serif" font-size="12.00">OHS, PL</text>
</g>
<!-- MotorComisionesContexto&#45;&gt;OrquestadorPagosContexto -->
<g id="edge9" class="edge">
<title>MotorComisionesContexto&#45;&gt;OrquestadorPagosContexto</title>
<path fill="none" stroke="black" stroke-width="2" d="M536.54,-456.06C417.95,-427.69 255.36,-388.76 255.21,-388.58 228.3,-354.46 226.02,-323 255.21,-290.81 305.93,-234.88 755.35,-210.58 1025.99,-200.94"/>
<text text-anchor="middle" x="330.71" y="-336.6" font-family="sans-serif" font-size="12.00"> &#160;&#160;&#160;&#160;&#160;&#160;&#160;&#160;&#160;&#160;&#160;&#160;&#160;&#160;&#160;&#160;&#160;&#160;&#160;&#160;&#160;&#160;&#160;&#160;&#160;&#160;&#160;&#160;&#160;&#160;&#160;&#160;&#160;&#160;&#160;&#160;&#160;&#160;&#160;</text>
<polygon fill="white" stroke="transparent" points="1002.99,-190.94 1002.99,-209.94 1018.99,-209.94 1018.99,-190.94 1002.99,-190.94"/>
<polyline fill="none" stroke="black" points="1018.99,-190.94 1018.99,-209.94 "/>
<text text-anchor="start" x="1005.99" y="-197.34" font-family="sans-serif" font-size="12.00">D</text>
<polygon fill="white" stroke="transparent" points="1018.99,-190.94 1018.99,-209.94 1048.99,-209.94 1048.99,-190.94 1018.99,-190.94"/>
<polygon fill="none" stroke="black" points="1018.99,-190.94 1018.99,-209.94 1048.99,-209.94 1048.99,-190.94 1018.99,-190.94"/>
<text text-anchor="start" x="1021.99" y="-197.34" font-family="sans-serif" font-size="12.00">ACL</text>
<polygon fill="white" stroke="transparent" points="501.54,-446.06 501.54,-465.06 517.54,-465.06 517.54,-446.06 501.54,-446.06"/>
<polyline fill="none" stroke="black" points="517.54,-446.06 517.54,-465.06 "/>
<text text-anchor="start" x="504.54" y="-452.46" font-family="sans-serif" font-size="12.00">U</text>
<polygon fill="white" stroke="transparent" points="517.54,-446.06 517.54,-465.06 572.54,-465.06 572.54,-446.06 517.54,-446.06"/>
<polygon fill="none" stroke="black" points="517.54,-446.06 517.54,-465.06 572.54,-465.06 572.54,-446.06 517.54,-446.06"/>
<text text-anchor="start" x="520.54" y="-452.46" font-family="sans-serif" font-size="12.00">OHS, PL</text>
</g>
<!-- MotorComisionesContexto&#45;&gt;BigDataContexto -->
<g id="edge10" class="edge">
<title>MotorComisionesContexto&#45;&gt;BigDataContexto</title>
<path fill="none" stroke="black" stroke-width="2" d="M694.12,-437.77C706.29,-425.26 720.97,-413.37 737.21,-406.58 791.94,-383.73 2813.71,-398.31 2872.21,-388.58 2892.49,-385.21 2913.77,-379.45 2933.58,-373.07"/>
<text text-anchor="middle" x="812.71" y="-409.98" font-family="sans-serif" font-size="12.00"> &#160;&#160;&#160;&#160;&#160;&#160;&#160;&#160;&#160;&#160;&#160;&#160;&#160;&#160;&#160;&#160;&#160;&#160;&#160;&#160;&#160;&#160;&#160;&#160;&#160;&#160;&#160;&#160;&#160;&#160;&#160;&#160;&#160;&#160;&#160;&#160;&#160;&#160;&#160;</text>
<polygon fill="white" stroke="transparent" points="2910.58,-363.07 2910.58,-382.07 2926.58,-382.07 2926.58,-363.07 2910.58,-363.07"/>
<polyline fill="none" stroke="black" points="2926.58,-363.07 2926.58,-382.07 "/>
<text text-anchor="start" x="2913.58" y="-369.47" font-family="sans-serif" font-size="12.00">D</text>
<polygon fill="white" stroke="transparent" points="2926.58,-363.07 2926.58,-382.07 2956.58,-382.07 2956.58,-363.07 2926.58,-363.07"/>
<polygon fill="none" stroke="black" points="2926.58,-363.07 2926.58,-382.07 2956.58,-382.07 2956.58,-363.07 2926.58,-363.07"/>
<text text-anchor="start" x="2929.58" y="-369.47" font-family="sans-serif" font-size="12.00">ACL</text>
<polygon fill="white" stroke="transparent" points="659.12,-427.77 659.12,-446.77 675.12,-446.77 675.12,-427.77 659.12,-427.77"/>
<polyline fill="none" stroke="black" points="675.12,-427.77 675.12,-446.77 "/>
<text text-anchor="start" x="662.12" y="-434.17" font-family="sans-serif" font-size="12.00">U</text>
<polygon fill="white" stroke="transparent" points="675.12,-427.77 675.12,-446.77 730.12,-446.77 730.12,-427.77 675.12,-427.77"/>
<polygon fill="none" stroke="black" points="675.12,-427.77 675.12,-446.77 730.12,-446.77 730.12,-427.77 675.12,-427.77"/>
<text text-anchor="start" x="678.12" y="-434.17" font-family="sans-serif" font-size="12.00">OHS, PL</text>
</g>
<!-- LinkGeneratorContexto -->
<g id="node9" class="node">
<title>LinkGeneratorContexto</title>
<polygon fill="none" stroke="black" stroke-width="2" points="641.94,-903.66 644.5,-900.88 647.49,-898.15 650.89,-895.48 654.7,-892.88 658.89,-890.36 663.46,-887.93 668.39,-885.6 673.67,-883.38 679.28,-881.28 685.2,-879.3 691.42,-877.45 697.92,-875.75 704.68,-874.18 711.68,-872.77 718.91,-871.51 726.33,-870.4 733.95,-869.45 741.72,-868.66 749.64,-868.03 757.68,-867.56 765.83,-867.25 774.05,-867.1 782.34,-867.1 790.66,-867.25 799,-867.54 807.34,-867.98 815.66,-868.56 823.94,-869.27 832.15,-870.11 840.28,-871.07 848.3,-872.14 856.21,-873.31 863.97,-874.59 871.56,-875.96 878.98,-877.42 886.2,-878.96 893.2,-880.56 899.96,-882.23 906.48,-883.96 912.72,-885.74 918.68,-887.57 924.34,-889.43 929.69,-891.32 934.7,-893.24 939.37,-895.18 943.69,-897.14 947.64,-899.11 951.2,-901.09 954.38,-903.07 957.15,-905.05 959.51,-907.03 961.46,-909.01 962.98,-910.97 964.07,-912.93 964.72,-914.87 964.94,-916.8 964.71,-918.72 964.03,-920.61 962.91,-922.49 961.35,-924.35 959.34,-926.19 956.89,-928.01 954.01,-929.8 950.71,-931.57 946.97,-933.32 942.83,-935.04 938.28,-936.72 933.34,-938.38 928.01,-940 922.32,-941.59 916.28,-943.14 909.9,-944.65 903.2,-946.11 896.2,-947.53 888.91,-948.89 881.37,-950.2 873.58,-951.44 865.57,-952.62 857.36,-953.73 848.99,-954.76 840.46,-955.72 831.81,-956.58 823.07,-957.36 814.25,-958.04 805.38,-958.62 796.5,-959.09 787.62,-959.45 778.78,-959.69 769.99,-959.81 761.3,-959.81 752.71,-959.67 744.27,-959.41 735.99,-959 727.9,-958.46 720.02,-957.78 712.38,-956.96 704.99,-955.99 697.89,-954.89 691.09,-953.64 684.62,-952.25 678.48,-950.72 672.7,-949.06 667.29,-947.26 662.28,-945.34 657.67,-943.3 653.47,-941.14 649.7,-938.88 646.37,-936.51 643.48,-934.05 641.04,-931.5 639.06,-928.88 637.54,-926.2 636.48,-923.46 635.88,-920.67 635.75,-917.85 636.08,-915.01 636.87,-912.16 638.11,-909.31 639.8,-906.47 641.94,-903.66"/>
<text text-anchor="middle" x="801.21" y="-910.92" font-family="sans-serif" font-size="16.00">LinkGeneratorContexto</text>
</g>
<!-- ServicioTrackerContexto -->
<g id="node10" class="node">
<title>ServicioTrackerContexto</title>
<polygon fill="none" stroke="black" stroke-width="2" points="968.28,-761.46 970.43,-764.28 972.11,-767.09 973.31,-769.91 974.02,-772.7 974.23,-775.46 973.95,-778.18 973.16,-780.86 971.86,-783.47 970.07,-786.01 967.78,-788.48 964.99,-790.86 961.71,-793.14 957.96,-795.32 953.73,-797.4 949.04,-799.36 943.91,-801.2 938.35,-802.92 932.38,-804.52 926.01,-805.98 919.26,-807.31 912.16,-808.52 904.72,-809.58 896.98,-810.52 888.95,-811.32 880.66,-811.99 872.14,-812.53 863.41,-812.94 854.51,-813.23 845.46,-813.39 836.29,-813.44 827.03,-813.37 817.71,-813.19 808.36,-812.9 799.01,-812.51 789.68,-812.02 780.42,-811.44 771.24,-810.77 762.17,-810.01 753.25,-809.17 744.49,-808.26 735.93,-807.27 727.58,-806.22 719.48,-805.1 711.64,-803.92 704.09,-802.68 696.84,-801.39 689.92,-800.04 683.34,-798.64 677.12,-797.2 671.28,-795.71 665.82,-794.18 660.77,-792.6 656.12,-790.99 651.89,-789.33 648.1,-787.64 644.73,-785.91 641.81,-784.14 639.33,-782.34 637.29,-780.51 635.7,-778.64 634.56,-776.75 633.87,-774.82 633.62,-772.86 633.81,-770.88 634.44,-768.87 635.49,-766.85 636.98,-764.8 638.88,-762.74 641.19,-760.66 643.91,-758.57 647.02,-756.49 650.51,-754.4 654.38,-752.31 658.6,-750.24 663.18,-748.18 668.1,-746.14 673.34,-744.13 678.89,-742.16 684.74,-740.22 690.88,-738.34 697.29,-736.51 703.95,-734.75 710.86,-733.06 717.99,-731.45 725.33,-729.92 732.86,-728.49 740.57,-727.17 748.44,-725.95 756.45,-724.85 764.59,-723.87 772.83,-723.03 781.17,-722.32 789.57,-721.75 798.02,-721.33 806.5,-721.06 815,-720.95 823.49,-721 831.94,-721.2 840.35,-721.57 848.68,-722.11 856.93,-722.8 865.06,-723.66 873.05,-724.69 880.89,-725.87 888.55,-727.2 896.01,-728.69 903.25,-730.33 910.25,-732.1 916.99,-734.01 923.45,-736.05 929.6,-738.21 935.42,-740.48 940.91,-742.85 946.03,-745.32 950.78,-747.87 955.13,-750.49 959.07,-753.17 962.58,-755.9 965.66,-758.67 968.28,-761.46"/>
<text text-anchor="middle" x="801.21" y="-765.55" font-family="sans-serif" font-size="16.00">ServicioTrackerContexto</text>
</g>
<!-- LinkGeneratorContexto&#45;&gt;ServicioTrackerContexto -->
<g id="edge11" class="edge">
<title>LinkGeneratorContexto&#45;&gt;ServicioTrackerContexto</title>
<path fill="none" stroke="black" stroke-width="2" d="M801.21,-867.57C801.21,-850.05 801.21,-830.2 801.21,-813.01"/>
<text text-anchor="middle" x="876.71" y="-839.31" font-family="sans-serif" font-size="12.00"> &#160;&#160;&#160;&#160;&#160;&#160;&#160;&#160;&#160;&#160;&#160;&#160;&#160;&#160;&#160;&#160;&#160;&#160;&#160;&#160;&#160;&#160;&#160;&#160;&#160;&#160;&#160;&#160;&#160;&#160;&#160;&#160;&#160;&#160;&#160;&#160;&#160;&#160;&#160;</text>
<polygon fill="white" stroke="transparent" points="778.21,-803.01 778.21,-822.01 794.21,-822.01 794.21,-803.01 778.21,-803.01"/>
<polyline fill="none" stroke="black" points="794.21,-803.01 794.21,-822.01 "/>
<text text-anchor="start" x="781.21" y="-809.41" font-family="sans-serif" font-size="12.00">D</text>
<polygon fill="white" stroke="transparent" points="794.21,-803.01 794.21,-822.01 824.21,-822.01 824.21,-803.01 794.21,-803.01"/>
<polygon fill="none" stroke="black" points="794.21,-803.01 794.21,-822.01 824.21,-822.01 824.21,-803.01 794.21,-803.01"/>
<text text-anchor="start" x="797.21" y="-809.41" font-family="sans-serif" font-size="12.00">ACL</text>
<polygon fill="white" stroke="transparent" points="766.21,-857.57 766.21,-876.57 782.21,-876.57 782.21,-857.57 766.21,-857.57"/>
<polyline fill="none" stroke="black" points="782.21,-857.57 782.21,-876.57 "/>
<text text-anchor="start" x="769.21" y="-863.97" font-family="sans-serif" font-size="12.00">U</text>
<polygon fill="white" stroke="transparent" points="782.21,-857.57 782.21,-876.57 837.21,-876.57 837.21,-857.57 782.21,-857.57"/>
<polygon fill="none" stroke="black" points="782.21,-857.57 782.21,-876.57 837.21,-876.57 837.21,-857.57 782.21,-857.57"/>
<text text-anchor="start" x="785.21" y="-863.97" font-family="sans-serif" font-size="12.00">OHS, PL</text>
</g>
<!-- ServicioTrackerContexto&#45;&gt;BigDataContexto -->
<g id="edge12" class="edge">
<title>ServicioTrackerContexto&#45;&gt;BigDataContexto</title>
<path fill="none" stroke="black" stroke-width="2" d="M951.57,-748.14C1295.12,-700.37 2162.75,-570.65 2872.21,-388.58 2891.1,-383.74 2911.1,-377.69 2929.99,-371.54"/>
<text text-anchor="middle" x="2186.71" y="-556.14" font-family="sans-serif" font-size="12.00"> &#160;&#160;&#160;&#160;&#160;&#160;&#160;&#160;&#160;&#160;&#160;&#160;&#160;&#160;&#160;&#160;&#160;&#160;&#160;&#160;&#160;&#160;&#160;&#160;&#160;&#160;&#160;&#160;&#160;&#160;&#160;&#160;&#160;&#160;&#160;&#160;&#160;&#160;&#160;</text>
<polygon fill="white" stroke="transparent" points="2906.99,-361.54 2906.99,-380.54 2922.99,-380.54 2922.99,-361.54 2906.99,-361.54"/>
<polyline fill="none" stroke="black" points="2922.99,-361.54 2922.99,-380.54 "/>
<text text-anchor="start" x="2909.99" y="-367.94" font-family="sans-serif" font-size="12.00">D</text>
<polygon fill="white" stroke="transparent" points="2922.99,-361.54 2922.99,-380.54 2952.99,-380.54 2952.99,-361.54 2922.99,-361.54"/>
<polygon fill="none" stroke="black" points="2922.99,-361.54 2922.99,-380.54 2952.99,-380.54 2952.99,-361.54 2922.99,-361.54"/>
<text text-anchor="start" x="2925.99" y="-367.94" font-family="sans-serif" font-size="12.00">ACL</text>
<polygon fill="white" stroke="transparent" points="916.57,-738.14 916.57,-757.14 932.57,-757.14 932.57,-738.14 916.57,-738.14"/>
<polyline fill="none" stroke="black" points="932.57,-738.14 932.57,-757.14 "/>
<text text-anchor="start" x="919.57" y="-744.54" font-family="sans-serif" font-size="12.00">U</text>
<polygon fill="white" stroke="transparent" points="932.57,-738.14 932.57,-757.14 987.57,-757.14 987.57,-738.14 932.57,-738.14"/>
<polygon fill="none" stroke="black" points="932.57,-738.14 932.57,-757.14 987.57,-757.14 987.57,-738.14 932.57,-738.14"/>
<text text-anchor="start" x="935.57" y="-744.54" font-family="sans-serif" font-size="12.00">OHS, PL</text>
</g>
<!-- ServicioTrackerContexto&#45;&gt;ServicioAtribucionContexto -->
<g id="edge13" class="edge">
<title>ServicioTrackerContexto&#45;&gt;ServicioAtribucionContexto</title>
<path fill="none" stroke="black" stroke-width="2" d="M748.06,-725.72C725.58,-707.68 699.52,-686.77 677.36,-669"/>
<text text-anchor="middle" x="795.71" y="-693.2" font-family="sans-serif" font-size="12.00"> &#160;&#160;&#160;&#160;&#160;&#160;&#160;&#160;&#160;&#160;&#160;&#160;&#160;&#160;&#160;&#160;&#160;&#160;&#160;&#160;&#160;&#160;&#160;&#160;&#160;&#160;&#160;&#160;&#160;&#160;&#160;&#160;&#160;&#160;&#160;&#160;&#160;&#160;&#160;</text>
<polygon fill="white" stroke="transparent" points="654.36,-659 654.36,-678 670.36,-678 670.36,-659 654.36,-659"/>
<polyline fill="none" stroke="black" points="670.36,-659 670.36,-678 "/>
<text text-anchor="start" x="657.36" y="-665.4" font-family="sans-serif" font-size="12.00">D</text>
<polygon fill="white" stroke="transparent" points="670.36,-659 670.36,-678 700.36,-678 700.36,-659 670.36,-659"/>
<polygon fill="none" stroke="black" points="670.36,-659 670.36,-678 700.36,-678 700.36,-659 670.36,-659"/>
<text text-anchor="start" x="673.36" y="-665.4" font-family="sans-serif" font-size="12.00">ACL</text>
<polygon fill="white" stroke="transparent" points="713.06,-715.72 713.06,-734.72 729.06,-734.72 729.06,-715.72 713.06,-715.72"/>
<polyline fill="none" stroke="black" points="729.06,-715.72 729.06,-734.72 "/>
<text text-anchor="start" x="716.06" y="-722.12" font-family="sans-serif" font-size="12.00">U</text>
<polygon fill="white" stroke="transparent" points="729.06,-715.72 729.06,-734.72 784.06,-734.72 784.06,-715.72 729.06,-715.72"/>
<polygon fill="none" stroke="black" points="729.06,-715.72 729.06,-734.72 784.06,-734.72 784.06,-715.72 729.06,-715.72"/>
<text text-anchor="start" x="732.06" y="-722.12" font-family="sans-serif" font-size="12.00">OHS, PL</text>
</g>
<!-- MarketingAfiliadosContexto -->
<g id="node11" class="node">
<title>MarketingAfiliadosContexto</title>
<polygon fill="none" stroke="black" stroke-width="2" points="2193.31,-375.35 2183.19,-373.72 2173.44,-371.99 2164.09,-370.19 2155.19,-368.31 2146.77,-366.36 2138.87,-364.35 2131.52,-362.28 2124.75,-360.17 2118.59,-358.02 2113.07,-355.84 2108.2,-353.63 2103.99,-351.39 2100.48,-349.15 2097.66,-346.9 2095.55,-344.65 2094.15,-342.4 2093.46,-340.17 2093.47,-337.95 2094.19,-335.75 2095.6,-333.58 2097.69,-331.45 2100.44,-329.34 2103.84,-327.28 2107.86,-325.26 2112.49,-323.29 2117.68,-321.38 2123.42,-319.52 2129.68,-317.71 2136.42,-315.97 2143.61,-314.29 2151.21,-312.68 2159.19,-311.14 2167.52,-309.66 2176.16,-308.27 2185.06,-306.94 2194.2,-305.7 2203.54,-304.54 2213.04,-303.45 2222.67,-302.45 2232.4,-301.54 2242.18,-300.71 2252,-299.97 2261.81,-299.32 2271.6,-298.76 2281.33,-298.3 2290.98,-297.93 2300.53,-297.66 2309.95,-297.48 2319.23,-297.4 2328.34,-297.42 2337.27,-297.55 2346.02,-297.77 2354.55,-298.1 2362.86,-298.53 2370.95,-299.07 2378.8,-299.71 2386.41,-300.45 2393.77,-301.3 2400.87,-302.26 2407.71,-303.31 2414.29,-304.47 2420.6,-305.73 2426.63,-307.1 2432.4,-308.56 2437.89,-310.11 2443.09,-311.76 2448.02,-313.5 2452.66,-315.32 2457.01,-317.23 2461.06,-319.22 2464.81,-321.28 2468.26,-323.41 2471.4,-325.6 2474.21,-327.85 2476.7,-330.15 2478.86,-332.5 2480.67,-334.88 2482.13,-337.3 2483.22,-339.74 2483.94,-342.2 2484.27,-344.66 2484.21,-347.12 2483.74,-349.58 2482.86,-352.02 2481.55,-354.43 2479.79,-356.81 2477.6,-359.15 2474.94,-361.44 2471.82,-363.67 2468.24,-365.83 2464.17,-367.92 2459.64,-369.92 2454.62,-371.84 2449.12,-373.66 2443.14,-375.37 2436.69,-376.98 2429.78,-378.47 2422.4,-379.84 2414.59,-381.08 2406.33,-382.19 2397.67,-383.17 2388.61,-384.01 2379.17,-384.71 2369.38,-385.27 2359.27,-385.68 2348.87,-385.95 2338.2,-386.07 2327.31,-386.05 2316.22,-385.89 2304.98,-385.58 2293.62,-385.13 2282.19,-384.54 2270.73,-383.82 2259.27,-382.97 2247.88,-381.99 2236.58,-380.89 2225.43,-379.67 2214.47,-378.33 2203.75,-376.89 2193.31,-375.35"/>
<text text-anchor="middle" x="2303.21" y="-335.9" font-family="sans-serif" font-size="16.00">MarketingAfiliadosContexto</text>
</g>
<!-- MarketingAfiliadosContexto&#45;&gt;OrquestadorPagosContexto -->
<g id="edge14" class="edge">
<title>MarketingAfiliadosContexto&#45;&gt;OrquestadorPagosContexto</title>
<path fill="none" stroke="black" stroke-width="2" d="M2189.68,-306.23C2160.68,-296.66 2129.9,-285.34 2102.21,-272.81 2091.87,-268.12 2091.05,-263.22 2080.21,-259.81 2048.38,-249.8 1639.43,-221.86 1400.59,-206.23"/>
<text text-anchor="middle" x="2177.71" y="-263.21" font-family="sans-serif" font-size="12.00"> &#160;&#160;&#160;&#160;&#160;&#160;&#160;&#160;&#160;&#160;&#160;&#160;&#160;&#160;&#160;&#160;&#160;&#160;&#160;&#160;&#160;&#160;&#160;&#160;&#160;&#160;&#160;&#160;&#160;&#160;&#160;&#160;&#160;&#160;&#160;&#160;&#160;&#160;&#160;</text>
<polygon fill="white" stroke="transparent" points="1377.59,-196.23 1377.59,-215.23 1393.59,-215.23 1393.59,-196.23 1377.59,-196.23"/>
<polyline fill="none" stroke="black" points="1393.59,-196.23 1393.59,-215.23 "/>
<text text-anchor="start" x="1380.59" y="-202.63" font-family="sans-serif" font-size="12.00">D</text>
<polygon fill="white" stroke="transparent" points="1393.59,-196.23 1393.59,-215.23 1423.59,-215.23 1423.59,-196.23 1393.59,-196.23"/>
<polygon fill="none" stroke="black" points="1393.59,-196.23 1393.59,-215.23 1423.59,-215.23 1423.59,-196.23 1393.59,-196.23"/>
<text text-anchor="start" x="1396.59" y="-202.63" font-family="sans-serif" font-size="12.00">ACL</text>
<polygon fill="white" stroke="transparent" points="2154.68,-296.23 2154.68,-315.23 2170.68,-315.23 2170.68,-296.23 2154.68,-296.23"/>
<polyline fill="none" stroke="black" points="2170.68,-296.23 2170.68,-315.23 "/>
<text text-anchor="start" x="2157.68" y="-302.63" font-family="sans-serif" font-size="12.00">U</text>
<polygon fill="white" stroke="transparent" points="2170.68,-296.23 2170.68,-315.23 2225.68,-315.23 2225.68,-296.23 2170.68,-296.23"/>
<polygon fill="none" stroke="black" points="2170.68,-296.23 2170.68,-315.23 2225.68,-315.23 2225.68,-296.23 2170.68,-296.23"/>
<text text-anchor="start" x="2173.68" y="-302.63" font-family="sans-serif" font-size="12.00">OHS, PL</text>
</g>
<!-- MarketingAfiliadosContexto&#45;&gt;AnaliticaContexto -->
<g id="edge15" class="edge">
<title>MarketingAfiliadosContexto&#45;&gt;AnaliticaContexto</title>
<path fill="none" stroke="black" stroke-width="2" d="M2286.2,-298.01C2278.9,-284.42 2269.25,-270.13 2257.21,-259.81 2239.8,-244.87 2218.51,-233.15 2197.11,-224.04"/>
<text text-anchor="middle" x="2344.71" y="-263.21" font-family="sans-serif" font-size="12.00"> &#160;&#160;&#160;&#160;&#160;&#160;&#160;&#160;&#160;&#160;&#160;&#160;&#160;&#160;&#160;&#160;&#160;&#160;&#160;&#160;&#160;&#160;&#160;&#160;&#160;&#160;&#160;&#160;&#160;&#160;&#160;&#160;&#160;&#160;&#160;&#160;&#160;&#160;&#160;</text>
<polygon fill="white" stroke="transparent" points="2190.11,-215.04 2190.11,-232.04 2204.11,-232.04 2204.11,-215.04 2190.11,-215.04"/>
<text text-anchor="start" x="2192.11" y="-220.44" font-family="sans-serif" font-size="12.00">D</text>
<polygon fill="white" stroke="transparent" points="2279.2,-289.01 2279.2,-306.01 2293.2,-306.01 2293.2,-289.01 2279.2,-289.01"/>
<text text-anchor="start" x="2281.2" y="-294.41" font-family="sans-serif" font-size="12.00">U</text>
</g>
<!-- MarketingInfluencersContexto -->
<g id="node12" class="node">
<title>MarketingInfluencersContexto</title>
<polygon fill="none" stroke="black" stroke-width="2" points="707.6,-298.26 720.19,-299.19 732.5,-300.22 744.5,-301.36 756.13,-302.6 767.35,-303.94 778.11,-305.37 788.37,-306.89 798.08,-308.49 807.22,-310.16 815.74,-311.91 823.62,-313.73 830.82,-315.61 837.34,-317.55 843.13,-319.54 848.2,-321.57 852.52,-323.64 856.1,-325.75 858.91,-327.89 860.98,-330.06 862.29,-332.24 862.86,-334.43 862.69,-336.64 861.8,-338.84 860.21,-341.05 857.93,-343.24 855,-345.42 851.42,-347.59 847.24,-349.73 842.48,-351.84 837.17,-353.92 831.35,-355.96 825.04,-357.96 818.29,-359.92 811.12,-361.82 803.58,-363.67 795.69,-365.45 787.49,-367.17 779.03,-368.83 770.32,-370.41 761.41,-371.92 752.32,-373.35 743.09,-374.69 733.74,-375.95 724.31,-377.11 714.81,-378.19 705.28,-379.16 695.73,-380.04 686.19,-380.82 676.67,-381.49 667.19,-382.05 657.77,-382.51 648.42,-382.85 639.15,-383.09 629.98,-383.21 620.91,-383.21 611.95,-383.1 603.11,-382.87 594.39,-382.52 585.81,-382.06 577.37,-381.48 569.07,-380.79 560.91,-379.97 552.91,-379.05 545.07,-378.01 537.39,-376.87 529.89,-375.61 522.56,-374.26 515.41,-372.8 508.47,-371.24 501.73,-369.58 495.2,-367.84 488.9,-366.01 482.85,-364.09 477.05,-362.11 471.53,-360.05 466.3,-357.92 461.37,-355.74 456.77,-353.51 452.52,-351.23 448.64,-348.9 445.14,-346.55 442.06,-344.17 439.4,-341.78 437.2,-339.37 435.48,-336.96 434.26,-334.55 433.55,-332.16 433.38,-329.78 433.76,-327.43 434.72,-325.12 436.26,-322.85 438.4,-320.62 441.16,-318.45 444.54,-316.34 448.54,-314.31 453.17,-312.35 458.44,-310.46 464.34,-308.67 470.85,-306.97 477.99,-305.37 485.72,-303.87 494.04,-302.48 502.93,-301.19 512.37,-300.03 522.32,-298.98 532.76,-298.05 543.67,-297.24 554.99,-296.56 566.7,-296.01 578.75,-295.59 591.1,-295.29 603.7,-295.12 616.51,-295.08 629.47,-295.16 642.54,-295.37 655.66,-295.71 668.78,-296.17 681.85,-296.75 694.81,-297.45 707.6,-298.26"/>
<text text-anchor="middle" x="639.21" y="-335.9" font-family="sans-serif" font-size="16.00">MarketingInfluencersContexto</text>
</g>
<!-- MarketingInfluencersContexto&#45;&gt;OrquestadorPagosContexto -->
<g id="edge16" class="edge">
<title>MarketingInfluencersContexto&#45;&gt;OrquestadorPagosContexto</title>
<path fill="none" stroke="black" stroke-width="2" d="M684.87,-296.76C702.52,-282.79 723.64,-268.57 745.21,-259.81 798.38,-238.2 930.55,-221.43 1043.5,-210.4"/>
<text text-anchor="middle" x="820.71" y="-263.21" font-family="sans-serif" font-size="12.00"> &#160;&#160;&#160;&#160;&#160;&#160;&#160;&#160;&#160;&#160;&#160;&#160;&#160;&#160;&#160;&#160;&#160;&#160;&#160;&#160;&#160;&#160;&#160;&#160;&#160;&#160;&#160;&#160;&#160;&#160;&#160;&#160;&#160;&#160;&#160;&#160;&#160;&#160;&#160;</text>
<polygon fill="white" stroke="transparent" points="1020.5,-200.4 1020.5,-219.4 1036.5,-219.4 1036.5,-200.4 1020.5,-200.4"/>
<polyline fill="none" stroke="black" points="1036.5,-200.4 1036.5,-219.4 "/>
<text text-anchor="start" x="1023.5" y="-206.8" font-family="sans-serif" font-size="12.00">D</text>
<polygon fill="white" stroke="transparent" points="1036.5,-200.4 1036.5,-219.4 1066.5,-219.4 1066.5,-200.4 1036.5,-200.4"/>
<polygon fill="none" stroke="black" points="1036.5,-200.4 1036.5,-219.4 1066.5,-219.4 1066.5,-200.4 1036.5,-200.4"/>
<text text-anchor="start" x="1039.5" y="-206.8" font-family="sans-serif" font-size="12.00">ACL</text>
<polygon fill="white" stroke="transparent" points="649.87,-286.76 649.87,-305.76 665.87,-305.76 665.87,-286.76 649.87,-286.76"/>
<polyline fill="none" stroke="black" points="665.87,-286.76 665.87,-305.76 "/>
<text text-anchor="start" x="652.87" y="-293.16" font-family="sans-serif" font-size="12.00">U</text>
<polygon fill="white" stroke="transparent" points="665.87,-286.76 665.87,-305.76 720.87,-305.76 720.87,-286.76 665.87,-286.76"/>
<polygon fill="none" stroke="black" points="665.87,-286.76 665.87,-305.76 720.87,-305.76 720.87,-286.76 665.87,-286.76"/>
<text text-anchor="start" x="668.87" y="-293.16" font-family="sans-serif" font-size="12.00">OHS, PL</text>
</g>
<!-- MarketingInfluencersContexto&#45;&gt;AnaliticaContexto -->
<g id="edge17" class="edge">
<title>MarketingInfluencersContexto&#45;&gt;AnaliticaContexto</title>
<path fill="none" stroke="black" stroke-width="2" d="M769.21,-304.14C836.47,-287.75 920.2,-269.64 996.21,-259.81 1195.6,-234.02 1247.48,-253.04 1448.21,-241.81 1630.65,-231.6 1841.81,-215.57 1971.44,-205.24"/>
<text text-anchor="middle" x="1071.71" y="-263.21" font-family="sans-serif" font-size="12.00"> &#160;&#160;&#160;&#160;&#160;&#160;&#160;&#160;&#160;&#160;&#160;&#160;&#160;&#160;&#160;&#160;&#160;&#160;&#160;&#160;&#160;&#160;&#160;&#160;&#160;&#160;&#160;&#160;&#160;&#160;&#160;&#160;&#160;&#160;&#160;&#160;&#160;&#160;&#160;</text>
<polygon fill="white" stroke="transparent" points="1964.44,-196.24 1964.44,-213.24 1978.44,-213.24 1978.44,-196.24 1964.44,-196.24"/>
<text text-anchor="start" x="1966.44" y="-201.64" font-family="sans-serif" font-size="12.00">D</text>
<polygon fill="white" stroke="transparent" points="762.21,-295.14 762.21,-312.14 776.21,-312.14 776.21,-295.14 762.21,-295.14"/>
<text text-anchor="start" x="764.21" y="-300.54" font-family="sans-serif" font-size="12.00">U</text>
</g>
<!-- PlataformaContexto -->
<g id="node13" class="node">
<title>PlataformaContexto</title>
<polygon fill="none" stroke="black" stroke-width="2" points="1391.51,-335.36 1392.3,-332.49 1393.48,-329.64 1395.05,-326.84 1397,-324.09 1399.33,-321.41 1402.04,-318.8 1405.11,-316.27 1408.54,-313.84 1412.31,-311.51 1416.42,-309.3 1420.85,-307.2 1425.6,-305.23 1430.65,-303.39 1435.99,-301.68 1441.6,-300.12 1447.46,-298.71 1453.57,-297.45 1459.9,-296.34 1466.43,-295.38 1473.16,-294.57 1480.05,-293.92 1487.1,-293.42 1494.27,-293.07 1501.56,-292.87 1508.95,-292.82 1516.4,-292.91 1523.91,-293.14 1531.44,-293.5 1538.99,-293.98 1546.52,-294.6 1554.03,-295.33 1561.48,-296.17 1568.87,-297.12 1576.16,-298.16 1583.33,-299.3 1590.38,-300.53 1597.27,-301.83 1604,-303.21 1610.53,-304.66 1616.86,-306.17 1622.97,-307.74 1628.83,-309.35 1634.44,-311.01 1639.78,-312.72 1644.83,-314.45 1649.58,-316.22 1654.01,-318.02 1658.12,-319.84 1661.89,-321.68 1665.32,-323.54 1668.39,-325.41 1671.1,-327.29 1673.43,-329.18 1675.38,-331.08 1676.95,-332.99 1678.13,-334.9 1678.92,-336.82 1679.31,-338.74 1679.31,-340.65 1678.92,-342.57 1678.13,-344.49 1676.95,-346.4 1675.38,-348.31 1673.43,-350.21 1671.1,-352.1 1668.39,-353.98 1665.32,-355.86 1661.89,-357.71 1658.12,-359.55 1654.01,-361.37 1649.58,-363.17 1644.83,-364.94 1639.78,-366.67 1634.44,-368.38 1628.83,-370.04 1622.97,-371.65 1616.86,-373.22 1610.53,-374.73 1604,-376.18 1597.27,-377.56 1590.38,-378.86 1583.33,-380.09 1576.16,-381.23 1568.87,-382.28 1561.48,-383.22 1554.03,-384.06 1546.52,-384.79 1538.99,-385.41 1531.44,-385.9 1523.91,-386.26 1516.4,-386.48 1508.95,-386.57 1501.56,-386.52 1494.27,-386.32 1487.1,-385.97 1480.05,-385.47 1473.16,-384.82 1466.43,-384.01 1459.9,-383.06 1453.57,-381.94 1447.46,-380.68 1441.6,-379.27 1435.99,-377.71 1430.65,-376.01 1425.6,-374.17 1420.85,-372.19 1416.42,-370.1 1412.31,-367.88 1408.54,-365.55 1405.11,-363.12 1402.04,-360.59 1399.33,-357.98 1397,-355.3 1395.05,-352.55 1393.48,-349.75 1392.3,-346.91 1391.51,-344.03 1391.12,-341.14 1391.12,-338.25 1391.51,-335.36"/>
<text text-anchor="middle" x="1535.21" y="-335.9" font-family="sans-serif" font-size="16.00">PlataformaContexto</text>
</g>
<!-- PlataformaContexto&#45;&gt;OrquestadorPagosContexto -->
<g id="edge19" class="edge">
<title>PlataformaContexto&#45;&gt;OrquestadorPagosContexto</title>
<path fill="none" stroke="black" stroke-width="2" d="M1432.65,-302.53C1409.51,-293.51 1385.28,-283.38 1363.21,-272.81 1340.32,-261.84 1316.1,-248.33 1294.69,-235.69"/>
<text text-anchor="middle" x="1438.71" y="-263.21" font-family="sans-serif" font-size="12.00"> &#160;&#160;&#160;&#160;&#160;&#160;&#160;&#160;&#160;&#160;&#160;&#160;&#160;&#160;&#160;&#160;&#160;&#160;&#160;&#160;&#160;&#160;&#160;&#160;&#160;&#160;&#160;&#160;&#160;&#160;&#160;&#160;&#160;&#160;&#160;&#160;&#160;&#160;&#160;</text>
<polygon fill="white" stroke="transparent" points="1287.69,-226.69 1287.69,-243.69 1301.69,-243.69 1301.69,-226.69 1287.69,-226.69"/>
<text text-anchor="start" x="1289.69" y="-232.09" font-family="sans-serif" font-size="12.00">D</text>
<polygon fill="white" stroke="transparent" points="1425.65,-293.53 1425.65,-310.53 1439.65,-310.53 1439.65,-293.53 1425.65,-293.53"/>
<text text-anchor="start" x="1427.65" y="-298.93" font-family="sans-serif" font-size="12.00">U</text>
</g>
<!-- PlataformaContexto&#45;&gt;AnaliticaContexto -->
<g id="edge18" class="edge">
<title>PlataformaContexto&#45;&gt;AnaliticaContexto</title>
<path fill="none" stroke="black" stroke-width="2" d="M1531.87,-293.19C1533.32,-280.85 1537.32,-268.51 1546.21,-259.81 1575.92,-230.73 1817.61,-211.39 1969.62,-201.97"/>
<text text-anchor="middle" x="1621.71" y="-263.21" font-family="sans-serif" font-size="12.00"> &#160;&#160;&#160;&#160;&#160;&#160;&#160;&#160;&#160;&#160;&#160;&#160;&#160;&#160;&#160;&#160;&#160;&#160;&#160;&#160;&#160;&#160;&#160;&#160;&#160;&#160;&#160;&#160;&#160;&#160;&#160;&#160;&#160;&#160;&#160;&#160;&#160;&#160;&#160;</text>
<polygon fill="white" stroke="transparent" points="1962.62,-192.97 1962.62,-209.97 1976.62,-209.97 1976.62,-192.97 1962.62,-192.97"/>
<text text-anchor="start" x="1964.62" y="-198.37" font-family="sans-serif" font-size="12.00">D</text>
<polygon fill="white" stroke="transparent" points="1524.87,-284.19 1524.87,-301.19 1538.87,-301.19 1538.87,-284.19 1524.87,-284.19"/>
<text text-anchor="start" x="1526.87" y="-289.59" font-family="sans-serif" font-size="12.00">U</text>
</g>
<!-- ProcesadorPagosExternoContexto -->
<g id="node14" class="node">
<title>ProcesadorPagosExternoContexto</title>
<polygon fill="none" stroke="black" stroke-width="2" points="964.88,-370.01 954.71,-367.94 945.05,-365.8 935.94,-363.6 927.43,-361.34 919.54,-359.04 912.31,-356.7 905.77,-354.34 899.96,-351.95 894.89,-349.55 890.59,-347.15 887.07,-344.74 884.36,-342.35 882.45,-339.98 881.36,-337.63 881.1,-335.31 881.65,-333.03 883.01,-330.79 885.19,-328.6 888.15,-326.47 891.9,-324.38 896.4,-322.37 901.64,-320.41 907.59,-318.53 914.22,-316.71 921.51,-314.98 929.41,-313.31 937.89,-311.73 946.91,-310.23 956.43,-308.81 966.41,-307.47 976.81,-306.22 987.59,-305.05 998.7,-303.97 1010.09,-302.98 1021.72,-302.07 1033.55,-301.25 1045.53,-300.51 1057.62,-299.87 1069.78,-299.31 1081.97,-298.84 1094.14,-298.46 1106.27,-298.17 1118.3,-297.97 1130.22,-297.85 1141.98,-297.83 1153.55,-297.89 1164.91,-298.05 1176.03,-298.3 1186.89,-298.63 1197.46,-299.06 1207.72,-299.58 1217.66,-300.2 1227.25,-300.9 1236.5,-301.7 1245.38,-302.59 1253.88,-303.57 1261.99,-304.65 1269.72,-305.82 1277.04,-307.08 1283.97,-308.43 1290.48,-309.86 1296.59,-311.39 1302.28,-313.01 1307.56,-314.71 1312.43,-316.49 1316.88,-318.35 1320.92,-320.29 1324.54,-322.3 1327.74,-324.37 1330.52,-326.52 1332.88,-328.72 1334.82,-330.98 1336.33,-333.28 1337.42,-335.63 1338.08,-338.02 1338.31,-340.43 1338.09,-342.87 1337.44,-345.32 1336.34,-347.78 1334.79,-350.24 1332.79,-352.69 1330.33,-355.12 1327.4,-357.52 1324,-359.89 1320.13,-362.22 1315.79,-364.49 1310.96,-366.7 1305.66,-368.84 1299.87,-370.9 1293.6,-372.88 1286.85,-374.76 1279.63,-376.54 1271.94,-378.21 1263.78,-379.76 1255.17,-381.18 1246.12,-382.48 1236.64,-383.65 1226.74,-384.67 1216.45,-385.55 1205.78,-386.28 1194.76,-386.86 1183.42,-387.28 1171.77,-387.55 1159.86,-387.67 1147.71,-387.62 1135.36,-387.42 1122.84,-387.07 1110.2,-386.56 1097.48,-385.9 1084.71,-385.1 1071.95,-384.15 1059.24,-383.06 1046.62,-381.83 1034.14,-380.48 1021.85,-379 1009.79,-377.41 998.02,-375.7 986.58,-373.9 975.52,-372 964.88,-370.01"/>
<text text-anchor="middle" x="1127.21" y="-335.9" font-family="sans-serif" font-size="16.00">ProcesadorPagosExternoContexto</text>
</g>
<!-- ProcesadorPagosExternoContexto&#45;&gt;OrquestadorPagosContexto -->
<g id="edge20" class="edge">
<title>ProcesadorPagosExternoContexto&#45;&gt;OrquestadorPagosContexto</title>
<path fill="none" stroke="black" stroke-width="2" d="M1139.89,-297.59C1144.84,-284.86 1151.26,-271.2 1159.21,-259.81 1165.41,-250.93 1173.04,-242.4 1180.97,-234.61"/>
<text text-anchor="middle" x="1234.71" y="-263.21" font-family="sans-serif" font-size="12.00"> &#160;&#160;&#160;&#160;&#160;&#160;&#160;&#160;&#160;&#160;&#160;&#160;&#160;&#160;&#160;&#160;&#160;&#160;&#160;&#160;&#160;&#160;&#160;&#160;&#160;&#160;&#160;&#160;&#160;&#160;&#160;&#160;&#160;&#160;&#160;&#160;&#160;&#160;&#160;</text>
<polygon fill="white" stroke="transparent" points="1157.97,-224.61 1157.97,-243.61 1173.97,-243.61 1173.97,-224.61 1157.97,-224.61"/>
<polyline fill="none" stroke="black" points="1173.97,-224.61 1173.97,-243.61 "/>
<text text-anchor="start" x="1160.97" y="-231.01" font-family="sans-serif" font-size="12.00">D</text>
<polygon fill="white" stroke="transparent" points="1173.97,-224.61 1173.97,-243.61 1203.97,-243.61 1203.97,-224.61 1173.97,-224.61"/>
<polygon fill="none" stroke="black" points="1173.97,-224.61 1173.97,-243.61 1203.97,-243.61 1203.97,-224.61 1173.97,-224.61"/>
<text text-anchor="start" x="1176.97" y="-231.01" font-family="sans-serif" font-size="12.00">ACL</text>
<polygon fill="white" stroke="transparent" points="1104.89,-287.59 1104.89,-306.59 1120.89,-306.59 1120.89,-287.59 1104.89,-287.59"/>
<polyline fill="none" stroke="black" points="1120.89,-287.59 1120.89,-306.59 "/>
<text text-anchor="start" x="1107.89" y="-293.99" font-family="sans-serif" font-size="12.00">U</text>
<polygon fill="white" stroke="transparent" points="1120.89,-287.59 1120.89,-306.59 1175.89,-306.59 1175.89,-287.59 1120.89,-287.59"/>
<polygon fill="none" stroke="black" points="1120.89,-287.59 1120.89,-306.59 1175.89,-306.59 1175.89,-287.59 1120.89,-287.59"/>
<text text-anchor="start" x="1123.89" y="-293.99" font-family="sans-serif" font-size="12.00">OHS, PL</text>
</g>
<!-- ProgramasLealtadContexto -->
<g id="node15" class="node">
<title>ProgramasLealtadContexto</title>
<polygon fill="none" stroke="black" stroke-width="2" points="1703.45,-347.59 1701.09,-344.77 1699.25,-341.96 1697.94,-339.15 1697.16,-336.35 1696.93,-333.59 1697.25,-330.87 1698.11,-328.19 1699.52,-325.58 1701.49,-323.04 1704,-320.57 1707.05,-318.19 1710.63,-315.91 1714.74,-313.73 1719.36,-311.65 1724.49,-309.69 1730.1,-307.85 1736.19,-306.13 1742.72,-304.53 1749.69,-303.07 1757.08,-301.74 1764.85,-300.54 1772.98,-299.47 1781.45,-298.53 1790.24,-297.73 1799.3,-297.06 1808.63,-296.52 1818.17,-296.11 1827.91,-295.82 1837.81,-295.66 1847.84,-295.61 1857.97,-295.68 1868.17,-295.86 1878.4,-296.15 1888.63,-296.54 1898.83,-297.03 1908.97,-297.61 1919.01,-298.28 1928.93,-299.04 1938.69,-299.88 1948.27,-300.79 1957.64,-301.78 1966.77,-302.83 1975.64,-303.95 1984.21,-305.13 1992.48,-306.37 2000.4,-307.66 2007.97,-309.01 2015.17,-310.41 2021.97,-311.85 2028.37,-313.34 2034.33,-314.87 2039.87,-316.45 2044.95,-318.06 2049.57,-319.72 2053.73,-321.41 2057.41,-323.14 2060.61,-324.91 2063.32,-326.71 2065.55,-328.54 2067.28,-330.41 2068.53,-332.31 2069.29,-334.23 2069.57,-336.19 2069.36,-338.17 2068.67,-340.18 2067.51,-342.21 2065.89,-344.25 2063.81,-346.32 2061.28,-348.39 2058.31,-350.48 2054.91,-352.57 2051.08,-354.66 2046.86,-356.74 2042.23,-358.81 2037.23,-360.87 2031.85,-362.91 2026.12,-364.92 2020.04,-366.89 2013.64,-368.83 2006.92,-370.71 1999.91,-372.54 1992.62,-374.3 1985.07,-375.99 1977.27,-377.6 1969.24,-379.13 1961,-380.56 1952.56,-381.88 1943.95,-383.1 1935.19,-384.2 1926.28,-385.18 1917.26,-386.02 1908.15,-386.73 1898.96,-387.3 1889.71,-387.72 1880.43,-387.99 1871.13,-388.1 1861.85,-388.05 1852.6,-387.85 1843.4,-387.48 1834.29,-386.94 1825.27,-386.25 1816.37,-385.39 1807.63,-384.36 1799.05,-383.18 1790.67,-381.85 1782.51,-380.36 1774.58,-378.72 1766.93,-376.95 1759.56,-375.04 1752.49,-373 1745.77,-370.84 1739.39,-368.57 1733.39,-366.2 1727.78,-363.73 1722.59,-361.18 1717.83,-358.56 1713.52,-355.88 1709.68,-353.15 1706.32,-350.38 1703.45,-347.59"/>
<text text-anchor="middle" x="1886.21" y="-335.9" font-family="sans-serif" font-size="16.00">ProgramasLealtadContexto</text>
</g>
<!-- ProgramasLealtadContexto&#45;&gt;OrquestadorPagosContexto -->
<g id="edge22" class="edge">
<title>ProgramasLealtadContexto&#45;&gt;OrquestadorPagosContexto</title>
<path fill="none" stroke="black" stroke-width="2" d="M1799.42,-296.94C1767.86,-283.25 1731.52,-269.17 1697.21,-259.81 1599.9,-233.26 1488.04,-217.31 1398.2,-207.92"/>
<text text-anchor="middle" x="1809.71" y="-263.21" font-family="sans-serif" font-size="12.00"> &#160;&#160;&#160;&#160;&#160;&#160;&#160;&#160;&#160;&#160;&#160;&#160;&#160;&#160;&#160;&#160;&#160;&#160;&#160;&#160;&#160;&#160;&#160;&#160;&#160;&#160;&#160;&#160;&#160;&#160;&#160;&#160;&#160;&#160;&#160;&#160;&#160;&#160;&#160;</text>
<polygon fill="white" stroke="transparent" points="1375.2,-197.92 1375.2,-216.92 1391.2,-216.92 1391.2,-197.92 1375.2,-197.92"/>
<polyline fill="none" stroke="black" points="1391.2,-197.92 1391.2,-216.92 "/>
<text text-anchor="start" x="1378.2" y="-204.32" font-family="sans-serif" font-size="12.00">D</text>
<polygon fill="white" stroke="transparent" points="1391.2,-197.92 1391.2,-216.92 1421.2,-216.92 1421.2,-197.92 1391.2,-197.92"/>
<polygon fill="none" stroke="black" points="1391.2,-197.92 1391.2,-216.92 1421.2,-216.92 1421.2,-197.92 1391.2,-197.92"/>
<text text-anchor="start" x="1394.2" y="-204.32" font-family="sans-serif" font-size="12.00">ACL</text>
<polygon fill="white" stroke="transparent" points="1764.42,-286.94 1764.42,-305.94 1780.42,-305.94 1780.42,-286.94 1764.42,-286.94"/>
<polyline fill="none" stroke="black" points="1780.42,-286.94 1780.42,-305.94 "/>
<text text-anchor="start" x="1767.42" y="-293.34" font-family="sans-serif" font-size="12.00">U</text>
<polygon fill="white" stroke="transparent" points="1780.42,-286.94 1780.42,-305.94 1835.42,-305.94 1835.42,-286.94 1780.42,-286.94"/>
<polygon fill="none" stroke="black" points="1780.42,-286.94 1780.42,-305.94 1835.42,-305.94 1835.42,-286.94 1780.42,-286.94"/>
<text text-anchor="start" x="1783.42" y="-293.34" font-family="sans-serif" font-size="12.00">OHS, PL</text>
</g>
<!-- ProgramasLealtadContexto&#45;&gt;AnaliticaContexto -->
<g id="edge21" class="edge">
<title>ProgramasLealtadContexto&#45;&gt;AnaliticaContexto</title>
<path fill="none" stroke="black" stroke-width="2" d="M1902.04,-297.2C1908.77,-283.86 1917.76,-269.92 1929.21,-259.81 1947.33,-243.81 1969.89,-231.54 1992.41,-222.22"/>
<text text-anchor="middle" x="2004.71" y="-263.21" font-family="sans-serif" font-size="12.00"> &#160;&#160;&#160;&#160;&#160;&#160;&#160;&#160;&#160;&#160;&#160;&#160;&#160;&#160;&#160;&#160;&#160;&#160;&#160;&#160;&#160;&#160;&#160;&#160;&#160;&#160;&#160;&#160;&#160;&#160;&#160;&#160;&#160;&#160;&#160;&#160;&#160;&#160;&#160;</text>
<polygon fill="white" stroke="transparent" points="1985.41,-213.22 1985.41,-230.22 1999.41,-230.22 1999.41,-213.22 1985.41,-213.22"/>
<text text-anchor="start" x="1987.41" y="-218.62" font-family="sans-serif" font-size="12.00">D</text>
<polygon fill="white" stroke="transparent" points="1895.04,-288.2 1895.04,-305.2 1909.04,-305.2 1909.04,-288.2 1895.04,-288.2"/>
<text text-anchor="start" x="1897.04" y="-293.6" font-family="sans-serif" font-size="12.00">U</text>
</g>
</g>
</svg>
